<?xml version="1.0" encoding="UTF-8" standalone="no"?>
<!-- Generator: Adobe Illustrator 13.0.2, SVG Export Plug-In . SVG Version: 6.00 Build 14948)  -->

<svg
   xmlns:dc="http://purl.org/dc/elements/1.1/"
   xmlns:cc="http://creativecommons.org/ns#"
   xmlns:rdf="http://www.w3.org/1999/02/22-rdf-syntax-ns#"
   xmlns:svg="http://www.w3.org/2000/svg"
   xmlns="http://www.w3.org/2000/svg"
   xmlns:sodipodi="http://sodipodi.sourceforge.net/DTD/sodipodi-0.dtd"
   xmlns:inkscape="http://www.inkscape.org/namespaces/inkscape"
   version="1.0"
   id="Burgenland"
   x="0px"
   y="0px"
   width="600px"
   height="1000px"
   viewBox="0 0 600 1000"
   enable-background="new 0 0 600 1000"
   xml:space="preserve"
   inkscape:version="0.48.0 r9654"
   sodipodi:docname="bezirke_burgenland.svg"><metadata
   id="metadata166"><rdf:RDF><cc:Work
       rdf:about=""><dc:format>image/svg+xml</dc:format><dc:type
         rdf:resource="http://purl.org/dc/dcmitype/StillImage" /><dc:title></dc:title></cc:Work></rdf:RDF></metadata><defs
   id="defs164" /><sodipodi:namedview
   pagecolor="#ffffff"
   bordercolor="#666666"
   borderopacity="1"
   objecttolerance="10"
   gridtolerance="10"
   guidetolerance="10"
   inkscape:pageopacity="0"
   inkscape:pageshadow="2"
   inkscape:window-width="640"
   inkscape:window-height="480"
   id="namedview162"
   showgrid="false"
   inkscape:zoom="0.258"
   inkscape:cx="300"
   inkscape:cy="500"
   inkscape:window-x="0"
   inkscape:window-y="0"
   inkscape:window-maximized="0"
   inkscape:current-layer="Burgenland" />
<path
   id="Eisenstadt_Umgebung_2_"
   fill="#123456"
   stroke="#7B7979"
   stroke-width="0.9804"
   stroke-linecap="round"
   stroke-linejoin="round"
   stroke-miterlimit="10"
   d="  M321.177,199.105l38.935,38.938l-3.54,4.719l-2.359,3.539l-2.36,4.719l-7.078,10.618l-11.799,16.518l-1.18,14.157l-1.18,9.439  l-29.495-2.36v-7.079l-8.258,1.181l-3.54,3.539l10.618,20.056l27.136,3.54v30.675l-29.495-2.36l-9.438-11.797l-5.899,1.179  l-14.157,1.18l-18.877,4.72l-2.359,5.899l-2.359,2.359l-8.259-3.54l-10.618-11.797l2.359-10.619l-9.439-8.259l-8.258,2.36  l-8.259-9.439l-4.719,2.36h-2.359l-12.978,1.18l-18.877-15.338l5.898-3.54l-2.36-2.359l7.08-7.08l-5.899-7.079l-12.978-9.438  l15.337-7.079l2.359-3.539l5.899,3.539l4.719-3.539l2.36-5.899l-3.539-1.18l5.898-7.079l1.18-10.619l11.798-11.798l29.496-7.083  l10.618,15.342l15.337,22.416l3.539-1.18l7.079-11.798l4.719-5.899l9.438-14.157l3.539-8.264l8.26-10.619l2.359,2.36l15.338-5.899  l1.179-5.899L321.177,199.105 M235.052,261.64l-18.877,4.72l7.079,17.696l-3.54,7.08l7.079,10.618l12.978,14.158h7.079  l-4.719-17.698l18.877-14.158l1.18-10.618l-8.26-18.876L235.052,261.64" />
<path
   id="Eisenstadt_2_"
   fill="#123456"
   stroke="#7B7979"
   stroke-width="0.9804"
   stroke-linecap="round"
   stroke-linejoin="round"
   stroke-miterlimit="10"
   d="  M235.052,261.64l-18.877,4.72l7.079,17.696l-3.54,7.08l7.079,10.618l12.978,14.158h7.079l-4.719-17.698l18.877-14.158l1.18-10.618  l-8.26-18.876L235.052,261.64" />
<path
   id="Güssing"
   fill="#123456"
   stroke="#7B7979"
   stroke-width="0.9804"
   stroke-linecap="round"
   stroke-linejoin="round"
   stroke-miterlimit="10"
   d="  M81.677,721.779h11.798l8.258-9.439h20.057l7.079,7.079l10.618,2.36l3.54,7.078l21.237,4.72l-3.54,17.697l3.54,8.258l30.675,2.359  l1.18,3.54l9.438-1.18l1.18,8.258l12.978-7.078l-2.36-3.54l4.719-5.898l28.316-5.899l7.078,14.158l-14.158,3.539l1.18,9.438h-8.259  l1.18,4.724l-9.438,5.899l5.898,5.899l-1.179,7.078l7.078,3.54l10.619,1.18l4.719,7.079l-31.855,11.798l-4.72,7.079l4.72,4.719  l7.079-7.078l22.416,20.057l-15.337,5.898l-14.158-5.898l-1.18,7.078l-5.899,1.181l-9.438-8.259l-11.798,3.539l-16.518-5.899  l-3.54,7.079l-9.438-2.359l-9.439,3.539l-1.18-4.719l-4.72-4.72v-3.539l-9.438-1.18l-4.72,5.898l-11.797-4.719l4.719-16.518  l-8.259-2.359l-15.338,2.359h-9.438l-3.54,5.899l-8.259-8.259V809.09l-9.438-3.54l11.798-17.697l-8.258-8.258v-10.623l-10.619-1.181  l-3.539-22.415l-3.54-11.799l-5.899-9.438l1.18-1.181l-4.719-21.235v-1.181h5.899l11.798,2.36l3.54,11.798L81.677,721.779" />
<path
   id="Jennersdorf"
   fill="#123456"
   stroke="#7B7979"
   stroke-width="0.9804"
   stroke-linecap="round"
   stroke-linejoin="round"
   stroke-miterlimit="10"
   d="  M78.138,779.595l8.258,8.258L74.598,805.55l9.438,3.54v14.157l8.259,8.259l3.54-5.899h9.438l15.338-2.359l8.259,2.359l-4.719,16.518  l11.797,4.719l4.72-5.898l9.438,1.18v3.539l-4.718,34.215l-9.439-1.18l-5.898,5.899l1.18,7.078l-10.619,7.079l-5.898-4.719  l-4.72,2.359l-8.259,22.416l-7.078,2.364l-12.978,18.877l-18.877,8.259L51.002,958.93l-3.539,8.259l-11.799,3.539l-1.18-4.719  l-9.438,7.079l-4.719-3.54l2.36-7.079l2.359-21.236l5.899-7.078l4.719-3.54l1.18-7.078l7.079-4.725l7.079-16.518h11.799v-14.157  l4.718-7.079l9.439-21.236l11.798,3.54l-4.719-5.899l-7.079-8.259l-7.079-10.618v-2.36l2.36-9.438L61.62,816.168l-4.719-7.078  l-2.36-10.619l3.54-16.518h3.54l5.898-14.162l10.619,1.181V779.595" />
<path
   id="Mattersburg"
   fill="#123456"
   stroke="#7B7979"
   stroke-width="0.9804"
   stroke-linecap="round"
   stroke-linejoin="round"
   stroke-miterlimit="10"
   d="  M163.084,299.394l18.877,15.338l12.978-1.18h2.359l4.719-2.36l8.259,9.439l8.258-2.36l9.439,8.259l-2.359,10.619l10.618,11.797  l8.259,3.54l-1.18,2.359l8.258,9.444l-4.719,5.899l-18.877,7.079l-10.619,15.337l-12.978-9.438l-1.18,15.337l-9.438,5.899  l-4.719,10.618l-2.36,9.439l-10.618,1.18l-4.72-4.72l-9.438-18.876l2.36-5.898l-15.338-2.36l-7.079-2.359v-4.719l-7.079-14.157  v-17.703l1.18-12.978l1.18-16.517l-16.517-2.36l8.259-14.158l12.978,3.54l-3.54,9.438l3.54,4.719l14.158-14.158l3.54-11.798  L163.084,299.394" />
<path
   id="Neusiedl_am_See"
   fill="#123456"
   stroke="#7B7979"
   stroke-width="0.9804"
   stroke-linecap="round"
   stroke-linejoin="round"
   stroke-miterlimit="10"
   d="  M483.99,98.822l-8.259,12.978l3.539,2.359l-3.539,4.719l7.079,3.54l-7.079,5.898l8.259,7.079l-9.438,10.618l4.719,2.36l7.079,4.719  l8.26-8.258l23.601,15.337l-28.316,25.956l9.434,5.899l-10.617,18.877l10.617,3.539l-7.078,16.522l3.544,2.359l-7.083,17.697  l-3.54-2.359l-17.697,8.259l-9.438-1.181l-3.54,7.079l20.057,12.978l-2.359,7.079l11.798,10.619l-8.259,11.797l8.259,17.698  l2.359,25.956l10.624,12.983l-9.444,2.36l-14.157,1.18l-36.574,9.438l-37.754,5.898l-4.719-22.42l-11.799,11.803l-4.718,15.337  l-36.574,2.359l-3.54-9.438l-10.618-27.14V320.63l3.539-18.877l1.18-9.439l1.18-14.157l11.799-16.518l7.078-10.618l2.36-4.719  l2.359-3.539l3.54-4.719l-38.935-38.938l-9.438-7.079l-1.179-25.956l23.595-1.18l20.058-11.798l11.798-1.18h1.18l4.72-2.359  l-3.54-5.899l17.697-21.236l2.359,1.18l11.798-1.18l7.079,3.54l-1.18,5.899l24.775,9.438v9.438h7.079l3.54-12.978l9.438-18.876  l-8.258-7.079l-12.978-10.618l5.898-8.259l5.899,1.18l3.539,7.08l5.898-4.719l4.72,3.539l-9.438,7.079l12.979,3.54l2.359-11.798  l9.438-5.899l1.18-5.899L483.99,98.822" />
<path
   id="Oberwart"
   fill="#123456"
   stroke="#7B7979"
   stroke-width="0.9804"
   stroke-linecap="round"
   stroke-linejoin="round"
   stroke-miterlimit="10"
   d="  M140.667,558.961l10.618,22.416l10.619,8.259l7.078-2.359l8.259,8.259l3.54,15.337l-2.36,4.72l3.54,4.719h3.539l22.417-5.898  l14.157,11.798l12.978,35.399l-4.719,4.719l1.18,8.259l-5.899,7.078l-16.518,2.36h4.72v21.236l-9.439,9.438l1.18,4.719l3.54,8.26  l12.978-2.36l3.54,16.517l-5.899,7.079l2.359,7.079l-4.719,5.898l2.36,3.54l-12.978,7.078l-1.18-8.258l-9.438,1.18l-1.18-3.54  l-30.675-2.359l-3.54-8.258l3.54-17.697l-21.237-4.72l-3.54-7.078l-10.618-2.36l-7.079-7.079h-20.057l-8.258,9.439H81.677  l-9.439-7.079l-3.54-11.798l-11.798-2.36h-5.899l-4.719-24.776l-1.18-2.358l-8.259-23.597v-3.539l-11.798-27.141l-9.438-7.079  l7.079-3.539h1.18l-1.18-4.72l12.978-3.539l1.18-1.18l9.439-16.518l5.898,1.18l-5.898,7.079l4.719,4.72l5.899-3.54l-3.54-12.978  h7.079l11.798-2.359l14.157-4.72l15.337-1.18l21.237-17.697l11.798-4.719l7.079,1.18L140.667,558.961" />
<path
   id="Rust"
   fill="#123456"
   stroke="#7B7979"
   stroke-width="0.9804"
   stroke-linecap="round"
   stroke-linejoin="round"
   stroke-miterlimit="10"
   d="  M330.615,301.753l-3.539,18.877l-27.136-3.54l-10.618-20.056l3.54-3.539l8.258-1.181v7.079L330.615,301.753" />
<path
   id="Oberpullendorf"
   fill="#123456"
   stroke="#7B7979"
   stroke-width="0.9804"
   stroke-linecap="round"
   stroke-linejoin="round"
   stroke-miterlimit="10"
   d="  M206.737,410.3l22.417,10.618l8.258-4.719l34.214,17.697l17.697-8.258l9.438,3.539l4.72,10.618l5.898,1.18l-2.359,4.719l3.54,11.798  l-4.72,7.079l24.775,18.877l-10.618,20.063l-9.438,4.718l-3.54-3.539l-3.539,5.899l8.258,17.697l-3.539,12.978l-21.236,16.518  l-10.618,7.079l-5.899,11.798l-25.955-2.36l-9.439,15.338l-5.898-5.899v-8.259l-11.799-2.359l-5.898,4.72l7.078,27.135  l-10.618,9.439l-22.417,5.898h-3.539l-3.54-4.719l2.36-4.72l-3.54-15.337l-8.259-8.259l-7.078,2.359l-10.619-8.259l-10.618-22.416  l1.18-9.438l-7.079-1.18l10.619-9.439l-3.54-5.898l5.899-2.359l4.719-9.438l8.259-15.339l-11.798-16.521h-1.179l-1.18-15.338  l8.258-16.517l-1.18-5.899l7.079-3.539l3.54-4.719l-2.36-4.719l9.438-4.719v-12.979l4.72,4.72l10.618-1.18l2.36-9.439l4.719-10.618  L206.737,410.3" />
<g
   id="Skala">
	<rect
   id="rect4459"
   x="364.268"
   y="592.116"
   fill="#111101"
   width="18.687"
   height="17.788" />
	<text
   transform="matrix(1.0506 0 0 1 392.4045 607.5596)"
   font-family="'ArialMT'"
   font-size="19.4056"
   id="text14">%legende1%</text>

	<rect
   id="rect4459-1"
   x="364.268"
   y="616.626"
   fill="#111102"
   width="18.687"
   height="17.791" />
	<text
   transform="matrix(1.0506 0 0 1 392.4045 632.0693)"
   font-family="'ArialMT'"
   font-size="19.4056"
   id="text17">%legende2%</text>

	<rect
   id="rect4459-2"
   x="364.268"
   y="641.135"
   fill="#111103"
   width="18.687"
   height="17.79" />
	<text
   transform="matrix(1.0506 0 0 1 392.4045 656.5791)"
   font-family="'ArialMT'"
   font-size="19.4056"
   id="text20">%legende3%</text>

	<rect
   id="rect4459-6"
   x="364.268"
   y="665.648"
   fill="#111104"
   width="18.687"
   height="17.788" />
	<text
   transform="matrix(1.0506 0 0 1 392.4045 681.0918)"
   font-family="'ArialMT'"
   font-size="19.4056"
   id="text23">%legende4%</text>

	<rect
   id="rect4459-29"
   x="364.268"
   y="690.155"
   fill="#111105"
   width="18.687"
   height="17.792" />
	<text
   transform="matrix(1.0506 0 0 1 392.4045 705.6006)"
   font-family="'ArialMT'"
   font-size="19.4056"
   id="text26">%legende5%</text>

	<rect
   id="rect4459-3"
   x="364.268"
   y="714.667"
   fill="#111106"
   width="18.687"
   height="17.792" />
	<text
   transform="matrix(1.0506 0 0 1 392.4045 730.1123)"
   font-family="'ArialMT'"
   font-size="19.4056"
   id="text29">%legende6%</text>

	<rect
   id="rect4459-8"
   x="364.268"
   y="739.179"
   fill="#111107"
   width="18.687"
   height="17.789" />
	<text
   transform="matrix(1.0506 0 0 1 392.4045 754.6221)"
   font-family="'ArialMT'"
   font-size="19.4056"
   id="text32">%legende7%</text>

	<rect
   id="rect4459-9"
   x="364.268"
   y="763.686"
   fill="#111108"
   width="18.687"
   height="17.79" />
	<text
   transform="matrix(1.0506 0 0 1 392.4045 779.1338)"
   font-family="'ArialMT'"
   font-size="19.4056"
   id="text35">%legende8%</text>

	<rect
   id="rect4459-18"
   x="364.268"
   y="788.196"
   fill="#111109"
   width="18.687"
   height="17.793" />
	<text
   transform="matrix(1.0506 0 0 1 392.4045 803.6436)"
   font-family="'ArialMT'"
   font-size="19.4056"
   id="text38">%legende9%</text>

	<rect
   id="rect4459-18-6"
   x="364.268"
   y="812.707"
   fill="#111110"
   width="18.687"
   height="17.793" />
	<text
   transform="matrix(1.0506 0 0 1 392.4045 828.1514)"
   font-family="'ArialMT'"
   font-size="19.4056"
   id="text41">%legende10%</text>

</g>
<g
   id="Kreise">
	<g
   id="Kreis09"
   transform="translate(-1099.4425,-1468.408)">
		
			<path
   id="path3841-8-9-2-0-6-5-2_23_"
   ry="67.680222"
   rx="67.680222"
   cy="1106.1483"
   cx="328.29956"
   type="arc"
   fill="#FFFFFF"
   stroke="#000000"
   d="    M1333.946,1971.165c0,5.427-4.401,9.831-9.835,9.831c-5.428,0-9.831-4.404-9.831-9.831c0-5.432,4.402-9.831,9.831-9.831    C1329.545,1961.334,1333.946,1965.733,1333.946,1971.165z" />
		<text
   transform="matrix(1 0 0 1 1320.8802 1975.5085)"
   font-family="'ArialMT'"
   font-size="12.061"
   id="text46">9</text>

	</g>
	<g
   id="Kreis08"
   transform="translate(-1099.4425,-1468.408)">
		
			<path
   id="path3841-8-9-2-0-6-5-2_22_"
   ry="67.680222"
   rx="67.680222"
   cy="1106.1483"
   cx="328.29956"
   type="arc"
   fill="#FFFFFF"
   stroke="#000000"
   d="    M1416.091,1777.444c0,5.429-4.402,9.83-9.836,9.83c-5.429,0-9.831-4.403-9.831-9.83c0-5.428,4.402-9.824,9.831-9.824    C1411.693,1767.614,1416.091,1772.012,1416.091,1777.444z" />
		<text
   transform="matrix(1 0 0 1 1403.0248 1781.7874)"
   font-family="'ArialMT'"
   font-size="12.061"
   id="text50">8</text>

	</g>
	<g
   id="Kreis07"
   transform="translate(-1099.4425,-1468.408)">
		
			<path
   id="path3841-8-9-2-0-6-5-2_21_"
   ry="67.680222"
   rx="67.680222"
   cy="1106.1483"
   cx="328.29956"
   type="arc"
   fill="#FFFFFF"
   stroke="#000000"
   d="    M1234.468,2121.14c0,5.427-4.401,9.83-9.835,9.83c-5.428,0-9.831-4.404-9.831-9.83c0-5.432,4.405-9.83,9.831-9.83    C1230.067,2111.31,1234.468,2115.709,1234.468,2121.14z" />
		<text
   transform="matrix(1 0 0 1 1221.4022 2125.4832)"
   font-family="'ArialMT'"
   font-size="12.061"
   id="text54">7</text>

	</g>
	<g
   id="Kreis06"
   transform="translate(-1099.4425,-1468.408)">
		
			<path
   id="path3841-8-9-2-0-6-5-2_20_"
   ry="67.680222"
   rx="67.680222"
   cy="1106.1483"
   cx="328.29956"
   type="arc"
   fill="#FFFFFF"
   stroke="#000000"
   d="    M1516.028,1722.011c0,5.427-4.401,9.832-9.836,9.832c-5.429,0-9.831-4.405-9.831-9.832c0-5.431,4.402-9.83,9.831-9.83    C1511.626,1712.181,1516.028,1716.58,1516.028,1722.011z" />
		<text
   transform="matrix(1 0 0 1 1502.9623 1726.3547)"
   font-family="'ArialMT'"
   font-size="12.061"
   id="text58">6</text>

	</g>
	<g
   id="Kreis05"
   transform="translate(-1099.4425,-1468.408)">
		
			<path
   id="path3841-8-9-2-0-6-5-2_19_"
   ry="67.680222"
   rx="67.680222"
   cy="1106.1483"
   cx="328.29956"
   type="arc"
   fill="#FFFFFF"
   stroke="#000000"
   d="    M1290.929,1826.301c0,5.427-4.401,9.831-9.836,9.831c-5.428,0-9.831-4.405-9.831-9.831c0-5.431,4.402-9.831,9.831-9.831    C1286.528,1816.47,1290.929,1820.869,1290.929,1826.301z" />
		<text
   transform="matrix(1 0 0 1 1277.8641 1830.6443)"
   font-family="'ArialMT'"
   font-size="12.061"
   id="text62">5</text>

	</g>
	<g
   id="Kreis04"
   transform="translate(-1099.4425,-1468.408)">
		
			<path
   id="path3841-8-9-2-0-6-5-2_18_"
   ry="67.680222"
   rx="67.680222"
   cy="1106.1483"
   cx="328.29956"
   type="arc"
   fill="#FFFFFF"
   stroke="#000000"
   d="    M1220.776,2338.664c0,5.428-4.402,9.832-9.835,9.832c-5.428,0-9.831-4.406-9.831-9.832c0-5.432,4.405-9.832,9.831-9.832    C1216.374,2328.833,1220.776,2333.232,1220.776,2338.664z" />
		<text
   transform="matrix(1 0 0 1 1207.7103 2342.699)"
   font-family="'ArialMT'"
   font-size="12.061"
   id="text66">4</text>

	</g>
	<g
   id="Kreis03"
   transform="translate(-1099.4425,-1468.408)">
		
			<path
   id="path3841-8-9-2-0-6-5-2_15_"
   ry="67.680222"
   rx="67.680222"
   cy="1106.1483"
   cx="328.29956"
   type="arc"
   fill="#FFFFFF"
   stroke="#000000"
   d="    M1261.173,2259.992c0,5.427-4.405,9.832-9.835,9.832c-5.429,0-9.831-4.405-9.831-9.832c0-5.43,4.402-9.83,9.831-9.83    C1256.77,2250.162,1261.173,2254.562,1261.173,2259.992z" />
		<text
   transform="matrix(1 0 0 1 1248.1058 2264.0271)"
   font-family="'ArialMT'"
   font-size="12.061"
   id="text70">3</text>

	</g>
	<g
   id="Kreis02"
   transform="translate(-1099.4425,-1468.408)">
		
			<path
   id="path3841-8-9-2-0-6-5-2_16_"
   ry="67.680222"
   rx="67.680222"
   cy="1106.1483"
   cx="328.29956"
   type="arc"
   fill="#FFFFFF"
   stroke="#000000"
   d="    M1409.363,1725.473c0,5.429-4.405,9.831-9.836,9.831c-5.429,0-9.831-4.403-9.831-9.831c0-5.431,4.402-9.831,9.831-9.831    C1404.958,1715.643,1409.363,1720.042,1409.363,1725.473z" />
		<text
   transform="matrix(1 0 0 1 1396.2943 1729.5076)"
   font-family="'ArialMT'"
   font-size="12.061"
   id="text74">2</text>

	</g>
	<g
   id="Kreis01"
   transform="translate(-1099.4425,-1468.408)">
		
			<path
   id="path3841-8-9-2-0-6-5-2_17_"
   ry="67.680222"
   rx="67.680222"
   cy="1106.1483"
   cx="328.29956"
   type="arc"
   fill="#FFFFFF"
   stroke="#000000"
   d="    M1349.238,1747.31c0,5.427-4.4,9.831-9.835,9.831c-5.429,0-9.832-4.405-9.832-9.831c0-5.432,4.402-9.832,9.832-9.832    C1344.837,1737.478,1349.238,1741.878,1349.238,1747.31z" />
		<text
   transform="matrix(1 0 0 1 1335.8636 1751.9617)"
   font-family="'ArialMT'"
   font-size="12.061"
   id="text78">1</text>

	</g>
</g>
<g
   id="Beschriftungen">
	<text
   transform="matrix(1 0 0 1 358.6125 904.0127)"
   font-family="'ArialMT'"
   font-size="14.2709"
   id="text81">Visualisierung erstellt mit</text>

	<text
   transform="matrix(1 0 0 1 395.4026 921.1377)"
   font-family="'ArialMT'"
   font-size="14.2709"
   id="text83">DataMaps.eu</text>

	<text
   transform="matrix(1 0 0 1 370.5081 938.2627)"
   font-family="'ArialMT'"
   font-size="14.2709"
   id="text85">provided by open3.at</text>

	<g
   id="open3-logo">
		<path
   fill="#007CC1"
   d="M448.204,968.201c0-3.041-1.449-4.772-3.251-5.729c1.661-0.884,2.897-2.438,2.897-5.16    c0-4.235-3.223-7.211-7.668-7.211c-4.241,0-7.604,2.688-7.704,7.178h4.594c0.106-1.905,1.378-3.036,3.11-3.036    c1.654,0,3.067,1.096,3.067,3.217c0,1.767-0.954,3.145-3.181,3.145h-0.671v3.994h0.671c2.262,0,3.535,1.378,3.535,3.464    c0,2.265-1.414,3.498-3.396,3.498c-1.802,0-3.354-1.021-3.428-3.286h-4.59c0.068,5.271,3.922,7.421,8.021,7.421    C444.531,975.691,448.204,973.219,448.204,968.201z"
   id="path88" />
		<path
   fill="#9C9D9F"
   d="M366.144,963.356c0,5.833-2.326,9.688-6.076,9.688c-3.611,0-6.284-3.854-6.284-10.381    c0-5.694,2.152-9.549,6.076-9.549C363.678,953.113,366.144,957.002,366.144,963.356z M370.657,963.08    c0-7.813-4.479-12.645-10.729-12.645s-10.692,4.829-10.692,12.645c0,8.332,4.756,12.914,10.688,12.914    C365.866,975.994,370.657,971.412,370.657,963.08z"
   id="path90" />
		<path
   fill="#9C9D9F"
   d="M385.774,966.203c0,4.375-1.84,7.321-4.757,7.321c-1.354,0-2.152-0.416-2.708-0.862v-11.526    c0-1.251,0.861-1.91,2.604-1.91C383.309,959.225,385.774,961.447,385.774,966.203z M389.801,965.996    c0-4.86-2.354-8.959-8.777-8.959c-2.188,0-4.409,0.557-5.354,1.182c-0.972,0.66-1.313,1.283-1.313,2.535v20.105    c0,0.417,0.208,0.596,0.625,0.596h2.736c0.417,0,0.597-0.179,0.597-0.596v-5.904c0.444,0.313,1.667,0.938,3.396,0.938    C387.162,975.89,389.801,970.822,389.801,965.996z"
   id="path92" />
		<path
   fill="#9C9D9F"
   d="M403.995,963.426l-7.534,1.285c0.146-2.709,1.319-5.486,4.104-5.486    C403.024,959.225,403.892,961.273,403.995,963.426z M407.884,970.058c0-0.451-0.347-0.868-0.798-0.868    c-0.417,0-0.729,0.313-0.896,0.625c-0.729,1.284-2.188,2.951-4.409,2.951c-3.333,0-4.938-2.813-5.146-6.076l10.104-1.666    c0.729-0.104,1.042-0.348,1.042-1.105c0-3.51-2.465-6.875-6.805-6.875c-4.139,0-7.951,2.882-7.951,9.34    c0,6.806,3.75,9.549,7.951,9.549C405.418,975.926,407.884,972.141,407.884,970.058z"
   id="path94" />
		<path
   fill="#9C9D9F"
   d="M426.382,974.884v-12.5c0-4.166-3.75-5.347-7.43-5.347c-2.569,0-4.687,0.48-5.833,1.041    c-1.042,0.521-1.389,1.008-1.389,2.147v14.651c0,0.416,0.208,0.591,0.625,0.591h2.743c0.416,0,0.625-0.175,0.625-0.591v-13.399    c0-1.106,0.271-2.291,3.09-2.291c2.771,0,3.604,1.666,3.604,3.367v12.325c0,0.416,0.181,0.591,0.597,0.591h2.771    C426.208,975.474,426.382,975.299,426.382,974.884z"
   id="path96" />
		<path
   fill="#007CC1"
   d="M454.353,973.91c0-2.474-3.481-2.002-3.481-3.611c0-0.688,0.455-1.104,1.169-1.104    c0.702,0,1,0.48,1.169,0.857c0.091,0.195,0.247,0.363,0.481,0.363c0.286,0,0.494-0.156,0.494-0.479    c0-0.438-0.644-1.378-2.117-1.378c-1.299,0-2.234,0.688-2.234,1.871c0,2.246,3.442,1.779,3.442,3.597    c0,0.624-0.416,1.132-1.221,1.132c-0.76,0-1.176-0.625-1.345-1.063c-0.071-0.222-0.229-0.39-0.519-0.39    c-0.313,0-0.521,0.188-0.521,0.519c0,0.546,0.851,1.638,2.345,1.638C453.522,975.858,454.353,975.026,454.353,973.91z"
   id="path98" />
		<path
   fill="#007CC1"
   d="M460.923,972.261c0,1.7-0.714,2.87-1.936,2.87c-1.169,0-2.026-1.17-2.026-3.092    c0-1.649,0.702-2.812,1.961-2.812C460.145,969.233,460.923,970.403,460.923,972.261z M462.067,972.168    c0-2.222-1.273-3.61-3.117-3.61c-1.845,0-3.131,1.39-3.131,3.61c0,2.377,1.377,3.688,3.131,3.688S462.067,974.545,462.067,972.168    z"
   id="path100" />
		<path
   fill="#007CC1"
   d="M469.052,974.531c0-0.172-0.09-0.271-0.24-0.271c-0.097,0-0.168,0.052-0.267,0.129    c-0.286,0.286-0.766,0.676-1.604,0.676c-1.325,0-2.208-1.299-2.208-3.104c0-1.754,0.793-2.752,1.923-2.752    c0.948,0,1.271,0.597,1.428,0.922c0.091,0.182,0.234,0.363,0.481,0.363c0.286,0,0.486-0.17,0.486-0.48    c0-0.469-0.752-1.455-2.338-1.455c-1.98,0-3.11,1.648-3.11,3.586c0,2.018,1.04,3.715,3.188,3.715    C468.156,975.858,469.052,974.936,469.052,974.531z"
   id="path102" />
		<path
   fill="#007CC1"
   d="M471.808,975.56v-6.702c0-0.104-0.059-0.15-0.156-0.15h-0.779c-0.104,0-0.156,0.052-0.156,0.15v6.702    c0,0.104,0.059,0.155,0.156,0.155h0.779C471.755,975.715,471.808,975.662,471.808,975.56z"
   id="path104" />
		<path
   fill="#007CC1"
   d="M477.832,975.56v-0.403c0-0.104-0.052-0.15-0.156-0.15h-2.604v-2.586h2.222    c0.104,0,0.156-0.055,0.156-0.154v-0.377c0-0.104-0.052-0.156-0.156-0.156h-2.222v-2.313h2.604c0.104,0,0.156-0.055,0.156-0.155    v-0.405c0-0.104-0.052-0.15-0.156-0.15h-3.546c-0.104,0-0.149,0.052-0.149,0.15v6.702c0,0.104,0.052,0.156,0.149,0.156h3.546    C477.781,975.715,477.832,975.662,477.832,975.56z"
   id="path106" />
		<path
   fill="#007CC1"
   d="M483.65,969.26v-0.402c0-0.104-0.065-0.15-0.169-0.15h-4.481c-0.104,0-0.168,0.052-0.168,0.15v0.402    c0,0.104,0.064,0.154,0.168,0.154h1.701v6.131c0,0.117,0.052,0.17,0.169,0.17h0.753c0.117,0,0.169-0.053,0.169-0.17v-6.131h1.688    C483.584,969.416,483.65,969.363,483.65,969.26z"
   id="path108" />
		<path
   fill="#007CC1"
   d="M489.609,968.857c0-0.104-0.065-0.15-0.168-0.15h-0.585c-0.117,0-0.169,0.039-0.234,0.143l-1.559,2.779    h-0.026l-1.52-2.779c-0.065-0.104-0.118-0.143-0.234-0.143h-0.792c-0.104,0-0.156,0.052-0.156,0.15    c0,0.038,0.02,0.096,0.039,0.146l2.053,3.455v3.104c0,0.104,0.059,0.156,0.156,0.156h0.779c0.104,0,0.156-0.055,0.156-0.156    v-3.104l2.052-3.455C489.596,968.961,489.609,968.896,489.609,968.857z"
   id="path110" />
		<path
   fill="#007CC1"
   d="M454.533,962.828c0,1.807-0.792,2.924-2.571,2.924c-0.338,0-0.637-0.039-0.806-0.065v-5.715    c0.13-0.026,0.455-0.052,0.806-0.052C453.677,959.918,454.533,961.022,454.533,962.828z M455.664,962.84    c0-2.154-1.182-3.571-3.767-3.571c-0.813,0-1.507,0.092-1.676,0.146c-0.137,0.039-0.155,0.104-0.155,0.221v6.441    c0,0.112,0.021,0.184,0.155,0.221c0.182,0.054,1.001,0.144,1.676,0.144C454.483,966.438,455.664,965.102,455.664,962.84z"
   id="path112" />
		<path
   fill="#007CC1"
   d="M460.91,963.504h-2.234l0.779-2.195c0.208-0.585,0.324-1.271,0.324-1.271h0.026    c0,0,0.13,0.688,0.338,1.271L460.91,963.504z M462.976,966.219c0-0.04-0.026-0.117-0.039-0.156l-2.521-6.559    c-0.039-0.104-0.078-0.156-0.188-0.156h-0.721c-0.13,0-0.169,0.052-0.208,0.156l-2.507,6.559    c-0.021,0.053-0.039,0.116-0.039,0.156c0,0.091,0.059,0.143,0.156,0.143h0.61c0.109,0,0.168-0.052,0.208-0.15l0.733-2.078h2.649    l0.728,2.078c0.039,0.104,0.098,0.15,0.195,0.15h0.778C462.923,966.361,462.976,966.31,462.976,966.219z"
   id="path114" />
		<path
   fill="#007CC1"
   d="M468.091,959.906v-0.402c0-0.104-0.063-0.155-0.169-0.155h-4.479c-0.104,0-0.169,0.052-0.169,0.155v0.402    c0,0.104,0.063,0.15,0.169,0.15h1.701v6.131c0,0.117,0.052,0.169,0.169,0.169h0.753c0.117,0,0.169-0.052,0.169-0.169v-6.13h1.688    C468.027,960.062,468.091,960.01,468.091,959.906z"
   id="path116" />
		<path
   fill="#007CC1"
   d="M472.544,963.504h-2.229l0.772-2.195c0.208-0.585,0.325-1.271,0.325-1.271h0.026    c0,0,0.13,0.688,0.338,1.271L472.544,963.504z M474.61,966.219c0-0.04-0.026-0.117-0.039-0.156l-2.521-6.559    c-0.04-0.104-0.072-0.156-0.189-0.156h-0.714c-0.137,0-0.169,0.052-0.208,0.156l-2.514,6.559    c-0.021,0.053-0.039,0.116-0.039,0.156c0,0.091,0.059,0.143,0.156,0.143h0.61c0.117,0,0.169-0.052,0.208-0.15l0.74-2.078h2.646    l0.729,2.078c0.039,0.104,0.091,0.15,0.188,0.15h0.779C474.558,966.361,474.61,966.31,474.61,966.219z"
   id="path118" />
		<path
   fill="#007CC1"
   d="M455.561,956.111v-2.624c0-0.104-0.078-0.151-0.188-0.151h-2.14c-0.104,0-0.155,0.054-0.155,0.151v0.354    c0,0.104,0.051,0.168,0.155,0.168h1.299v1.715c0,0.416-0.624,0.701-1.467,0.701c-1.223,0-2.146-1.26-2.146-3.117    c0-1.688,0.753-2.807,2.079-2.807c1.026,0,1.402,0.605,1.563,0.923c0.091,0.196,0.221,0.352,0.479,0.352    c0.313,0,0.481-0.183,0.481-0.479c0-0.43-0.65-1.441-2.436-1.441c-2.021,0-3.312,1.469-3.312,3.611    c0,2.312,1.376,3.688,3.337,3.688C454.508,957.15,455.561,956.619,455.561,956.111z"
   id="path120" />
		<path
   fill="#007CC1"
   d="M462.442,953.553c0,1.701-0.714,2.869-1.938,2.869c-1.169,0-2.021-1.168-2.021-3.092    c0-1.648,0.701-2.81,1.961-2.81C461.662,950.526,462.442,951.695,462.442,953.553z M463.584,953.461    c0-2.221-1.271-3.61-3.118-3.61c-1.844,0-3.13,1.396-3.13,3.61c0,2.377,1.376,3.688,3.13,3.688    C462.221,957.15,463.584,955.838,463.584,953.461z"
   id="path122" />
		<path
   fill="#007CC1"
   d="M470.519,950.149c0-0.104-0.064-0.149-0.168-0.149h-0.663c-0.117,0-0.169,0.052-0.208,0.149l-1.644,4.729    c-0.143,0.43-0.24,0.947-0.24,0.947h-0.026c0,0-0.078-0.521-0.221-0.947l-1.61-4.729c-0.04-0.104-0.104-0.149-0.208-0.149h-0.832    c-0.104,0-0.156,0.052-0.156,0.149c0,0.039,0.021,0.104,0.04,0.156l2.455,6.546c0.039,0.104,0.091,0.156,0.208,0.156h0.545    c0.13,0,0.188-0.053,0.229-0.156l2.467-6.546C470.506,950.254,470.519,950.188,470.519,950.149z"
   id="path124" />
		<path
   fill="#007CC1"
   d="M475.751,956.852v-0.396c0-0.104-0.052-0.155-0.149-0.155h-2.611v-2.587h2.221    c0.104,0,0.156-0.053,0.156-0.154v-0.377c0-0.104-0.052-0.156-0.156-0.156h-2.221v-2.313h2.61c0.104,0,0.15-0.057,0.15-0.155    v-0.402c0-0.104-0.052-0.149-0.15-0.149h-3.551c-0.104,0-0.149,0.052-0.149,0.149v6.702c0,0.104,0.052,0.156,0.149,0.156h3.551    C475.699,957.008,475.751,956.957,475.751,956.852z"
   id="path126" />
		<path
   fill="#007CC1"
   d="M480.893,951.994c0,0.854-0.624,1.43-1.792,1.43c-0.267,0-0.475,0-0.585-0.014v-2.83    c0.169-0.027,0.416-0.065,0.832-0.065C480.425,950.514,480.893,951.033,480.893,951.994z M482.27,956.852    c0-0.038-0.026-0.09-0.058-0.143l-1.144-2.092c-0.208-0.395-0.559-0.74-0.805-0.856v-0.025c0.832-0.19,1.698-0.793,1.698-1.813    c0-1.188-0.736-2-2.606-2c-0.846,0-1.546,0.091-1.741,0.143c-0.13,0.039-0.156,0.091-0.156,0.208v6.585    c0,0.104,0.059,0.156,0.156,0.156h0.74c0.104,0,0.156-0.053,0.156-0.156v-2.922h0.468c0.467,0,0.792,0.416,0.974,0.779l1.092,2.17    c0.039,0.076,0.137,0.129,0.267,0.129h0.805C482.218,957.008,482.27,956.957,482.27,956.852z"
   id="path128" />
		<path
   fill="#007CC1"
   d="M489.592,956.852v-6.702c0-0.104-0.052-0.149-0.149-0.149h-0.563c-0.104,0-0.149,0.052-0.149,0.149v4.248    c0,0.584,0.071,1.272,0.071,1.272h-0.036c0,0-0.302-0.643-0.64-1.131l-3-4.396c-0.063-0.104-0.117-0.149-0.229-0.149h-0.852    c-0.104,0-0.149,0.051-0.149,0.149v6.702c0,0.104,0.053,0.156,0.149,0.156h0.571c0.104,0,0.156-0.053,0.156-0.156v-4.585    c0-0.521-0.065-1.208-0.065-1.208h0.026c0,0,0.299,0.637,0.604,1.104l3.195,4.688c0.065,0.104,0.104,0.155,0.234,0.155h0.662    C489.54,957.008,489.592,956.957,489.592,956.852z"
   id="path130" />
		<path
   fill="#007CC1"
   d="M499.123,956.879c0-0.041-0.675-6.729-0.675-6.729c-0.013-0.104-0.052-0.149-0.155-0.149h-0.845    c-0.104,0-0.156,0.063-0.195,0.149l-1.701,4.521c-0.169,0.457-0.271,1.016-0.271,1.016h-0.026c0,0-0.112-0.559-0.286-1.016    l-1.688-4.521c-0.039-0.091-0.091-0.149-0.195-0.149h-0.854c-0.104,0-0.146,0.052-0.156,0.149c0,0-0.675,6.688-0.675,6.729    c0,0.09,0.063,0.129,0.154,0.129h0.638c0.104,0,0.143-0.053,0.154-0.156l0.358-4.546c0.04-0.56,0.04-1.338,0.04-1.338h0.026    c0,0,0.182,0.778,0.39,1.338l1.688,4.563c0.039,0.104,0.077,0.143,0.188,0.143h0.325c0.117,0,0.156-0.039,0.194-0.143l1.688-4.563    c0.208-0.571,0.396-1.338,0.396-1.338h0.021c0,0,0,0.778,0.039,1.338l0.364,4.546c0.013,0.104,0.052,0.156,0.156,0.156h0.754    C499.085,957.008,499.123,956.969,499.123,956.879z"
   id="path132" />
		<path
   fill="#007CC1"
   d="M504.787,956.852v-0.396c0-0.104-0.052-0.155-0.156-0.155h-2.604v-2.587h2.221    c0.104,0,0.156-0.053,0.156-0.154v-0.377c0-0.104-0.052-0.156-0.156-0.156h-2.221v-2.313h2.604c0.104,0,0.156-0.057,0.156-0.155    v-0.402c0-0.104-0.052-0.149-0.156-0.149h-3.547c-0.104,0-0.154,0.052-0.154,0.149v6.702c0,0.104,0.057,0.156,0.154,0.156h3.547    C504.736,957.008,504.787,956.957,504.787,956.852z"
   id="path134" />
		<path
   fill="#007CC1"
   d="M512.176,956.852v-6.702c0-0.104-0.052-0.149-0.149-0.149h-0.563c-0.104,0-0.149,0.052-0.149,0.149v4.248    c0,0.584,0.072,1.272,0.072,1.272h-0.037c0,0-0.302-0.643-0.639-1.131l-3-4.396c-0.063-0.104-0.117-0.149-0.229-0.149h-0.851    c-0.104,0-0.149,0.051-0.149,0.149v6.702c0,0.104,0.052,0.156,0.149,0.156h0.572c0.104,0,0.155-0.053,0.155-0.156v-4.585    c0-0.521-0.065-1.208-0.065-1.208h0.026c0,0,0.299,0.637,0.61,1.104l3.188,4.688c0.065,0.104,0.104,0.155,0.234,0.155h0.663    C512.123,957.008,512.176,956.957,512.176,956.852z"
   id="path136" />
		<path
   fill="#007CC1"
   d="M518.408,950.552v-0.402c0-0.104-0.065-0.149-0.169-0.149h-4.481c-0.104,0-0.169,0.052-0.169,0.149v0.402    c0,0.104,0.065,0.155,0.169,0.155h1.702v6.131c0,0.117,0.059,0.17,0.168,0.17h0.753c0.117,0,0.169-0.053,0.169-0.17v-6.131h1.688    C518.343,950.707,518.408,950.656,518.408,950.552z"
   id="path138" />
	</g>
	<text
   id="Titel2"
   transform="matrix(1 0 0 1 18.592 89.0469)"
   font-family="'MyriadPro-Regular'"
   font-size="26.9489">%titel2%</text>

	<text
   id="Titel1"
   transform="matrix(0.6758 0 0 1 14.9778 50.7666)"
   font-family="'ArialMT'"
   font-size="55.6177">%titel1%</text>

	<text
   transform="matrix(1 0 0 1 364.0881 421.5044)"
   id="text142"><tspan
     x="0"
     y="0"
     font-family="'ArialMT'"
     font-size="14.2256"
     id="tspan144">1. Eisenstadt</tspan><tspan
     x="0"
     y="17.071"
     font-family="'ArialMT'"
     font-size="14.2256"
     id="tspan146">2. Eisenstadt Umgebung</tspan><tspan
     x="0"
     y="34.142"
     font-family="'ArialMT'"
     font-size="14.2256"
     id="tspan148">3. Güssing</tspan><tspan
     x="0"
     y="51.212"
     font-family="'ArialMT'"
     font-size="14.2256"
     id="tspan150">4. Jennersdorf</tspan><tspan
     x="0"
     y="68.283"
     font-family="'ArialMT'"
     font-size="14.2256"
     id="tspan152">5. Mattersburg</tspan><tspan
     x="0"
     y="85.354"
     font-family="'ArialMT'"
     font-size="14.2256"
     id="tspan154">6. Neusiedl am See</tspan><tspan
     x="0"
     y="102.424"
     font-family="'ArialMT'"
     font-size="14.2256"
     id="tspan156">7. Oberwart</tspan><tspan
     x="0"
     y="119.495"
     font-family="'ArialMT'"
     font-size="14.2256"
     id="tspan158">8. Rust</tspan><tspan
     x="0"
     y="136.566"
     font-family="'ArialMT'"
     font-size="14.2256"
     id="tspan160">9. Oberpullendorf</tspan></text>

</g>
</svg>