<?xml version="1.0" encoding="utf-8"?>
<!-- Generator: Adobe Illustrator 13.0.2, SVG Export Plug-In . SVG Version: 6.00 Build 14948)  -->
<!DOCTYPE svg PUBLIC "-//W3C//DTD SVG 1.1//EN" "http://www.w3.org/Graphics/SVG/1.1/DTD/svg11.dtd">
<svg version="1.1"
	 id="Salzburg" xmlns:dc="http://purl.org/dc/elements/1.1/" xmlns:cc="http://creativecommons.org/ns#" xmlns:rdf="http://www.w3.org/1999/02/22-rdf-syntax-ns#" xmlns:svg="http://www.w3.org/2000/svg" xmlns:sodipodi="http://sodipodi.sourceforge.net/DTD/sodipodi-0.dtd" xmlns:inkscape="http://www.inkscape.org/namespaces/inkscape" inkscape:version="0.47 r22583" sodipodi:docname="Karte A Sbg HA.svg"
	 xmlns="http://www.w3.org/2000/svg" xmlns:xlink="http://www.w3.org/1999/xlink" x="0px" y="0px" width="1050px" height="890px"
	 viewBox="0 0 1050 890" enable-background="new 0 0 1050 890" xml:space="preserve">
<g id="Bezirke" transform="translate(0,-162.36218)" inkscape:label="Ebene 1" inkscape:groupmode="layer">
	
		<path id="Hallein" fill="#123456" stroke="#7B7979" stroke-width="4" stroke-linecap="round" stroke-linejoin="round" stroke-miterlimit="10" d="
		M611.831,432.66l3.815,12.716l8.901,16.536l5.086-1.272l11.444,26.704l21.617,11.45l13.983-2.543l3.814,2.543l12.717,1.271
		l20.345,11.444l12.717-3.815l10.173,20.351l12.711,7.629l6.357-3.814l12.717-2.543l2.543,7.63l-7.63,29.252l-12.717,10.173
		l1.272,3.815l-2.543,24.166l20.346,24.167l-7.63,8.901l-10.173,1.271v6.358l-21.612,10.172l-7.63-1.271l-26.704-41.968
		l-17.802,6.358l-15.255-1.272l-13.986-16.531l-17.804,3.815l-11.444-12.716l-22.884-5.092l-19.074,15.265l2.544,8.901l-6.358-5.086
		l-11.445,8.901l-24.155-3.815l-7.629-8.901l12.717-20.351l-6.359-16.531l13.982-3.815l-3.814-8.907l16.53-22.889l-8.9-25.437
		l1.272-12.722l-17.799-19.074v-8.901h3.815l13.983-5.092v-8.901l5.085-5.087l13.988,5.087l17.802-11.444l7.631,5.086l3.814-10.173
		H611.831"/>
	
		<path id="Salzburg_Land" fill="#123456" stroke="#7B7979" stroke-width="4" stroke-linecap="round" stroke-linejoin="round" stroke-miterlimit="10" d="
		M539.361,235.529v7.629l6.353-2.543v12.716l6.358-2.543l2.543,8.901l12.716,5.091l10.173,1.271l-1.271,5.086h3.815l10.173-3.815
		l-5.087,6.358l2.544,7.629l25.427,1.271l6.357-3.814l1.272-2.543l33.062-11.445l3.814-8.907l6.358,1.272v8.906l34.329,17.803
		l-3.816,19.08l-2.542,3.815l-25.428-17.809l-12.716,7.635v35.61l-5.086,10.173l11.443,19.08l-3.814,24.161l11.444,6.358
		l1.271,7.635l19.069,1.271l17.803,11.445l5.086-2.543l25.433-5.086l15.253,2.543l3.815,8.901l19.074-6.358l3.815,15.26
		l-10.173,3.82l-24.161-10.178l-10.167,10.178l-3.815,24.161l20.34,11.45l35.605,6.357l-8.901,22.895l-7.629,5.087l-8.901,5.086
		l-7.63,19.074l2.543,8.907l-6.358,3.814l-12.71-7.629l-10.173-20.351l-12.717,3.814l-20.346-11.444l-12.716-1.271l-3.814-2.543
		l-13.983,2.543l-21.617-11.45l-11.444-26.704l-5.087,1.272l-8.9-16.536l-3.815-12.716h-7.624l-3.814,10.173l-7.631-5.086
		l-17.802,11.444l-13.988-5.087l-5.085,5.087v8.901l-13.983,5.092h-3.815v8.901l-16.53-7.629l-11.445,10.172l-30.513-1.271
		l-10.173-10.173l19.069-27.98v-6.358l-6.353-1.271l29.242-43.245l7.63,8.906l-10.173,17.803l10.173,15.264l-2.543,10.173
		l7.63,7.629l16.531-6.357l5.081-2.543l5.086,7.629l3.815-2.543l-1.271-11.445l16.53-6.363l8.902-15.259l-12.717-7.63l-6.358,1.271
		l-3.813-7.629l3.813-5.092l-13.987-11.444l-2.537,7.63l-8.902,2.543l-16.53-17.802l-7.63-11.45L499.94,334.73l-12.716-25.438
		l-1.271-5.086l-8.896,1.271l1.271-7.63l-24.161-8.907l-5.086-24.161l15.259,3.815l8.901-21.623l11.439-8.901l2.543-1.272
		l16.531,8.901l8.901-3.815l10.172-5.086l7.63,2.543L539.361,235.529"/>
	
		<path id="Salzburg_Stadt" fill="#123456" stroke="#7B7979" stroke-width="4" stroke-linecap="round" stroke-linejoin="round" stroke-miterlimit="10" d="
		M517.743,369.069l16.53,17.802l8.902-2.543l2.537-7.63l13.988,11.444l-3.814,5.092l3.814,7.629l6.357-1.271l12.717,7.63
		l-8.902,15.259l-16.53,6.363l1.271,11.445l-3.815,2.543l-5.086-7.629l-5.081,2.543l-16.531,6.357l-7.63-7.629l2.543-10.173
		l-10.173-15.264l10.173-17.803l-7.63-8.906l6.358-7.63V369.069"/>
	
		<path id="St._Johann_im_Pongau" fill="#123456" stroke="#7B7979" stroke-width="4" stroke-linecap="round" stroke-linejoin="round" stroke-miterlimit="10" d="
		M619.461,591.638l11.444,12.716l17.804-3.815l13.986,16.531l15.255,1.272l17.802-6.358l26.704,41.968l7.63,1.271l21.612-10.172
		v-6.358l10.173-1.271l7.63-8.901l34.334,16.531l2.537,10.172l-13.982,30.524l1.271,1.272l2.544,16.536l16.525,45.783l-2.543,25.438
		l5.087,7.63l-13.983,13.992l-1.271,6.358l-11.444,11.444l-34.333,8.906l-15.26,7.63H717.37l-7.63,8.901l-11.444-7.63
		l-19.074,21.617v12.722l-7.624,7.63l8.896,11.444l-1.271,12.722l10.173,20.346l-24.155,7.635l-13.987-6.363l-12.717,5.091
		l-5.087,11.445l3.815,15.259l-53.402,11.45l-7.63,6.358h-22.889l-3.815,10.173l-25.426-12.716v-6.358l-8.901-3.815l6.358-15.264
		l11.444-6.358l-6.357-5.087l6.357-7.63l-8.901-35.615l6.358-7.629l10.173-61.049l-6.358-7.629l5.087-21.623l12.711-8.901
		l-7.624-2.544l2.537-3.813l-15.254-6.358l-2.543-15.266l7.629-3.814l-5.086-7.63l15.254-12.716l-11.439-8.906l7.631-25.433
		l-2.544-10.178l-10.173-7.63l-10.173-19.079l3.815-12.717l5.086-8.9l10.173-3.815l-1.272-20.352l24.156,3.814l11.444-8.9
		l6.358,5.086l-2.544-8.901l19.074-15.265L619.461,591.638"/>
	
		<path id="Tamsweg" fill="#123456" stroke="#7B7979" stroke-width="4" stroke-linecap="round" stroke-linejoin="round" stroke-miterlimit="10" d="
		M920.813,793.855l20.341,11.445l2.543,7.63l-8.901,8.9l7.63,6.364l19.073,17.802l-3.814,6.358l6.358,1.271l3.814,8.906
		l12.716,3.815L1006,884.151l-2.543,11.45l-15.255,2.543l-8.9-8.901l-27.977,19.074l-1.271,6.357l11.443,25.438l-19.073,33.068
		v17.808l-10.173,6.357l-7.625,17.803l-12.717,8.906l-8.9,5.087l-12.717-33.067l-19.073-2.544l-10.168-7.634l-5.087-7.63
		l2.544-16.531l-3.815-2.543l-19.074,1.271l-5.086-11.449l-21.617-1.271l-7.625,2.543l-59.766-19.075l-15.254-1.271l-11.444,8.901
		l-11.445-8.901l-1.271-7.629l-12.716-3.82l-10.173-20.346l1.271-12.722l-8.896-11.444l7.624-7.63v-12.722l19.075-21.617
		l11.443,7.63l7.63-8.901h21.612l15.26-7.63l34.333-8.906l11.444-11.444l1.271-6.358l13.983-13.993l15.259,6.358h17.802
		l10.174,10.178l7.63,1.271l6.353-13.993h11.443l6.358,8.906l11.445-6.362l2.542-10.173l17.804-3.814L920.813,793.855"/>
	
		<path id="Zell_am_See" fill="#123456" stroke="#7B7979" stroke-width="4" stroke-linecap="round" stroke-linejoin="round" stroke-miterlimit="10" d="
		M385.506,494.979l12.716,10.173l11.444-5.086l-12.715,15.259l33.056,27.98l-8.901,1.272l-7.625,8.901l-6.358,13.994l5.086,10.172
		l10.167,12.716l17.802,1.277l2.543,11.444l12.717,6.358l3.815,6.358l22.889,19.08l17.797,8.901l3.814-7.63l8.901,5.086
		l5.087,11.444l6.358-8.901l-3.815,12.717l10.173,19.079l10.173,7.63l2.544,10.178l-7.631,25.433l11.439,8.906l-15.254,12.716
		l5.086,7.63l-7.629,3.815l2.543,15.265l15.254,6.358l-2.537,3.814l7.624,2.544l-12.711,8.9l-5.087,21.623l6.358,7.63
		l-10.173,61.048l-6.358,7.63l8.901,35.615l-6.357,7.629l6.357,5.087l-11.444,6.358l-6.358,15.264l-8.902,6.358l-15.259-10.178
		l-8.896-20.347l-33.062-7.63l-15.259,2.544l-8.902-10.178l-17.797,3.814l-6.358-6.358l-15.259,1.271l-5.087-22.889l-12.715,6.358
		l-19.069-1.271l3.815,10.173l-8.902,6.357l-19.074-15.259l-12.716-2.543l-1.271-6.358l-11.445-1.271l-10.167,3.814l-11.444-15.265
		l-19.075-6.358l-8.901,10.174l-15.26-5.087l-8.9,6.358l-7.625-7.63l-17.803,7.63l-2.543,17.808l-7.629,5.087l-16.531,5.087
		l-1.272,6.357l-12.711,1.271l-11.444,13.992l-10.173,2.544l-6.358-10.174l-20.345-7.634l-17.798,10.178l-6.357-1.271L73.988,882.88
		l-6.358-3.814L60,843.455l2.543-15.26l12.715-19.08L60,783.678l17.802-21.617l15.259,13.988l10.168-10.173l16.531,1.271
		l10.172-7.63l5.087-1.271l3.815,8.901l7.63-5.087l5.086,3.815l16.525-21.623l10.173,5.087l8.902-1.272l19.074,11.45l17.802-1.271
		l15.254-10.179l17.802,1.272l8.901-7.63l1.271-7.63l-10.173-15.265l15.26-17.803l8.9,2.544l10.168-5.087l15.26,3.814l24.161-21.622
		l3.815-6.358v-24.166h15.259l17.798-10.173l-15.254-21.622l-3.815-2.544l-2.543-17.803l-12.716-8.906l19.074-21.617l-6.358-6.358
		l-39.419-13.993l1.271-19.074l13.987-29.252l12.717-2.543l8.9,5.086l8.902-7.63l13.982-1.271L385.506,494.979"/>
</g>
<g id="Skala">
	<rect id="rect4459" x="28.268" y="263.116" fill="#111101" width="18.687" height="17.788"/>
	<text id="text14" transform="matrix(1.0506 0 0 1 56.4045 278.5596)" font-family="'ArialMT'" font-size="19.4056">%legende1%</text>
	<rect id="rect4459-1" x="28.268" y="287.626" fill="#111102" width="18.687" height="17.791"/>
	<text id="text17" transform="matrix(1.0506 0 0 1 56.4045 303.0693)" font-family="'ArialMT'" font-size="19.4056">%legende2%</text>
	<rect id="rect4459-2" x="28.268" y="312.135" fill="#111103" width="18.687" height="17.79"/>
	<text id="text20" transform="matrix(1.0506 0 0 1 56.4045 327.5791)" font-family="'ArialMT'" font-size="19.4056">%legende3%</text>
	<rect id="rect4459-6" x="28.268" y="336.648" fill="#111104" width="18.687" height="17.787"/>
	<text id="text23" transform="matrix(1.0506 0 0 1 56.4045 352.0918)" font-family="'ArialMT'" font-size="19.4056">%legende4%</text>
	<rect id="rect4459-29" x="28.268" y="361.155" fill="#111105" width="18.687" height="17.792"/>
	<text id="text26" transform="matrix(1.0506 0 0 1 56.4045 376.6006)" font-family="'ArialMT'" font-size="19.4056">%legende5%</text>
	<rect id="rect4459-3" x="28.268" y="385.667" fill="#111106" width="18.687" height="17.792"/>
	<text id="text29" transform="matrix(1.0506 0 0 1 56.4045 401.1123)" font-family="'ArialMT'" font-size="19.4056">%legende6%</text>
	<rect id="rect4459-8" x="28.268" y="410.179" fill="#111107" width="18.687" height="17.789"/>
	<text id="text32" transform="matrix(1.0506 0 0 1 56.4045 425.6221)" font-family="'ArialMT'" font-size="19.4056">%legende7%</text>
	<rect id="rect4459-9" x="28.268" y="434.686" fill="#111108" width="18.687" height="17.79"/>
	<text id="text35" transform="matrix(1.0506 0 0 1 56.4045 450.1338)" font-family="'ArialMT'" font-size="19.4056">%legende8%</text>
	<rect id="rect4459-18" x="28.268" y="459.196" fill="#111109" width="18.687" height="17.793"/>
	<text id="text38" transform="matrix(1.0506 0 0 1 56.4045 474.6436)" font-family="'ArialMT'" font-size="19.4056">%legende9%</text>
	<rect id="rect4459-18-6" x="28.268" y="483.707" fill="#111110" width="18.687" height="17.793"/>
	<text id="text41" transform="matrix(1.0506 0 0 1 56.4045 499.1514)" font-family="'ArialMT'" font-size="19.4056">%legende10%</text>
</g>
<g id="Beschriftungen">
	<text id="text81" transform="matrix(1 0 0 1 188.6121 804.0127)" font-family="'ArialMT'" font-size="14.2709">Visualisierung erstellt mit</text>
	<text id="text83" transform="matrix(1 0 0 1 225.4026 821.1377)" font-family="'ArialMT'" font-size="14.2709">DataMaps.eu</text>
	<text id="text85" transform="matrix(1 0 0 1 200.5081 838.2627)" font-family="'ArialMT'" font-size="14.2709">provided by open3.at</text>
	<g id="open3-logo">
		<path id="path88" fill="#007CC1" d="M278.203,868.201c0-3.041-1.448-4.772-3.251-5.729c1.661-0.884,2.897-2.438,2.897-5.159
			c0-4.235-3.223-7.212-7.668-7.212c-4.241,0-7.604,2.688-7.704,7.179h4.594c0.106-1.905,1.378-3.036,3.11-3.036
			c1.654,0,3.066,1.096,3.066,3.217c0,1.767-0.953,3.146-3.181,3.146h-0.671v3.993h0.671c2.262,0,3.535,1.378,3.535,3.464
			c0,2.266-1.414,3.498-3.396,3.498c-1.802,0-3.354-1.021-3.428-3.285h-4.59c0.068,5.271,3.922,7.421,8.021,7.421
			C274.531,875.691,278.203,873.219,278.203,868.201z"/>
		<path id="path90" fill="#9C9D9F" d="M196.144,863.356c0,5.833-2.326,9.688-6.076,9.688c-3.61,0-6.284-3.854-6.284-10.381
			c0-5.694,2.152-9.549,6.076-9.549C193.678,853.113,196.144,857.002,196.144,863.356z M200.656,863.08
			c0-7.813-4.479-12.646-10.729-12.646s-10.692,4.829-10.692,12.646c0,8.332,4.756,12.914,10.688,12.914
			C195.865,875.994,200.656,871.412,200.656,863.08z"/>
		<path id="path92" fill="#9C9D9F" d="M215.774,866.203c0,4.375-1.84,7.321-4.757,7.321c-1.354,0-2.152-0.416-2.708-0.862v-11.526
			c0-1.251,0.861-1.91,2.604-1.91C213.309,859.225,215.774,861.447,215.774,866.203z M219.801,865.996
			c0-4.86-2.354-8.959-8.777-8.959c-2.188,0-4.409,0.557-5.354,1.182c-0.973,0.66-1.313,1.283-1.313,2.535v20.105
			c0,0.417,0.208,0.596,0.625,0.596h2.736c0.417,0,0.597-0.179,0.597-0.596v-5.904c0.444,0.313,1.667,0.938,3.396,0.938
			C217.161,875.89,219.801,870.822,219.801,865.996z"/>
		<path id="path94" fill="#9C9D9F" d="M233.994,863.426l-7.533,1.285c0.146-2.709,1.318-5.486,4.104-5.486
			C233.024,859.225,233.892,861.273,233.994,863.426z M237.884,870.058c0-0.45-0.348-0.867-0.798-0.867
			c-0.417,0-0.729,0.313-0.896,0.625c-0.729,1.283-2.188,2.95-4.409,2.95c-3.333,0-4.938-2.813-5.146-6.075l10.104-1.666
			c0.729-0.104,1.042-0.349,1.042-1.105c0-3.51-2.465-6.875-6.805-6.875c-4.139,0-7.951,2.882-7.951,9.34
			c0,6.807,3.75,9.549,7.951,9.549C235.418,875.926,237.884,872.141,237.884,870.058z"/>
		<path id="path96" fill="#9C9D9F" d="M256.382,874.884v-12.5c0-4.166-3.75-5.347-7.431-5.347c-2.568,0-4.687,0.479-5.833,1.041
			c-1.042,0.521-1.389,1.008-1.389,2.146v14.651c0,0.416,0.208,0.591,0.625,0.591h2.743c0.416,0,0.625-0.175,0.625-0.591v-13.399
			c0-1.105,0.271-2.291,3.09-2.291c2.771,0,3.604,1.666,3.604,3.367v12.325c0,0.416,0.182,0.591,0.598,0.591h2.771
			C256.207,875.474,256.382,875.299,256.382,874.884z"/>
		<path id="path98" fill="#007CC1" d="M284.353,873.91c0-2.475-3.481-2.002-3.481-3.611c0-0.688,0.455-1.104,1.17-1.104
			c0.701,0,1,0.479,1.169,0.856c0.091,0.195,0.247,0.363,0.48,0.363c0.286,0,0.494-0.156,0.494-0.479
			c0-0.438-0.644-1.378-2.117-1.378c-1.299,0-2.233,0.688-2.233,1.871c0,2.246,3.441,1.779,3.441,3.597
			c0,0.625-0.416,1.133-1.221,1.133c-0.76,0-1.176-0.625-1.346-1.063c-0.07-0.222-0.229-0.39-0.519-0.39
			c-0.313,0-0.521,0.188-0.521,0.519c0,0.546,0.851,1.639,2.345,1.639C283.522,875.858,284.353,875.026,284.353,873.91z"/>
		<path id="path100" fill="#007CC1" d="M290.923,872.261c0,1.7-0.714,2.87-1.937,2.87c-1.169,0-2.025-1.17-2.025-3.092
			c0-1.649,0.701-2.813,1.961-2.813C290.145,869.233,290.923,870.403,290.923,872.261z M292.067,872.168
			c0-2.222-1.273-3.61-3.117-3.61c-1.845,0-3.131,1.391-3.131,3.61c0,2.377,1.377,3.688,3.131,3.688
			S292.067,874.545,292.067,872.168z"/>
		<path id="path102" fill="#007CC1" d="M299.052,874.531c0-0.172-0.09-0.271-0.24-0.271c-0.097,0-0.168,0.053-0.267,0.129
			c-0.286,0.286-0.767,0.677-1.604,0.677c-1.325,0-2.208-1.3-2.208-3.104c0-1.754,0.793-2.752,1.923-2.752
			c0.948,0,1.271,0.597,1.429,0.922c0.091,0.183,0.233,0.363,0.48,0.363c0.286,0,0.486-0.17,0.486-0.48
			c0-0.469-0.752-1.455-2.338-1.455c-1.98,0-3.11,1.648-3.11,3.586c0,2.019,1.04,3.716,3.188,3.716
			C298.156,875.858,299.052,874.936,299.052,874.531z"/>
		<path id="path104" fill="#007CC1" d="M301.808,875.56v-6.701c0-0.104-0.06-0.15-0.156-0.15h-0.778
			c-0.104,0-0.156,0.052-0.156,0.15v6.701c0,0.104,0.059,0.155,0.156,0.155h0.778C301.755,875.715,301.808,875.662,301.808,875.56z"
			/>
		<path id="path106" fill="#007CC1" d="M307.832,875.56v-0.402c0-0.104-0.053-0.15-0.156-0.15h-2.604v-2.586h2.222
			c0.104,0,0.156-0.055,0.156-0.154v-0.377c0-0.104-0.052-0.155-0.156-0.155h-2.222v-2.313h2.604c0.104,0,0.156-0.055,0.156-0.155
			v-0.404c0-0.104-0.053-0.15-0.156-0.15h-3.546c-0.104,0-0.149,0.052-0.149,0.15v6.701c0,0.104,0.052,0.156,0.149,0.156h3.546
			C307.781,875.715,307.832,875.662,307.832,875.56z"/>
		<path id="path108" fill="#007CC1" d="M313.65,869.26v-0.401c0-0.104-0.065-0.15-0.169-0.15H309c-0.104,0-0.168,0.052-0.168,0.15
			v0.401c0,0.104,0.063,0.154,0.168,0.154h1.7v6.131c0,0.117,0.053,0.17,0.169,0.17h0.753c0.117,0,0.169-0.053,0.169-0.17v-6.131
			h1.688C313.584,869.416,313.65,869.363,313.65,869.26z"/>
		<path id="path110" fill="#007CC1" d="M319.609,868.857c0-0.104-0.064-0.15-0.168-0.15h-0.585c-0.117,0-0.169,0.039-0.234,0.143
			l-1.559,2.779h-0.026l-1.52-2.779c-0.065-0.104-0.118-0.143-0.234-0.143h-0.792c-0.104,0-0.155,0.052-0.155,0.15
			c0,0.037,0.02,0.096,0.038,0.146l2.054,3.455v3.104c0,0.104,0.059,0.155,0.155,0.155h0.779c0.104,0,0.156-0.055,0.156-0.155
			v-3.104l2.052-3.455C319.596,868.961,319.609,868.896,319.609,868.857z"/>
		<path id="path112" fill="#007CC1" d="M284.532,862.828c0,1.807-0.792,2.924-2.57,2.924c-0.339,0-0.638-0.039-0.807-0.064v-5.716
			c0.13-0.025,0.455-0.052,0.807-0.052C283.677,859.918,284.532,861.021,284.532,862.828z M285.663,862.84
			c0-2.154-1.182-3.57-3.767-3.57c-0.813,0-1.507,0.092-1.676,0.146c-0.137,0.039-0.155,0.104-0.155,0.221v6.441
			c0,0.112,0.021,0.184,0.155,0.221c0.182,0.054,1.001,0.145,1.676,0.145C284.483,866.438,285.663,865.102,285.663,862.84z"/>
		<path id="path114" fill="#007CC1" d="M290.909,863.504h-2.233l0.778-2.195c0.208-0.585,0.324-1.271,0.324-1.271h0.026
			c0,0,0.13,0.688,0.338,1.271L290.909,863.504z M292.976,866.219c0-0.04-0.026-0.117-0.039-0.156l-2.521-6.559
			c-0.039-0.104-0.078-0.156-0.188-0.156h-0.721c-0.13,0-0.169,0.053-0.208,0.156l-2.508,6.559
			c-0.021,0.054-0.038,0.116-0.038,0.156c0,0.091,0.059,0.144,0.155,0.144h0.61c0.109,0,0.168-0.053,0.208-0.15l0.733-2.078h2.648
			l0.729,2.078c0.038,0.104,0.098,0.15,0.194,0.15h0.778C292.923,866.361,292.976,866.31,292.976,866.219z"/>
		<path id="path116" fill="#007CC1" d="M298.091,859.906v-0.402c0-0.104-0.063-0.155-0.169-0.155h-4.479
			c-0.104,0-0.169,0.053-0.169,0.155v0.402c0,0.104,0.063,0.149,0.169,0.149h1.701v6.132c0,0.116,0.052,0.169,0.169,0.169h0.753
			c0.117,0,0.169-0.053,0.169-0.169v-6.131h1.688C298.027,860.063,298.091,860.01,298.091,859.906z"/>
		<path id="path118" fill="#007CC1" d="M302.544,863.504h-2.229l0.772-2.195c0.208-0.585,0.324-1.271,0.324-1.271h0.026
			c0,0,0.13,0.688,0.338,1.271L302.544,863.504z M304.61,866.219c0-0.04-0.025-0.117-0.039-0.156l-2.521-6.559
			c-0.04-0.104-0.072-0.156-0.189-0.156h-0.714c-0.137,0-0.169,0.053-0.208,0.156l-2.514,6.559
			c-0.021,0.054-0.039,0.116-0.039,0.156c0,0.091,0.059,0.144,0.155,0.144h0.61c0.117,0,0.169-0.053,0.208-0.15l0.74-2.078h2.646
			l0.729,2.078c0.039,0.104,0.091,0.15,0.188,0.15h0.779C304.558,866.361,304.61,866.31,304.61,866.219z"/>
		<path id="path120" fill="#007CC1" d="M285.561,856.111v-2.624c0-0.104-0.078-0.151-0.188-0.151h-2.141
			c-0.104,0-0.155,0.054-0.155,0.151v0.354c0,0.104,0.052,0.168,0.155,0.168h1.299v1.715c0,0.416-0.624,0.701-1.467,0.701
			c-1.223,0-2.146-1.26-2.146-3.117c0-1.688,0.753-2.807,2.079-2.807c1.025,0,1.401,0.605,1.563,0.923
			c0.091,0.196,0.221,0.353,0.479,0.353c0.313,0,0.481-0.184,0.481-0.479c0-0.43-0.65-1.44-2.437-1.44
			c-2.021,0-3.312,1.469-3.312,3.61c0,2.313,1.376,3.688,3.337,3.688C284.508,857.15,285.561,856.619,285.561,856.111z"/>
		<path id="path122" fill="#007CC1" d="M292.442,853.553c0,1.701-0.714,2.869-1.938,2.869c-1.17,0-2.021-1.168-2.021-3.092
			c0-1.648,0.701-2.811,1.961-2.811C291.661,850.526,292.442,851.695,292.442,853.553z M293.584,853.461
			c0-2.221-1.271-3.61-3.118-3.61c-1.845,0-3.13,1.396-3.13,3.61c0,2.377,1.376,3.688,3.13,3.688
			C292.221,857.15,293.584,855.838,293.584,853.461z"/>
		<path id="path124" fill="#007CC1" d="M300.519,850.149c0-0.104-0.064-0.149-0.168-0.149h-0.663c-0.117,0-0.169,0.052-0.208,0.149
			l-1.644,4.729c-0.144,0.43-0.24,0.947-0.24,0.947h-0.026c0,0-0.078-0.521-0.221-0.947l-1.61-4.729
			c-0.04-0.104-0.104-0.149-0.208-0.149h-0.832c-0.104,0-0.155,0.052-0.155,0.149c0,0.038,0.021,0.104,0.039,0.155l2.455,6.546
			c0.039,0.104,0.092,0.156,0.208,0.156h0.546c0.13,0,0.188-0.053,0.229-0.156l2.467-6.546
			C300.506,850.254,300.519,850.188,300.519,850.149z"/>
		<path id="path126" fill="#007CC1" d="M305.75,856.852v-0.396c0-0.104-0.052-0.155-0.148-0.155h-2.611v-2.587h2.222
			c0.104,0,0.155-0.053,0.155-0.154v-0.377c0-0.104-0.052-0.155-0.155-0.155h-2.222v-2.313h2.61c0.104,0,0.149-0.057,0.149-0.155
			v-0.401c0-0.104-0.052-0.149-0.149-0.149h-3.551c-0.104,0-0.149,0.052-0.149,0.149v6.702c0,0.104,0.052,0.155,0.149,0.155h3.551
			C305.698,857.008,305.75,856.957,305.75,856.852z"/>
		<path id="path128" fill="#007CC1" d="M310.893,851.994c0,0.854-0.624,1.43-1.792,1.43c-0.267,0-0.476,0-0.585-0.014v-2.83
			c0.169-0.027,0.416-0.065,0.832-0.065C310.425,850.514,310.893,851.033,310.893,851.994z M312.27,856.852
			c0-0.037-0.026-0.09-0.058-0.143l-1.145-2.092c-0.208-0.396-0.559-0.74-0.805-0.856v-0.024c0.832-0.19,1.698-0.793,1.698-1.813
			c0-1.188-0.736-2-2.606-2c-0.846,0-1.546,0.091-1.741,0.144c-0.13,0.039-0.156,0.091-0.156,0.208v6.585
			c0,0.104,0.06,0.155,0.156,0.155h0.74c0.104,0,0.156-0.053,0.156-0.155v-2.922h0.468c0.467,0,0.792,0.416,0.974,0.778l1.092,2.17
			c0.039,0.076,0.138,0.129,0.268,0.129h0.805C312.218,857.008,312.27,856.957,312.27,856.852z"/>
		<path id="path130" fill="#007CC1" d="M319.592,856.852v-6.701c0-0.104-0.053-0.149-0.149-0.149h-0.563
			c-0.104,0-0.149,0.052-0.149,0.149v4.248c0,0.584,0.071,1.271,0.071,1.271h-0.036c0,0-0.302-0.643-0.64-1.131l-3-4.396
			c-0.063-0.104-0.117-0.148-0.229-0.148h-0.852c-0.104,0-0.149,0.051-0.149,0.148v6.702c0,0.104,0.053,0.156,0.149,0.156h0.57
			c0.104,0,0.156-0.053,0.156-0.156v-4.585c0-0.521-0.064-1.208-0.064-1.208h0.025c0,0,0.299,0.638,0.604,1.104l3.194,4.688
			c0.065,0.104,0.104,0.155,0.234,0.155h0.662C319.539,857.008,319.592,856.957,319.592,856.852z"/>
		<path id="path132" fill="#007CC1" d="M329.122,856.879c0-0.041-0.675-6.729-0.675-6.729c-0.013-0.104-0.052-0.149-0.154-0.149
			h-0.846c-0.104,0-0.156,0.063-0.194,0.149l-1.701,4.521c-0.169,0.457-0.271,1.017-0.271,1.017h-0.025c0,0-0.112-0.56-0.286-1.017
			l-1.688-4.521c-0.039-0.092-0.091-0.149-0.194-0.149h-0.854c-0.104,0-0.146,0.052-0.156,0.149c0,0-0.675,6.688-0.675,6.729
			c0,0.09,0.063,0.129,0.154,0.129h0.638c0.104,0,0.144-0.053,0.154-0.156l0.357-4.546c0.04-0.56,0.04-1.338,0.04-1.338h0.026
			c0,0,0.182,0.778,0.39,1.338l1.688,4.563c0.039,0.104,0.077,0.143,0.188,0.143h0.325c0.117,0,0.156-0.039,0.194-0.143l1.688-4.563
			c0.208-0.57,0.396-1.338,0.396-1.338h0.021c0,0,0,0.778,0.039,1.338l0.364,4.546c0.013,0.104,0.052,0.156,0.156,0.156h0.754
			C329.084,857.008,329.122,856.969,329.122,856.879z"/>
		<path id="path134" fill="#007CC1" d="M334.786,856.852v-0.396c0-0.104-0.052-0.155-0.155-0.155h-2.604v-2.587h2.221
			c0.104,0,0.156-0.053,0.156-0.154v-0.377c0-0.104-0.052-0.155-0.156-0.155h-2.221v-2.313h2.604c0.104,0,0.155-0.057,0.155-0.155
			v-0.401c0-0.104-0.052-0.149-0.155-0.149h-3.547c-0.104,0-0.154,0.052-0.154,0.149v6.702c0,0.104,0.057,0.155,0.154,0.155h3.547
			C334.736,857.008,334.786,856.957,334.786,856.852z"/>
		<path id="path136" fill="#007CC1" d="M342.176,856.852v-6.701c0-0.104-0.053-0.149-0.149-0.149h-0.563
			c-0.104,0-0.149,0.052-0.149,0.149v4.248c0,0.584,0.072,1.271,0.072,1.271h-0.037c0,0-0.302-0.643-0.639-1.131l-3-4.396
			c-0.063-0.104-0.117-0.148-0.229-0.148h-0.851c-0.104,0-0.149,0.051-0.149,0.148v6.702c0,0.104,0.052,0.156,0.149,0.156h0.571
			c0.104,0,0.155-0.053,0.155-0.156v-4.585c0-0.521-0.064-1.208-0.064-1.208h0.025c0,0,0.299,0.638,0.61,1.104l3.188,4.688
			c0.065,0.104,0.104,0.155,0.234,0.155h0.663C342.122,857.008,342.176,856.957,342.176,856.852z"/>
		<path id="path138" fill="#007CC1" d="M348.407,850.552v-0.401c0-0.104-0.064-0.149-0.169-0.149h-4.48
			c-0.104,0-0.169,0.052-0.169,0.149v0.401c0,0.104,0.064,0.155,0.169,0.155h1.702v6.131c0,0.117,0.059,0.17,0.168,0.17h0.753
			c0.117,0,0.169-0.053,0.169-0.17v-6.131h1.688C348.343,850.707,348.407,850.656,348.407,850.552z"/>
	</g>
	<text id="Titel2" transform="matrix(1 0 0 1 26.5916 95.0469)" font-family="'MyriadPro-Regular'" font-size="26.9489">%titel2%</text>
	<text id="Titel1" transform="matrix(0.6758 0 0 1 22.9778 56.7666)" font-family="'ArialMT'" font-size="55.6177">%titel1%</text>
</g>
<g id="Kreis06" transform="translate(-1099.4425,-1468.408)">
	<path id="path3841-8-9-2-0-6-5-2_20_" fill="#FFFFFF" stroke="#000000" d="M1495.195,2082.082c0,5.427-4.401,9.832-9.836,9.832
		c-5.429,0-9.831-4.405-9.831-9.832c0-5.432,4.402-9.83,9.831-9.83C1490.793,2072.252,1495.195,2076.65,1495.195,2082.082z"/>
	<text id="text58" transform="matrix(1 0 0 1 1482.1298 2086.4255)" font-family="'ArialMT'" font-size="12.061">6</text>
</g>
<g id="Kreis05" transform="translate(-1099.4425,-1468.408)">
	<path id="path3841-8-9-2-0-6-5-2_19_" fill="#FFFFFF" stroke="#000000" d="M1962.353,2189.653c0,5.427-4.401,9.831-9.836,9.831
		c-5.429,0-9.831-4.404-9.831-9.831c0-5.431,4.401-9.831,9.831-9.831C1957.952,2179.822,1962.353,2184.22,1962.353,2189.653z"/>
	<text id="text62" transform="matrix(1 0 0 1 1949.2875 2193.9958)" font-family="'ArialMT'" font-size="12.061">5</text>
</g>
<g id="Kreis04" transform="translate(-1099.4425,-1468.408)">
	<path id="path3841-8-9-2-0-6-5-2_18_" fill="#FFFFFF" stroke="#000000" d="M1764.481,2051.261c0,5.428-4.401,9.832-9.835,9.832
		c-5.428,0-9.831-4.406-9.831-9.832c0-5.432,4.405-9.832,9.831-9.832C1760.079,2041.43,1764.481,2045.83,1764.481,2051.261z"/>
	<text id="text66" transform="matrix(1 0 0 1 1751.4154 2055.2966)" font-family="'ArialMT'" font-size="12.061">4</text>
</g>
<g id="Kreis03" transform="translate(-1099.4425,-1468.408)">
	<path id="path3841-8-9-2-0-6-5-2_15_" fill="#FFFFFF" stroke="#000000" d="M1646.943,1717.908c0,5.427-4.405,9.832-9.835,9.832
		s-9.831-4.405-9.831-9.832c0-5.43,4.401-9.83,9.831-9.83C1642.539,1708.078,1646.943,1712.478,1646.943,1717.908z"/>
	<text id="text70" transform="matrix(1 0 0 1 1633.8754 1721.9431)" font-family="'ArialMT'" font-size="12.061">3</text>
</g>
<g id="Kreis02" transform="translate(-1099.4425,-1468.408)">
	<path id="path3841-8-9-2-0-6-5-2_16_" fill="#FFFFFF" stroke="#000000" d="M1699.635,1647.497c0,5.429-4.405,9.831-9.836,9.831
		c-5.429,0-9.831-4.403-9.831-9.831c0-5.431,4.402-9.831,9.831-9.831C1695.23,1637.667,1699.635,1642.066,1699.635,1647.497z"/>
	<text id="text74" transform="matrix(1 0 0 1 1686.5668 1651.532)" font-family="'ArialMT'" font-size="12.061">2</text>
</g>
<g id="Kreis01" transform="translate(-1099.4425,-1468.408)">
	<path id="path3841-8-9-2-0-6-5-2_17_" fill="#FFFFFF" stroke="#000000" d="M1760.778,1853.74c0,5.427-4.399,9.831-9.835,9.831
		c-5.429,0-9.832-4.405-9.832-9.831c0-5.432,4.402-9.832,9.832-9.832C1756.377,1843.908,1760.778,1848.308,1760.778,1853.74z"/>
	<text id="text78" transform="matrix(1 0 0 1 1747.4037 1858.3914)" font-family="'ArialMT'" font-size="12.061">1</text>
</g>
<text transform="matrix(1 0 0 1 811.0764 272.7583)"><tspan x="0" y="0" font-family="'ArialMT'" font-size="17.6071">1. Hallein</tspan><tspan x="0" y="21.128" font-family="'ArialMT'" font-size="17.6071">2. Salzburg Land</tspan><tspan x="0" y="42.257" font-family="'ArialMT'" font-size="17.6071">3. Salzburg Stadt</tspan><tspan x="0" y="63.385" font-family="'ArialMT'" font-size="17.6071">4. St. Johann im Pongau</tspan><tspan x="0" y="84.514" font-family="'ArialMT'" font-size="17.6071">5. Tamsweg</tspan><tspan x="0" y="105.643" font-family="'ArialMT'" font-size="17.6071">6. Zell am See</tspan></text>
</svg>
