<?xml version="1.0" encoding="utf-8"?>
<!-- Generator: Adobe Illustrator 13.0.2, SVG Export Plug-In . SVG Version: 6.00 Build 14948)  -->
<!DOCTYPE svg PUBLIC "-//W3C//DTD SVG 1.1//EN" "http://www.w3.org/Graphics/SVG/1.1/DTD/svg11.dtd">
<svg version="1.1"
	 id="Vorarlberg" xmlns:dc="http://purl.org/dc/elements/1.1/" xmlns:cc="http://creativecommons.org/ns#" xmlns:rdf="http://www.w3.org/1999/02/22-rdf-syntax-ns#" xmlns:svg="http://www.w3.org/2000/svg" xmlns:sodipodi="http://sodipodi.sourceforge.net/DTD/sodipodi-0.dtd" xmlns:inkscape="http://www.inkscape.org/namespaces/inkscape" inkscape:version="0.47 r22583" sodipodi:docname="Karte A Vlbg BZ.svg"
	 xmlns="http://www.w3.org/2000/svg" xmlns:xlink="http://www.w3.org/1999/xlink" x="0px" y="0px" width="680px" height="1050px"
	 viewBox="0 0 680 1050" enable-background="new 0 0 680 1050" xml:space="preserve">
<g id="Bezirke" transform="translate(0,-2.3621826)" inkscape:label="Ebene 1" inkscape:groupmode="layer">
	
		<path id="Bludenz" fill="#123456" stroke="#7B7979" stroke-width="0.5" stroke-linecap="round" stroke-linejoin="round" stroke-miterlimit="10" d="
		M376.335,507.229v12.343l24.67-4.12l30.829,24.675l6.167,8.225h16.447l-6.168,20.557l28.782,4.12l6.167-14.398h14.392l10.278-14.39
		l43.164,12.334l4.111,8.223l12.335,14.398v20.557l-14.391,16.446l10.279,24.678v16.444l6.167,10.279l-14.391,6.167l4.111,14.397
		l-18.501,2.058V700.5l-22.606,6.168l-22.614,41.123l2.057,16.445l12.334,2.056l4.111,16.445l-18.502,22.621l-10.279,8.225
		l24.67,20.557l2.056,24.676h-10.278l-18.503,49.347l-22.614,16.445l6.169,37.013l24.669,24.668l4.111,28.789l-32.893,10.278
		l-10.28-22.613l-28.771-4.111l-4.112-18.511l-18.503-22.612l-28.781-8.222L364,932.832l-32.893,2.055l-47.275-26.725l2.056-26.733
		l-6.167-8.222l18.503-28.78l-2.056-14.399l-12.335-12.334l4.111-12.335l-32.893,8.225l-32.893-22.613l-8.223-8.232l-51.388-10.278
		l-8.223-10.278l-24.67-10.277h-24.661l-10.28,10.277l-20.558-12.334l4.111-20.565l18.502-6.169l2.056-8.222l-10.279-22.612
		l10.279-20.566l-8.224-28.779l18.494-67.848l6.168,10.278l-2.056,10.278h12.334l-6.167-18.501l-4.112,8.223l-8.215-12.334
		l16.438-4.12l8.223,12.344l30.837,14.389l14.391-12.334l16.447-2.055l6.167-6.168l4.111-26.732l20.55-4.111l14.391-4.113
		l-14.391-14.389l12.335-6.167l14.391,2.056l10.279,10.278l16.446-16.454h4.111l2.056-8.223l32.884-2.056l26.727-12.334l8.223-6.167
		l4.112,18.501L376.335,507.229"/>
	
		<path id="Bregenz" fill="#123456" stroke="#7B7979" stroke-width="0.5" stroke-linecap="round" stroke-linejoin="round" stroke-miterlimit="10" d="
		M277.664,190.597l34.949,20.566l6.167-22.621l20.55,8.231l12.335,14.39L364,204.996l20.56,2.056l4.11-14.398l-4.11,28.789
		l22.612,24.668l-6.167,4.12l8.224,18.501l39.052-2.056l4.111,22.613l12.336,14.399l16.446-2.064l8.223,32.9l-6.167,14.39
		l-22.614,8.231l12.335,12.334l8.224,47.29l2.056,6.167l16.447-24.677l16.446,10.278h20.559l4.111-20.557l12.326-4.112
		l20.558,12.334l12.336-10.278l6.167,10.278l-30.837,63.736l8.223,8.231v14.39l-18.502,14.391l-8.215-4.112l-6.167,20.557
		l4.111,10.288l-2.057,8.223l36.998,14.391l-20.56,18.501l-4.111-8.223L507.9,544.241l-10.278,14.39H483.23l-6.167,14.398
		l-28.782-4.12l6.168-20.557H438.01l-6.167-8.225l-30.838-24.675l-24.67,4.12v-12.343l-20.558-2.056l-4.112-18.502l-8.223,6.167
		l-26.718,12.334l-32.893,2.056l-2.056,8.223h-4.111l-18.502-14.391l6.167-6.167l14.39-8.223l-2.056-12.334l-22.614-12.343
		l8.224-12.334l-6.168-10.278l6.168-2.056l-10.279-14.39l26.726-16.455l-4.112-20.557l-18.502-18.502l-8.223-26.732l10.28-24.669
		l-8.224-12.334l-18.502,2.056l-14.382,10.278l-20.559-12.334l-18.502-6.176h-10.279l-12.334-16.446l-18.503,12.335l-28.773-8.224
		l-12.335-16.446l-8.223,10.279l-24.67-47.29l14.391-4.111l30.838-6.167l18.493-6.167l22.615-4.111l49.339-12.334l20.559-43.179
		l10.271-18.51l10.278-6.167l16.447-2.055l16.446,10.278l2.056,32.9l-8.223,12.334L277.664,190.597"/>
	
		<path id="Dornbirn" fill="#123456" stroke="#7B7979" stroke-width="0.5" stroke-linecap="round" stroke-linejoin="round" stroke-miterlimit="10" d="
		M156.38,281.066l12.334,16.446h10.279l18.502,6.176l20.55,12.334l14.391-10.278l18.502-2.056l8.224,12.334l-10.28,24.669
		l8.223,26.732l18.502,18.502l4.112,20.557l-26.726,16.455l10.279,14.39l-6.168,2.056l6.168,10.278l-8.224,12.334l22.614,12.343
		l2.056,12.334l-14.39,8.223l-28.782-8.223l-12.335-18.501l-20.55-2.056l-16.446-24.677l-4.111-20.557l-8.224,8.223l-12.335-10.278
		l-20.558,2.055l-4.111-20.566l-12.334-8.223l16.446-12.334l4.112-14.39l-16.446-16.455l-4.111-34.946l12.334-20.566L156.38,281.066
		"/>
	
		<path id="Feldkirch" fill="#123456" stroke="#7B7979" stroke-width="0.5" stroke-linecap="round" stroke-linejoin="round" stroke-miterlimit="10" d="
		M137.877,400.315l4.111,20.565l20.558-2.055l12.335,10.278l8.224-8.223l4.111,20.558l16.438,24.677l20.558,2.056l12.335,18.501
		l28.782,8.223l-6.167,6.167l18.502,14.391l-16.446,16.454l-10.279-10.278l-14.391-2.056l-12.335,6.167l14.391,14.389l-14.391,4.113
		l-20.558,4.111l-4.112,26.732l-6.167,6.167l-16.438,2.056l-14.391,12.334l-30.837-14.39l-8.223-12.343l-16.447,4.12l8.224,12.334
		l4.112-8.223l6.167,18.501h-12.334l2.056-10.278l-6.168-10.278l-18.503,67.848l-12.334,4.11l-6.162-18.501l-26.724-8.231
		l18.5-41.114l-24.667-22.621l12.334-20.558l-26.726-34.956l20.558-30.836l28.783-22.622l6.167-22.613l20.55-28.789l24.669-4.111
		L137.877,400.315"/>
</g>
<g id="Beschreibungen">
	<text id="Titel2" transform="matrix(1 0 0 1 19.4768 110.7432)" font-family="'ArialMT'" font-size="30">%titel2%</text>
	<text id="Titel1" transform="matrix(0.6758 0 0 1 15.4534 65.1289)" font-family="'ArialMT'" font-size="61.9146">%titel1%</text>
	<text transform="matrix(1 0 0 1 528.2317 944.4492)" font-family="'ArialMT'" font-size="12.3615">Visualisierung erstellt mit</text>
	<text transform="matrix(1 0 0 1 560.0989 959.2822)" font-family="'ArialMT'" font-size="12.3615">DataMaps.eu</text>
	<text transform="matrix(1 0 0 1 538.5354 974.1162)" font-family="'ArialMT'" font-size="12.3615">provided by open3.at</text>
	<g id="open3-logo">
		<path fill="#007CC1" d="M611.033,1000.049c0-2.634-1.256-4.134-2.816-4.963c1.438-0.766,2.51-2.112,2.51-4.47
			c0-3.669-2.791-6.246-6.642-6.246c-3.674,0-6.587,2.329-6.674,6.218h3.979c0.092-1.65,1.193-2.631,2.694-2.631
			c1.433,0,2.656,0.949,2.656,2.787c0,1.53-0.826,2.724-2.755,2.724h-0.581v3.46h0.581c1.959,0,3.063,1.193,3.063,3
			c0,1.962-1.225,3.03-2.942,3.03c-1.561,0-2.904-0.884-2.969-2.847h-3.976c0.059,4.566,3.396,6.428,6.947,6.428
			C607.851,1006.537,611.033,1004.396,611.033,1000.049z"/>
		<path fill="#9C9D9F" d="M539.952,995.853c0,5.053-2.016,8.392-5.264,8.392c-3.128,0-5.443-3.339-5.443-8.991
			c0-4.933,1.864-8.271,5.264-8.271C537.817,986.979,539.952,990.348,539.952,995.853z M543.862,995.613
			c0-6.769-3.88-10.953-9.294-10.953c-5.413,0-9.262,4.183-9.262,10.953c0,7.217,4.12,11.186,9.258,11.186
			C539.712,1006.799,543.862,1002.83,543.862,995.613z"/>
		<path fill="#9C9D9F" d="M556.955,998.318c0,3.789-1.594,6.342-4.12,6.342c-1.173,0-1.864-0.36-2.346-0.747v-9.984
			c0-1.084,0.746-1.654,2.255-1.654C554.821,992.273,556.955,994.198,556.955,998.318z M560.444,998.139
			c0-4.21-2.039-7.76-7.603-7.76c-1.896,0-3.819,0.481-4.638,1.023c-0.841,0.571-1.137,1.111-1.137,2.195v17.416
			c0,0.361,0.181,0.516,0.542,0.516h2.37c0.361,0,0.517-0.154,0.517-0.516v-5.114c0.385,0.271,1.444,0.812,2.942,0.812
			C558.158,1006.709,560.444,1002.319,560.444,998.139z"/>
		<path fill="#9C9D9F" d="M572.74,995.912l-6.526,1.113c0.126-2.347,1.143-4.752,3.555-4.752
			C571.898,992.273,572.65,994.048,572.74,995.912z M576.108,1001.657c0-0.392-0.301-0.752-0.691-0.752
			c-0.361,0-0.631,0.271-0.776,0.541c-0.632,1.112-1.896,2.557-3.819,2.557c-2.887,0-4.276-2.437-4.457-5.264l8.753-1.443
			c0.631-0.089,0.902-0.301,0.902-0.957c0-3.04-2.135-5.955-5.895-5.955c-3.585,0-6.887,2.496-6.887,8.09
			c0,5.896,3.248,8.271,6.887,8.271C573.972,1006.74,576.108,1003.461,576.108,1001.657z"/>
		<path fill="#9C9D9F" d="M592.131,1005.837V995.01c0-3.608-3.249-4.631-6.437-4.631c-2.226,0-4.059,0.416-5.052,0.901
			c-0.903,0.451-1.203,0.873-1.203,1.86v12.69c0,0.36,0.18,0.512,0.541,0.512h2.376c0.36,0,0.542-0.151,0.542-0.512v-11.606
			c0-0.958,0.235-1.984,2.676-1.984c2.401,0,3.122,1.443,3.122,2.917v10.676c0,0.36,0.156,0.512,0.517,0.512h2.4
			C591.98,1006.349,592.131,1006.197,592.131,1005.837z"/>
		<path fill="#007CC1" d="M616.359,1004.994c0-2.143-3.016-1.734-3.016-3.128c0-0.596,0.395-0.956,1.013-0.956
			c0.608,0,0.866,0.416,1.013,0.742c0.079,0.17,0.214,0.315,0.417,0.315c0.248,0,0.428-0.136,0.428-0.416
			c0-0.38-0.558-1.193-1.834-1.193c-1.125,0-1.936,0.596-1.936,1.621c0,1.945,2.982,1.541,2.982,3.115c0,0.54-0.36,0.98-1.058,0.98
			c-0.658,0-1.019-0.542-1.165-0.921c-0.062-0.192-0.197-0.338-0.449-0.338c-0.271,0-0.451,0.163-0.451,0.449
			c0,0.473,0.736,1.418,2.031,1.418C615.639,1006.682,616.359,1005.961,616.359,1004.994z"/>
		<path fill="#007CC1" d="M622.05,1003.565c0,1.473-0.618,2.486-1.677,2.486c-1.013,0-1.755-1.014-1.755-2.679
			c0-1.429,0.608-2.436,1.698-2.436C621.376,1000.943,622.05,1001.956,622.05,1003.565z M623.04,1003.484
			c0-1.924-1.103-3.127-2.7-3.127s-2.712,1.204-2.712,3.127c0,2.06,1.193,3.195,2.712,3.195
			C621.86,1006.68,623.04,1005.544,623.04,1003.484z"/>
		<path fill="#007CC1" d="M629.091,1005.532c0-0.149-0.077-0.234-0.208-0.234c-0.084,0-0.146,0.045-0.23,0.111
			c-0.248,0.248-0.663,0.586-1.39,0.586c-1.147,0-1.912-1.126-1.912-2.689c0-1.52,0.687-2.384,1.665-2.384
			c0.822,0,1.101,0.517,1.237,0.799c0.078,0.157,0.203,0.314,0.417,0.314c0.248,0,0.421-0.147,0.421-0.416
			c0-0.406-0.651-1.261-2.024-1.261c-1.716,0-2.694,1.428-2.694,3.106c0,1.747,0.9,3.218,2.762,3.218
			C628.316,1006.682,629.091,1005.882,629.091,1005.532z"/>
		<path fill="#007CC1" d="M631.479,1006.423v-5.806c0-0.09-0.051-0.13-0.136-0.13h-0.675c-0.09,0-0.136,0.045-0.136,0.13v5.806
			c0,0.09,0.051,0.135,0.136,0.135h0.675C631.433,1006.558,631.479,1006.512,631.479,1006.423z"/>
		<path fill="#007CC1" d="M636.697,1006.423v-0.35c0-0.09-0.045-0.13-0.135-0.13h-2.256v-2.24h1.924
			c0.091,0,0.136-0.048,0.136-0.134v-0.326c0-0.09-0.045-0.136-0.136-0.136h-1.924v-2.003h2.256c0.09,0,0.135-0.048,0.135-0.135
			v-0.351c0-0.09-0.045-0.131-0.135-0.131h-3.071c-0.09,0-0.13,0.045-0.13,0.131v5.806c0,0.09,0.045,0.135,0.13,0.135h3.071
			C636.652,1006.558,636.697,1006.512,636.697,1006.423z"/>
		<path fill="#007CC1" d="M641.736,1000.966v-0.349c0-0.09-0.057-0.13-0.146-0.13h-3.882c-0.089,0-0.146,0.045-0.146,0.13v0.349
			c0,0.09,0.057,0.134,0.146,0.134h1.474v5.311c0,0.102,0.045,0.147,0.146,0.147h0.652c0.102,0,0.146-0.046,0.146-0.147v-5.311
			h1.463C641.679,1001.102,641.736,1001.056,641.736,1000.966z"/>
		<path fill="#007CC1" d="M646.898,1000.617c0-0.09-0.057-0.13-0.146-0.13h-0.507c-0.102,0-0.146,0.033-0.203,0.123l-1.35,2.407
			h-0.023l-1.316-2.407c-0.057-0.09-0.102-0.123-0.202-0.123h-0.687c-0.091,0-0.136,0.045-0.136,0.13
			c0,0.033,0.018,0.083,0.034,0.127l1.778,2.993v2.688c0,0.09,0.051,0.136,0.135,0.136h0.676c0.09,0,0.135-0.048,0.135-0.136v-2.688
			l1.777-2.993C646.887,1000.707,646.898,1000.65,646.898,1000.617z"/>
		<path fill="#007CC1" d="M616.516,995.395c0,1.565-0.687,2.533-2.228,2.533c-0.293,0-0.552-0.034-0.698-0.057v-4.951
			c0.112-0.022,0.395-0.044,0.698-0.044C615.774,992.874,616.516,993.831,616.516,995.395z M617.495,995.405
			c0-1.866-1.024-3.094-3.263-3.094c-0.704,0-1.306,0.079-1.452,0.126c-0.118,0.034-0.134,0.091-0.134,0.191v5.579
			c0,0.098,0.018,0.159,0.134,0.191c0.157,0.047,0.867,0.124,1.452,0.124C616.471,998.521,617.495,997.364,617.495,995.405z"/>
		<path fill="#007CC1" d="M622.039,995.98h-1.936l0.675-1.902c0.181-0.507,0.281-1.101,0.281-1.101h0.022
			c0,0,0.112,0.596,0.293,1.101L622.039,995.98z M623.828,998.332c0-0.035-0.023-0.102-0.034-0.136l-2.184-5.681
			c-0.034-0.091-0.068-0.136-0.164-0.136h-0.624c-0.112,0-0.146,0.045-0.18,0.136l-2.172,5.681
			c-0.018,0.046-0.033,0.101-0.033,0.136c0,0.078,0.05,0.123,0.135,0.123h0.528c0.095,0,0.146-0.045,0.181-0.13l0.635-1.801h2.295
			l0.631,1.801c0.033,0.09,0.084,0.13,0.169,0.13h0.674C623.782,998.455,623.828,998.41,623.828,998.332z"/>
		<path fill="#007CC1" d="M628.259,992.863v-0.348c0-0.09-0.054-0.135-0.146-0.135h-3.879c-0.091,0-0.146,0.045-0.146,0.135v0.348
			c0,0.091,0.054,0.131,0.146,0.131h1.474v5.311c0,0.102,0.045,0.146,0.146,0.146h0.651c0.102,0,0.146-0.045,0.146-0.146v-5.31
			h1.462C628.203,992.998,628.259,992.953,628.259,992.863z"/>
		<path fill="#007CC1" d="M632.116,995.98h-1.931l0.669-1.902c0.181-0.507,0.282-1.101,0.282-1.101h0.022
			c0,0,0.112,0.596,0.293,1.101L632.116,995.98z M633.906,998.332c0-0.035-0.023-0.102-0.034-0.136l-2.184-5.681
			c-0.035-0.091-0.063-0.136-0.164-0.136h-0.619c-0.118,0-0.146,0.045-0.18,0.136l-2.178,5.681
			c-0.018,0.046-0.033,0.101-0.033,0.136c0,0.078,0.051,0.123,0.135,0.123h0.529c0.102,0,0.146-0.045,0.18-0.13l0.642-1.801h2.291
			l0.632,1.801c0.034,0.09,0.079,0.13,0.164,0.13h0.675C633.861,998.455,633.906,998.41,633.906,998.332z"/>
		<path fill="#007CC1" d="M617.406,989.576v-2.272c0-0.09-0.068-0.131-0.163-0.131h-1.854c-0.091,0-0.135,0.046-0.135,0.131v0.307
			c0,0.09,0.044,0.146,0.135,0.146h1.125v1.485c0,0.36-0.541,0.607-1.271,0.607c-1.06,0-1.859-1.091-1.859-2.7
			c0-1.461,0.652-2.431,1.801-2.431c0.889,0,1.215,0.524,1.354,0.8c0.078,0.17,0.191,0.304,0.414,0.304
			c0.271,0,0.417-0.158,0.417-0.415c0-0.372-0.563-1.248-2.109-1.248c-1.75,0-2.868,1.271-2.868,3.128
			c0,2.002,1.191,3.194,2.89,3.194C616.493,990.477,617.406,990.017,617.406,989.576z"/>
		<path fill="#007CC1" d="M623.365,987.36c0,1.474-0.618,2.485-1.679,2.485c-1.013,0-1.751-1.012-1.751-2.679
			c0-1.428,0.607-2.434,1.699-2.434C622.691,984.739,623.365,985.751,623.365,987.36z M624.355,987.281
			c0-1.924-1.101-3.128-2.7-3.128c-1.598,0-2.711,1.209-2.711,3.128c0,2.059,1.191,3.194,2.711,3.194
			C623.174,990.477,624.355,989.34,624.355,987.281z"/>
		<path fill="#007CC1" d="M630.362,984.412c0-0.09-0.056-0.129-0.146-0.129h-0.574c-0.102,0-0.146,0.045-0.18,0.129l-1.424,4.097
			c-0.124,0.372-0.208,0.82-0.208,0.82h-0.023c0,0-0.067-0.45-0.19-0.82l-1.396-4.097c-0.034-0.09-0.09-0.129-0.18-0.129h-0.721
			c-0.09,0-0.136,0.045-0.136,0.129c0,0.034,0.018,0.091,0.035,0.136l2.126,5.67c0.034,0.09,0.079,0.136,0.181,0.136h0.472
			c0.112,0,0.163-0.046,0.198-0.136l2.137-5.67C630.351,984.503,630.362,984.446,630.362,984.412z"/>
		<path fill="#007CC1" d="M634.894,990.218v-0.344c0-0.09-0.044-0.134-0.129-0.134h-2.262v-2.241h1.923
			c0.091,0,0.136-0.046,0.136-0.134v-0.326c0-0.09-0.045-0.136-0.136-0.136h-1.923V984.9h2.261c0.09,0,0.13-0.049,0.13-0.135v-0.349
			c0-0.089-0.044-0.129-0.13-0.129h-3.075c-0.09,0-0.13,0.045-0.13,0.129v5.806c0,0.09,0.045,0.136,0.13,0.136h3.075
			C634.85,990.354,634.894,990.31,634.894,990.218z"/>
		<path fill="#007CC1" d="M639.348,986.01c0,0.74-0.541,1.239-1.553,1.239c-0.23,0-0.41,0-0.506-0.013v-2.451
			c0.146-0.023,0.36-0.057,0.721-0.057C638.943,984.728,639.348,985.178,639.348,986.01z M640.54,990.218
			c0-0.033-0.022-0.078-0.05-0.123l-0.99-1.813c-0.181-0.342-0.484-0.641-0.697-0.742v-0.021c0.721-0.165,1.471-0.687,1.471-1.571
			c0-1.028-0.638-1.732-2.257-1.732c-0.733,0-1.34,0.079-1.509,0.124c-0.112,0.034-0.135,0.078-0.135,0.18v5.704
			c0,0.09,0.051,0.136,0.135,0.136h0.642c0.09,0,0.135-0.046,0.135-0.136v-2.53h0.405c0.404,0,0.687,0.36,0.844,0.675l0.945,1.879
			c0.034,0.066,0.119,0.112,0.231,0.112h0.696C640.495,990.354,640.54,990.31,640.54,990.218z"/>
		<path fill="#007CC1" d="M646.883,990.218v-5.806c0-0.09-0.045-0.129-0.129-0.129h-0.488c-0.09,0-0.13,0.045-0.13,0.129v3.68
			c0,0.506,0.062,1.103,0.062,1.103h-0.031c0,0-0.261-0.557-0.554-0.979l-2.599-3.808c-0.054-0.091-0.102-0.129-0.198-0.129h-0.737
			c-0.09,0-0.129,0.044-0.129,0.129v5.806c0,0.09,0.045,0.135,0.129,0.135h0.495c0.091,0,0.135-0.045,0.135-0.135v-3.972
			c0-0.452-0.057-1.047-0.057-1.047h0.023c0,0,0.259,0.552,0.522,0.956l2.768,4.062c0.057,0.091,0.091,0.135,0.203,0.135h0.573
			C646.838,990.354,646.883,990.31,646.883,990.218z"/>
		<path fill="#007CC1" d="M655.139,990.241c0-0.035-0.584-5.829-0.584-5.829c-0.012-0.09-0.045-0.129-0.135-0.129h-0.731
			c-0.091,0-0.136,0.054-0.17,0.129l-1.473,3.916c-0.146,0.396-0.234,0.88-0.234,0.88h-0.023c0,0-0.097-0.484-0.248-0.88
			l-1.461-3.916c-0.034-0.078-0.079-0.129-0.17-0.129h-0.739c-0.09,0-0.127,0.045-0.135,0.129c0,0-0.585,5.794-0.585,5.829
			c0,0.078,0.055,0.112,0.134,0.112h0.553c0.09,0,0.123-0.046,0.134-0.136l0.31-3.938c0.035-0.485,0.035-1.159,0.035-1.159h0.022
			c0,0,0.157,0.674,0.338,1.159l1.463,3.953c0.033,0.089,0.066,0.123,0.163,0.123h0.281c0.102,0,0.136-0.034,0.169-0.123
			l1.461-3.953c0.181-0.495,0.344-1.159,0.344-1.159h0.018c0,0,0,0.674,0.034,1.159l0.315,3.938c0.011,0.09,0.045,0.136,0.136,0.136
			h0.652C655.106,990.354,655.139,990.319,655.139,990.241z"/>
		<path fill="#007CC1" d="M660.045,990.218v-0.344c0-0.09-0.045-0.134-0.135-0.134h-2.257v-2.241h1.924
			c0.091,0,0.136-0.046,0.136-0.134v-0.326c0-0.09-0.045-0.136-0.136-0.136h-1.924V984.9h2.257c0.09,0,0.135-0.049,0.135-0.135
			v-0.349c0-0.089-0.045-0.129-0.135-0.129h-3.072c-0.09,0-0.134,0.045-0.134,0.129v5.806c0,0.09,0.049,0.136,0.134,0.136h3.072
			C660,990.354,660.045,990.31,660.045,990.218z"/>
		<path fill="#007CC1" d="M666.446,990.218v-5.806c0-0.09-0.045-0.129-0.13-0.129h-0.487c-0.09,0-0.13,0.045-0.13,0.129v3.68
			c0,0.506,0.063,1.103,0.063,1.103h-0.032c0,0-0.261-0.557-0.553-0.979l-2.599-3.808c-0.055-0.091-0.102-0.129-0.198-0.129h-0.736
			c-0.09,0-0.13,0.044-0.13,0.129v5.806c0,0.09,0.045,0.135,0.13,0.135h0.495c0.091,0,0.135-0.045,0.135-0.135v-3.972
			c0-0.452-0.057-1.047-0.057-1.047h0.022c0,0,0.259,0.552,0.529,0.956l2.762,4.062c0.057,0.091,0.09,0.135,0.203,0.135h0.574
			C666.4,990.354,666.446,990.31,666.446,990.218z"/>
		<path fill="#007CC1" d="M671.844,984.761v-0.349c0-0.09-0.057-0.129-0.146-0.129h-3.882c-0.09,0-0.146,0.045-0.146,0.129v0.349
			c0,0.09,0.057,0.135,0.146,0.135h1.475v5.311c0,0.102,0.051,0.147,0.146,0.147h0.652c0.102,0,0.146-0.046,0.146-0.147v-5.311
			h1.462C671.787,984.896,671.844,984.852,671.844,984.761z"/>
	</g>
</g>
<g id="Skala">
	<rect id="rect4459" x="24.767" y="795.805" fill="#111101" width="17.047" height="16.228"/>
	<text transform="matrix(1.0506 0 0 1 50.4353 809.8936)" font-family="'ArialMT'" font-size="17.7037">%legende1%</text>
	<rect id="rect4459-1" x="24.767" y="818.164" fill="#111102" width="17.047" height="16.231"/>
	<text transform="matrix(1.0506 0 0 1 50.4353 832.2549)" font-family="'ArialMT'" font-size="17.7037">%legende2%</text>
	<rect id="rect4459-2" x="24.767" y="840.524" fill="#111103" width="17.047" height="16.23"/>
	<text transform="matrix(1.0506 0 0 1 50.4353 854.6143)" font-family="'ArialMT'" font-size="17.7037">%legende3%</text>
	<rect id="rect4459-6" x="24.767" y="862.888" fill="#111104" width="17.047" height="16.228"/>
	<text transform="matrix(1.0506 0 0 1 50.4353 876.9775)" font-family="'ArialMT'" font-size="17.7037">%legende4%</text>
	<rect id="rect4459-29" x="24.767" y="885.245" fill="#111105" width="17.047" height="16.231"/>
	<text transform="matrix(1.0506 0 0 1 50.4353 899.3369)" font-family="'ArialMT'" font-size="17.7037">%legende5%</text>
	<rect id="rect4459-3" x="24.767" y="907.606" fill="#111106" width="17.047" height="16.233"/>
	<text transform="matrix(1.0506 0 0 1 50.4353 921.6982)" font-family="'ArialMT'" font-size="17.7037">%legende6%</text>
	<rect id="rect4459-8" x="24.767" y="929.969" fill="#111107" width="17.047" height="16.229"/>
	<text transform="matrix(1.0506 0 0 1 50.4353 944.0586)" font-family="'ArialMT'" font-size="17.7037">%legende7%</text>
	<rect id="rect4459-9" x="24.767" y="952.327" fill="#111108" width="17.047" height="16.229"/>
	<text transform="matrix(1.0506 0 0 1 50.4353 966.4199)" font-family="'ArialMT'" font-size="17.7037">%legende8%</text>
	<rect id="rect4459-18" x="24.767" y="974.688" fill="#111109" width="17.047" height="16.232"/>
	<text transform="matrix(1.0506 0 0 1 50.4353 988.7803)" font-family="'ArialMT'" font-size="17.7037">%legende9%</text>
	<rect id="rect4459-18-6" x="24.767" y="997.05" fill="#111110" width="17.047" height="16.232"/>
	<text transform="matrix(1.0506 0 0 1 50.4353 1011.1387)" font-family="'ArialMT'" font-size="17.7037">%legende10%</text>
</g>
<text transform="matrix(1 0 0 1 535.4993 205.1357)"><tspan x="0" y="0" font-family="'ArialMT'" font-size="20.9001">1. Bludenz</tspan><tspan x="0" y="25.08" font-family="'ArialMT'" font-size="20.9001">2. Bregenz</tspan><tspan x="0" y="50.16" font-family="'ArialMT'" font-size="20.9001">3. Dornbirn</tspan><tspan x="0" y="75.24" font-family="'ArialMT'" font-size="20.9001">4. Feldkirch</tspan></text>
<g id="Kreis04" transform="translate(-1099.4425,-1468.408)">
	
		<path id="path3841-8-9-2-0-6-5-2_18_" sodipodi:type="arc" sodipodi:cx="328.29956" sodipodi:ry="67.680222" sodipodi:cy="1106.1483" sodipodi:rx="67.680222" fill="#FFFFFF" stroke="#000000" d="
		M1246.848,1968.141c0,6.187-5.018,11.207-11.211,11.207c-6.188,0-11.206-5.021-11.206-11.207c0-6.19,5.021-11.207,11.206-11.207
		C1241.83,1956.935,1246.848,1961.951,1246.848,1968.141z"/>
	<text transform="matrix(1 0 0 1 1231.9545 1972.741)" font-family="'ArialMT'" font-size="13.7481">4</text>
</g>
<g id="Kreis03" transform="translate(-1099.4425,-1468.408)">
	
		<path id="path3841-8-9-2-0-6-5-2_15_" sodipodi:type="arc" sodipodi:cx="328.29956" sodipodi:ry="67.680222" sodipodi:cy="1106.1483" sodipodi:rx="67.680222" fill="#FFFFFF" stroke="#000000" d="
		M1311.154,1841.114c0,6.186-5.021,11.206-11.211,11.206c-6.188,0-11.206-5.021-11.206-11.206c0-6.189,5.018-11.206,11.206-11.206
		C1306.135,1829.908,1311.154,1834.924,1311.154,1841.114z"/>
	<text transform="matrix(1 0 0 1 1296.2592 1845.7136)" font-family="'ArialMT'" font-size="13.7481">3</text>
</g>
<g id="Kreis02" transform="translate(-1099.4425,-1468.408)">
	
		<path id="path3841-8-9-2-0-6-5-2_16_" sodipodi:type="arc" sodipodi:cx="328.29956" sodipodi:ry="67.680222" sodipodi:cy="1106.1483" sodipodi:rx="67.680222" fill="#FFFFFF" stroke="#000000" d="
		M1475.238,1826.911c0,6.188-5.021,11.206-11.212,11.206c-6.188,0-11.206-5.02-11.206-11.206c0-6.191,5.018-11.206,11.206-11.206
		C1470.217,1815.705,1475.238,1820.719,1475.238,1826.911z"/>
	<text transform="matrix(1 0 0 1 1460.3412 1831.5095)" font-family="'ArialMT'" font-size="13.7481">2</text>
</g>
<g id="Kreis01" transform="translate(-1099.4425,-1468.408)">
	
		<path id="path3841-8-9-2-0-6-5-2_17_" sodipodi:type="arc" sodipodi:cx="328.29956" sodipodi:ry="67.680222" sodipodi:cy="1106.1483" sodipodi:rx="67.680222" fill="#FFFFFF" stroke="#000000" d="
		M1447.921,2151.726c0,6.186-5.017,11.206-11.211,11.206c-6.188,0-11.207-5.021-11.207-11.206c0-6.191,5.018-11.207,11.207-11.207
		C1442.905,2140.519,1447.921,2145.535,1447.921,2151.726z"/>
	<text transform="matrix(1 0 0 1 1432.6761 2157.0291)" font-family="'ArialMT'" font-size="13.7481">1</text>
</g>
</svg>
