<?xml version="1.0" encoding="utf-8"?>
<!-- Generator: Adobe Illustrator 13.0.2, SVG Export Plug-In . SVG Version: 6.00 Build 14948)  -->
<!DOCTYPE svg PUBLIC "-//W3C//DTD SVG 1.1//EN" "http://www.w3.org/Graphics/SVG/1.1/DTD/svg11.dtd">
<svg version="1.1"
	 id="Steiermark" xmlns:dc="http://purl.org/dc/elements/1.1/" xmlns:cc="http://creativecommons.org/ns#" xmlns:rdf="http://www.w3.org/1999/02/22-rdf-syntax-ns#" xmlns:svg="http://www.w3.org/2000/svg" xmlns:sodipodi="http://sodipodi.sourceforge.net/DTD/sodipodi-0.dtd" xmlns:inkscape="http://www.inkscape.org/namespaces/inkscape" inkscape:version="0.47 r22583" sodipodi:docname="Karte A Stmk BM.svg"
	 xmlns="http://www.w3.org/2000/svg" xmlns:xlink="http://www.w3.org/1999/xlink" x="0px" y="0px" width="1050px" height="730px"
	 viewBox="0 0 1050 730" enable-background="new 0 0 1050 730" xml:space="preserve">
<g id="Bezirke" transform="translate(0,-322.36218)" inkscape:label="Ebene 1" inkscape:groupmode="layer">
	
		<path id="Bruck_an_der_Mur" fill="#123456" stroke="#7B7979" stroke-width="0.5" stroke-linecap="round" stroke-linejoin="round" stroke-miterlimit="10" d="
		M592.425,465.174l9.765,5.695l2.44,13.021l8.134-3.254l4.066,8.136l17.899,2.441v2.441l-21.154,4.885l-5.691,6.509l-4.882,0.813
		l-3.256,4.068l7.323,7.322l-1.628,3.258l-10.576,10.578l4.067,8.14l6.509,3.254l-1.626,8.951l-4.069,2.44l4.069-0.813l2.44,8.14
		l7.318,5.695l-4.067,9.764l1.628,5.698l-2.441,8.137l-1.624,6.509l-6.509,11.396l8.133,12.204l-1.624,0.814l-2.439-2.441
		l-4.884,7.325l0.814,2.441L603,644.199l7.319,7.326l6.51-2.441l4.882,4.882l10.577-0.814l6.51,7.323h9.764l-0.814,17.903
		l-15.458,3.254l-13.019-3.254l-5.695,1.627v8.138l-9.76,8.138l2.44,7.323l-1.628,1.627l-7.322-4.883l-9.764,3.256l-17.087-13.02
		l-13.016-0.813l-4.067,3.255h-4.067l-6.51-9.767l-2.44-8.951l1.628-9.767l-6.509-1.627l-3.255-9.764l-4.879-2.44l2.438-6.513
		l-7.32-1.627l-8.136,4.072l-6.508-2.444l-4.069-7.323l-7.321-4.882l-6.511-26.04l-15.456-3.254l-3.253-2.444l1.627-4.882
		l-4.068-8.136l-5.695,3.254l-6.509-13.021l0.813-4.881l5.695,0.813l31.729-4.881l4.882-4.882l0.813-7.326l-2.44-6.509l4.882-7.323
		l-2.441-10.58l3.254-11.391l16.273-11.394v-4.068l-15.459,1.627l12.204-3.255l3.255-5.695l18.71,2.44l4.882-20.344l21.969,2.441
		l3.251-13.835l14.646-3.254l4.881,0.814L592.425,465.174"/>
	
		<path id="Deutschlandsberg" fill="#123456" stroke="#7B7979" stroke-width="0.5" stroke-linecap="round" stroke-linejoin="round" stroke-miterlimit="10" d="
		M594.865,869.61l-3.255,8.14l4.068,5.695l2.439-1.627l5.696,7.323l1.626,4.066l1.628-0.813l2.438,9.768l7.322,2.44l4.882,13.832
		h-0.813l-7.322,11.394l2.44,0.813l-4.881,8.138l-6.506,3.258l-8.137,4.882v4.882l-1.628,2.44l-0.813,0.814l4.883,3.254l1.627,4.886
		l-8.95,5.694l2.44,4.068v0.813l-2.44,2.44l2.44,8.142l-4.067,4.066l-4.882,11.392l3.254,6.512l-2.44,4.068l-23.592,6.51
		l-9.764-2.442l-7.322-4.881l-11.392-1.627l-5.694,4.882l-5.692-4.882l-8.95,7.322l-5.695-3.254l-4.883-8.138l-4.882,2.44
		l-4.067-2.44l5.695-23.602l-1.627-3.255l2.441-2.441l-4.067-5.695l-0.814-11.394l-10.573-4.883l-6.509-1.626l3.254-11.396
		l2.441-8.137l5.69-2.44l1.628-5.694l-3.255-5.699l-0.813-10.576l2.44-0.813l3.256-11.396v-2.44l15.458-3.254l10.576-5.696h1.628
		l1.627-4.067l3.254-11.395l13.015,4.883l13.832-4.883l1.628-1.627h7.323l2.438-2.441l13.829,8.951l6.508-11.393L594.865,869.61"/>
	
		<path id="Feldbach" fill="#123456" stroke="#7B7979" stroke-width="0.5" stroke-linecap="round" stroke-linejoin="round" stroke-miterlimit="10" d="
		M790.934,818.346l4.068,8.138l-1.627,4.066l6.509,3.256v5.697l7.323-0.813l0.813-0.813l9.762,4.881l4.067-2.438l2.44,8.95
		l3.254,1.626l4.068-1.626l4.067,8.14l-3.254,4.881v9.764h-8.138l-4.881,11.395l-4.879,3.255l-0.814,4.882l-3.252,2.441
		l-4.069,4.884l-1.627,14.646l-1.627,4.884l-3.255,4.07l4.067,8.949l-2.439,1.628l-3.255,1.627l-8.95-3.255l-8.138,2.442
		l-0.813-3.256l-12.201,3.256l-5.693-1.628l-0.813-5.695l-8.138-3.255l-0.813,1.627l-8.137-4.882l-3.255,1.628l0.813-0.813
		l-8.95-2.443l-0.813,7.324l-10.573-2.439l-9.764-1.627l-7.323-8.141l0.814-4.067l-4.882,0.813l-10.574,3.255l-6.51-4.883
		l3.256-3.253l-9.765-12.209l0.813-0.813l-1.627-14.646l-1.628,0.814l-3.254-14.649l1.627-7.322l6.509-11.395l7.323,2.44h1.627
		v-7.321l4.878,2.439l3.255-4.067l17.899,4.883h0.813l-1.628-9.769l6.51,4.071l5.695-0.813l9.76-14.647l2.441,1.627h6.509
		l0.813,5.694l6.509,4.068l1.628-3.255h4.883l3.254-5.694l2.44,1.628l9.765-4.068l5.69-2.441l0.813-4.067h6.511L790.934,818.346"/>
	
		<path id="F端rstenfeld" fill="#123456" stroke="#7B7979" stroke-width="0.5" stroke-linecap="round" stroke-linejoin="round" stroke-miterlimit="10" d="
		M783.612,782.54l4.883,4.067l3.254-3.255l-0.813-3.255l8.95-3.255l3.255,4.068l8.137,0.813l2.439-8.948l-1.627-3.259l4.064-2.44
		h13.831l3.256-3.255l2.439,15.463l-4.067,9.763h-2.439l-2.441,11.396l1.627,7.322l3.255,4.882l7.322,7.325l-1.627,6.511v1.627
		l4.882,7.325l4.882,5.695l3.256,4.067l-8.138-2.441l-6.51,14.65l-4.067-8.14l-4.067,1.626l-3.255-1.626l-2.44-8.95l-4.067,2.438
		l-9.762-4.881l-0.813,0.813l-7.323,0.813v-5.698l-6.509-3.255l1.627-4.066l-4.068-8.138l-4.066-2.44h-6.511l-0.813,4.067
		l-5.691,2.441l-9.765,4.068l-2.439-1.628l-1.628-11.396h-6.51l-4.067-7.322l8.137-6.509l-4.068-14.647l13.02,16.275l2.439-5.694
		l-4.882-13.021l-9.765-13.836l11.393-8.95l5.695,6.51l3.251,6.514l10.577,0.813L783.612,782.54"/>
	
		<path id="Graz_2_" fill="#123456" stroke="#7B7979" stroke-width="0.5" stroke-linecap="round" stroke-linejoin="round" stroke-miterlimit="10" d="
		M608.695,786.607l-2.437,8.954l-9.765-2.442l1.626,4.068l-4.067,4.068l4.067,0.813l0.814,8.948l4.882,2.44l-3.255,11.395h-3.255
		l4.883,13.021l8.132,3.255l12.205-3.255l0.813,2.441l4.881-2.441l1.628,4.068l8.95-4.068l-1.627-4.885l6.508-4.068l-2.439-6.509
		l2.439-9.769l1.628-7.321l6.506-4.882l-2.438-0.813l1.628-4.067l-6.51,1.626l3.255-5.697l-3.255-4.068l-23.596,0.813
		L608.695,786.607"/>
	
		<path id="Graz_Umgebung_2_" fill="#123456" stroke="#7B7979" stroke-width="0.5" stroke-linecap="round" stroke-linejoin="round" stroke-miterlimit="10" d="
		M608.695,786.607l-2.437,8.954l-9.765-2.442l1.626,4.068l-4.067,4.068l4.067,0.813l0.814,8.948l4.882,2.44l-3.255,11.395h-3.255
		l4.883,13.021l8.132,3.255l12.205-3.255l0.813,2.441l4.881-2.441l1.628,4.068l8.95-4.068l-1.627-4.885l6.508-4.068l-2.439-6.509
		l2.439-9.769l1.628-7.321l6.506-4.882l-2.438-0.813l1.628-4.067l-6.51,1.626l3.255-5.697l-3.255-4.068l-23.596,0.813
		L608.695,786.607 M619.272,701.163l-0.813,8.141l6.509,4.881l4.066,8.951l4.884,0.813l3.255,2.439l-4.068,0.813l-4.882-0.813
		l-8.951,7.326l2.441,10.577l8.137,10.58v-4.884l13.019,8.952l4.068-4.882h6.506l7.322,1.628l4.881,5.694l1.628-3.255l0.813,0.813
		l-1.627,9.764l13.831,11.396l10.578,8.136l-0.813,8.141l-8.137-4.072v0.816l6.51,4.068l-4.883,6.51v0.813l2.441,10.581l3.254-1.631
		l2.438,4.886h6.51l3.254,4.883l-0.813,8.136l13.019,2.44l1.628,9.769h-0.813l-17.9-4.883l-3.255,4.067l-4.878-2.439v7.322h-1.63
		l-7.323-2.441l0.813-4.067l-10.576-3.255l-3.255,11.393l-7.322,1.626l-3.254,3.255l1.628,3.259l-4.068,8.949l-4.066,17.089
		l-8.135,8.137l-1.628-2.439l-2.439-1.629l-9.765,4.068l-2.44,5.695h-7.322v4.07l1.626-0.813l1.628,2.44l-1.628-2.44v3.255
		l-2.439,0.813l-7.322-2.44l-2.438-9.768l-1.627,0.813l-1.627-4.067l-5.696-7.323l-2.439,1.628l-4.068-5.695l3.255-8.14
		l-10.577-8.136l-5.695-4.067l4.068-5.7l-4.068-8.95l-4.883,2.441l-5.693-4.067l-2.438-4.068l1.627-4.07l-0.813-4.882l-2.441,4.067
		l0.813-6.51l-0.813-8.136l-9.764-8.141l-1.627,0.813l-9.764-14.645l-5.694-6.514l2.439-9.763l-1.626-4.882l2.438-3.26
		l-7.322-15.457l-4.881,0.813l-4.064-4.067l-6.508,1.627l-19.528-1.627l-0.813-7.324l4.884-6.511l4.881-0.813l4.882-8.954
		l15.458-8.949l4.064-1.627l8.949-7.323l2.441-10.58l10.577-7.322l4.066-3.254l13.017,0.813l17.087,13.02l9.763-3.256l7.323,4.883
		l1.627-1.627l-2.44-7.323l9.761-8.138l7.321-2.443l5.696,4.885L619.272,701.163"/>
	
		<path id="Hartberg" fill="#123456" stroke="#7B7979" stroke-width="0.5" stroke-linecap="round" stroke-linejoin="round" stroke-miterlimit="10" d="
		M799.884,603.514l10.577,13.019l3.254-0.814v-7.322l4.065,1.627l2.44-4.068l3.255-8.139h3.254l1.627,8.139l3.255-2.441
		l-1.628,17.086l7.323,5.698l-1.628,4.069l3.255,6.509l9.764,7.323l-2.439,0.817l-7.323,2.441l-8.136,1.627h-4.883l2.44,8.949
		l-4.067,2.441l-3.255-3.254l4.068-4.882l-4.068-0.813l-6.506,11.391l-0.813,0.813l-8.949,2.444l0.813,3.254h-0.813l-4.882,2.441
		l6.509,4.882l8.137,18.717v2.441l5.692,16.275l0.813,1.627l3.255,17.09v0.813l3.254,14.646l-0.813,0.813l4.068,6.512l2.44,8.137
		l-3.256,3.255h-13.831l-4.064,2.439l1.627,3.26l-2.439,8.948l-8.137-0.813l-3.255-4.068l-8.95,3.255l0.814,3.254l-3.255,3.256
		l-4.883-4.067l1.627-8.951l-10.577-0.813l-3.251-6.514l-5.694-6.51l-11.393,8.95l-0.813-5.695l-5.694-4.882l0.813-4.068
		l-5.695-4.069l-4.882-0.813l-1.627,3.258l-7.32-4.071l-3.254-4.067l-2.442-2.442l-2.438-1.625l4.066-4.883l-3.254-2.441
		l4.882-0.813l-5.694-8.14l-0.813-12.204v-1.628l-8.137-8.953l0.813-0.813l-0.813-3.254l4.882-11.395l-2.44-4.068h3.254
		l14.643-10.577l-8.947-9.767v-5.695l-7.322-7.323l-1.625-16.276l-6.511-0.814l-5.694-6.509l17.899-16.276l6.509,5.695l4.067-4.068
		l3.252,1.627l11.392,1.627l7.321-4.068l7.323-1.627l5.695-10.581l2.439,0.814l11.389,4.885h13.832L799.884,603.514"/>
	
		<path id="Judenburg" fill="#123456" stroke="#7B7979" stroke-width="0.5" stroke-linecap="round" stroke-linejoin="round" stroke-miterlimit="10" d="
		M314.187,636.876l6.509,5.695l4.879-3.254l13.019,3.254l6.509,13.021h9.763v14.649l3.254,7.323h-5.694l-5.695,8.136l-10.578-0.813
		l-0.813,9.767l4.067,8.95l-3.255,8.953l4.882,2.439l-1.627,9.764l10.578,5.699l12.204,3.254l20.338,7.323l11.391-1.628
		l8.136,20.344l4.064-0.813l2.441,8.95l8.135,0.813l0.814,7.325v4.068l4.882,6.51l17.898,2.439l11.388,8.953l5.695,12.205
		l0.814,2.44l-2.441,5.698l-9.764-5.698l-5.692,13.021l-4.882,0.814l4.068,4.881l-5.695-1.628H428.9l-7.323,4.883H411l-13.016,6.513
		l-1.627,2.44l-30.918,3.254l-4.064,7.323l-6.509-1.628l-2.439-4.882l0.813-5.694l-6.509-15.462l-3.255-4.068v-1.628l-3.253-2.44
		l-3.255-14.648l2.44-2.439l-11.391-13.836l0.813-6.509l-10.572-4.883l-10.578,2.442l-7.322-3.256l-1.627-4.886l-4.067,3.258
		l-4.882-5.697l-4.882-10.577l3.255-7.325l-5.694-19.526l-4.064-2.445l-8.95,1.632l-8.949-10.581l-8.95-2.439l-5.695-12.209
		l-8.947-2.44l-0.813-13.019l2.44-5.699l2.438-2.441l13.831-4.068l5.696-6.509l10.576-4.885l12.201-5.696l7.323-8.949v-7.327
		l21.968-2.44L314.187,636.876"/>
	
		<path id="Knittelfeld" fill="#123456" stroke="#7B7979" stroke-width="0.5" stroke-linecap="round" stroke-linejoin="round" stroke-miterlimit="10" d="
		M380.084,684.887l14.646,10.581l8.136-2.439l1.625-5.696l8.95-5.699l6.509,5.699l15.459,4.068l1.627-2.44l16.27,27.666l6.509,4.068
		l3.255-2.44v-5.696l8.136,9.765l4.068-1.627l6.509,4.882l6.506,12.208l4.883,3.255l4.066,4.068l0.813,7.325l-8.949,8.136
		l-8.946,2.44l-4.069,7.322l-11.39,9.769v10.575l-8.136,8.954l0.813,10.577l-5.695-12.205l-11.388-8.953l-17.898-2.44l-4.882-6.508
		v-4.069l-0.814-7.325l-8.136-0.813l-2.44-8.95l-4.064,0.813l-8.136-20.344l-11.391,1.628l-20.338-7.322l-12.204-3.255l-10.578-5.7
		l1.627-9.763l-4.882-2.44l3.255-8.953l-4.067-8.949l0.813-9.767l10.578,0.813l5.695-8.136h5.694l12.201,0.814L380.084,684.887"/>
	
		<path id="Leibnitz" fill="#123456" stroke="#7B7979" stroke-width="0.5" stroke-linecap="round" stroke-linejoin="round" stroke-miterlimit="10" d="
		M671.341,863.915l3.254,14.649l1.628-0.814l1.627,14.646l-0.813,0.813l9.764,12.209l-3.255,3.253l6.51,4.882l10.573-3.254
		l4.882-0.813l-0.813,4.066l-0.813,10.581l-2.44,8.95l3.254,13.021l0.813,1.627l-7.322,11.391l-4.068,9.767v13.832l1.629,6.514
		h-4.879l-2.441,4.882h-5.696l-4.881-4.067l-2.44,2.439l-6.51,2.44l-7.321,4.883l1.628,13.834l-8.139,7.322l-6.505,4.886
		l-4.882-2.444l-4.882,4.072l-8.136-13.836h-4.883l-4.067-5.694l-12.205,1.627l-23.591,0.813l2.438-4.067l-3.254-6.512l4.882-11.392
		l4.067-4.067l-2.439-8.141l2.439-2.44v-0.813l-2.439-4.069l8.95-5.693l-1.628-4.886l-4.883-3.255l0.813-0.813l1.629-2.44v-4.882
		l8.136-4.882l6.506-3.258l4.882-8.137l-2.441-0.813l7.323-11.394h0.813l-4.881-13.832l2.438-0.813v-3.255l1.628,2.44l-1.628-2.44
		l-1.627,0.813v-4.07h7.322l2.44-5.695l9.765-4.068l2.439,1.629l1.628,2.439l8.137-8.137l4.064-17.089l4.068-8.949l-1.628-3.259
		l3.255-3.255l7.323-1.626l3.253-11.393l10.578,3.255l-0.814,4.067l-6.509,11.395L671.341,863.915"/>
	
		<path id="Leoben" fill="#123456" stroke="#7B7979" stroke-width="0.5" stroke-linecap="round" stroke-linejoin="round" stroke-miterlimit="10" d="
		M404.49,562.013l3.255,8.95l5.695-2.441l13.832,4.882l1.627,3.254l17.083-4.068l4.882-5.696l14.646,0.813l-2.441,5.696
		l-5.695-0.813l-0.813,4.882l6.509,13.021l5.696-3.254l4.068,8.136l-1.628,4.882l3.253,2.444l15.456,3.254l6.511,26.04l7.321,4.881
		l4.069,7.323l6.508,2.444l8.137-4.072l7.319,1.627l-2.438,6.513l4.879,2.44l3.254,9.764l6.509,1.626l-1.627,9.767l2.44,8.951
		l6.51,9.767h4.067l-10.577,7.322l-2.44,10.58l-8.95,7.322l-4.064,1.627l-15.458,8.949L507,737.781l-4.881,0.813l-4.882,6.51
		l-4.067-4.068l-4.883-3.255l-6.506-12.208l-6.508-4.883l-4.069,1.628l-8.136-9.763v5.694l-3.254,2.44l-6.509-4.067l-16.271-27.667
		l-1.627,2.441l-15.459-4.069l-6.509-5.699l-8.95,5.699l-1.624,5.696l-8.136,2.439l-14.645-10.581l-9.765-6.508l-12.201-0.814
		l-3.255-7.323V655.59l9.762-11.395l-0.813-19.527l9.763-2.444l4.883-13.018l13.832-13.835l-1.629-4.882l-4.066-0.814l-1.627-11.394
		v-3.255l8.136-6.509l-0.813-8.136l6.51-1.631L404.49,562.013"/>
	
		<path id="Liezen" fill="#123456" stroke="#7B7979" stroke-width="0.5" stroke-linecap="round" stroke-linejoin="round" stroke-miterlimit="10" d="
		M393.916,505.049l9.761,10.577l16.271-8.95h4.068l2.439,4.881l5.695-3.254l5.696,11.395l8.133,2.441l8.136-1.628l13.832-14.648
		l7.323,1.627l12.202-5.695l6.509,4.882h10.577l15.459-1.627v4.068l-16.273,11.394l-3.253,11.391l2.441,10.58l-4.883,7.323
		l2.441,6.509l-0.813,7.326l-4.881,4.882l-31.729,4.881l2.44-5.695l-14.646-0.813l-4.881,5.696l-17.083,4.068l-1.627-3.255
		l-13.832-4.881l-5.695,2.441l-3.255-8.95l-5.691-3.258l-6.51,1.631l0.813,8.136l-8.137,6.509v3.254l1.627,11.394l4.067,0.814
		l1.628,4.881l-13.833,13.835l-4.881,13.019l-9.764,2.444l0.813,19.527l-9.76,11.394H345.1l-6.509-13.021l-13.019-3.254
		l-4.879,3.254l-6.509-5.695l-1.627,4.068l-21.968,2.44v7.327l-7.323,8.949l-12.201,5.696l-10.577,4.885l-5.695,6.509l-13.832,4.068
		l-2.438,2.441l-2.44,5.699l0.813,13.019l-8.95,10.58l-8.949-0.813l-3.255,4.881l-6.51,0.813l-8.136,13.836l-4.878,2.439
		l-11.393-4.886l-4.881-7.322l-5.695,7.322h-3.254l-1.628,5.698l-13.828-4.066l-4.882,2.439l0.813,3.256l-8.136,4.882l-6.511-5.695
		l-14.645,4.067l-13.015-7.322l0.813-12.208l-11.39,2.44l-1.628,6.509l-7.322,4.071l-4.068-5.698h-7.323l-4.064,8.954l-4.881-0.813
		l-6.509-6.514H51.406l-9.764-4.068l-3.254-4.881l1.627-16.274l-10.574-29.295l-1.627-10.58L27,662.916l8.945-19.531l-1.623-6.509
		l5.691-0.813l19.527,5.695h18.71l-2.44-4.882l9.765-13.018l3.254-8.953l-4.882-9.764l4.068-1.627l-0.813-3.257l-6.51-11.392
		l-13.015-1.626l1.627-9.767l-1.627-10.577l4.068-15.462v-4.069l9.761-4.068l-1.627-4.885l4.882-0.814l8.95-14.645l4.882,2.44
		l14.645-2.44l3.252,1.627l3.255-5.695l10.575,4.068l8.138,5.695l9.764-2.441l9.761,5.696l8.137-1.627l14.646,15.462l-1.627,14.649
		l0.813,8.95l13.018-1.627l16.269-8.14h10.578l8.137-7.323l4.067,1.627l4.881-0.814l-3.254,4.068l10.574,13.835l21.968,1.627
		l2.44-4.882l17.896-8.14l1.627-8.136l7.323-1.628l8.136,0.814l13.019-13.022h8.133l4.068-6.508l-0.813-5.696l8.136-5.695
		l8.951,0.813l12.204-5.698l8.947,1.627l0.813-5.696l6.509-2.44l7.323-10.577L393.916,505.049"/>
	
		<path id="M端rzzuschlag" fill="#123456" stroke="#7B7979" stroke-width="0.5" stroke-linecap="round" stroke-linejoin="round" stroke-miterlimit="10" d="
		M635.544,497.726l6.51,3.254l26.032-3.254l7.321,15.458l11.393,2.441l2.439,4.885l5.691-6.512l7.324,1.627l2.438,29.297l5.695,2.44
		l0.814,4.069l11.391-4.882l13.015,1.627l5.695,8.95l6.511,0.814l-4.883,13.835l0.813,8.136l-6.51,3.258l-7.318-6.512l-9.764,6.512
		l-7.322,5.695l-1.627,1.628l-14.646,13.835l-13.829,7.323v6.509l-3.254,3.255l-13.019,5.699l3.255,3.254l-6.509,9.763v14.649
		l-14.643,5.695h-9.764l-6.51-7.323l-10.577,0.814l-4.882-4.882l-6.51,2.441l-7.318-7.326l-2.44-15.459l-0.813-2.441l4.882-7.326
		l2.439,2.441l1.624-0.814l-8.133-12.204L607.067,597l1.624-6.509l2.441-8.137l-1.628-5.698l4.067-9.764l-7.317-5.695l-2.441-8.14
		l-4.067,0.813l4.067-2.44l1.626-8.951l-6.508-3.254l-4.068-8.14l10.576-10.577l1.628-3.258l-7.321-7.322l3.254-4.068l4.882-0.813
		l5.691-6.509l21.154-4.885v-2.441l3.254,2.441L635.544,497.726"/>
	
		<path id="Murau" fill="#123456" stroke="#7B7979" stroke-width="0.5" stroke-linecap="round" stroke-linejoin="round" stroke-miterlimit="10" d="
		M245.846,704.418l5.695,12.207l8.949,2.44l8.95,10.58l8.95-1.629l4.065,2.443l5.694,19.527l-3.255,7.325l4.882,10.576l4.882,5.698
		l4.068-3.258l1.626,4.886l7.323,3.255l10.577-2.441l10.572,4.883l-0.813,6.509l11.391,13.836l-2.44,2.439l3.255,14.648l3.253,2.44
		v1.628l3.255,4.068l6.509,15.462l-0.813,5.694l-21.968,1.628l-4.068-7.322l-8.947,3.254l-1.627,5.694l-4.066-2.439l-1.629,8.14
		l-7.321-2.443l-13.832,9.767l-3.254-6.508l1.627-8.954l-5.696-4.882l-10.574-2.44l-21.153,1.626l-4.881-4.066l-3.256,3.255
		l-0.813,1.627l-10.574-23.6l-13.018,11.392l-8.95-4.881l-3.254,8.952l-6.51,2.44l-16.27,16.272h-11.391l0.813,7.325l-4.881,7.322
		l-10.575,4.069l-5.694,2.438l-0.814,8.141l-4.066-1.627l-11.392,4.882l-5.696,7.323l-7.321,0.813l-3.255,3.254l-10.573-4.066
		l-9.764-11.393l5.694-3.254l8.136-5.699l4.88-11.391l6.509-4.067v-11.396l12.205-21.157l-7.323-16.275l0.813-4.067l17.9-12.205
		l5.695,5.695l9.76-1.628l1.627-7.324l-16.27-11.392l-8.137-2.441l-2.44-5.698l-4.069-0.813l2.441-4.066l-12.205-11.393
		l-4.882-4.069l5.695-5.696l-1.627-4.882l14.646-4.067l6.509,5.695l8.136-4.882l-0.813-3.256l4.881-2.439l13.829,4.066l1.627-5.698
		h3.255l5.694-7.322l4.882,7.322l11.392,4.886l4.878-2.439l8.137-13.836l6.51-0.813l3.255-4.881l8.95,0.813l8.948-10.582
		L245.846,704.418"/>
	
		<path id="Radkersburg" fill="#123456" stroke="#7B7979" stroke-width="0.5" stroke-linecap="round" stroke-linejoin="round" stroke-miterlimit="10" d="
		M721.781,923.32l10.574,2.439l0.814-7.324l8.948,2.443l-0.813,0.813l3.255-1.628l8.137,4.882l0.813-1.627l8.137,3.255l0.813,5.695
		l5.694,1.628l12.201-3.256l0.813,3.256l8.137-2.442l8.949,3.255l3.256-1.627l-0.814,24.412l2.441,9.767l4.068,6.51l8.131,2.44
		l4.069,11.395l-0.813,13.832l-8.946-4.067l-2.439-4.883l-6.511-4.067l-11.391-1.628l-11.392-8.953l-11.387-4.067l-14.646-0.813
		l-14.646,8.135l-10.574,4.072l-32.545-2.444V968.89l4.068-9.767l7.322-11.391l-0.813-1.627l-3.254-13.021l2.44-8.95l0.813-10.581
		l7.322,8.141L721.781,923.32"/>
	
		<path id="Voitsberg" fill="#123456" stroke="#7B7979" stroke-width="0.5" stroke-linecap="round" stroke-linejoin="round" stroke-miterlimit="10" d="
		M524.087,752.432l4.064,4.066l4.882-0.813l7.322,15.458l-2.439,3.259l1.627,4.882l-2.44,9.763l5.695,6.515l9.763,14.645
		l1.628-0.813l9.764,8.14l0.813,8.136l-0.813,6.511l2.44-4.068l0.813,4.882l-1.626,4.07l2.438,4.068l5.694,4.067l4.882-2.441
		l4.068,8.95l-4.068,5.7l5.695,4.067l-6.508,11.392l-13.829-8.951l-2.439,2.441h-7.323l-1.628,1.627l-13.832,4.883l-13.014-4.883
		l-3.255,11.395l-1.627,4.067h-1.626l-10.578,5.696l-15.458,3.254l-11.389-12.204l-8.136-20.344l-6.509-4.886l-13.019-3.256
		l-7.322-4.882l-12.201-9.764l-0.814-7.326l5.695,1.628l-4.068-4.881l4.883-0.814l5.691-13.021l9.764,5.699l2.44-5.699l-0.813-2.44
		l-0.814-10.576l8.136-8.954v-10.576l11.392-9.768l4.067-7.322l8.947-2.441l8.949-8.136l19.527,1.627L524.087,752.432"/>
	
		<path id="Weiz" fill="#123456" stroke="#7B7979" stroke-width="0.5" stroke-linecap="round" stroke-linejoin="round" stroke-miterlimit="10" d="
		M729.918,576.658l7.319,6.512l6.509-3.258l13.02-1.627l5.695,5.699v7.323l3.255,5.695l-5.696,10.581l-7.322,1.627l-7.322,4.068
		l-11.391-1.627l-3.252-1.627l-4.067,4.068l-6.509-5.695l-17.9,16.276l5.695,6.509l6.51,0.814l1.627,16.276l7.321,7.322v5.696
		l8.947,9.767l-14.642,10.577h-3.256l2.441,4.068l-4.882,11.395l0.813,3.254l-0.813,0.813l8.137,8.953v1.628l0.813,12.204
		l5.694,8.14l-4.882,0.813l3.254,2.44l-4.066,4.883l2.438,1.625l2.442,2.441l3.253,4.068l7.319,4.07l1.628-3.257l4.883,0.813
		l5.694,4.069l-0.813,4.068l5.694,4.882l0.813,5.695l9.764,13.836l4.883,13.021l-2.439,5.695l-13.02-16.276l4.068,14.648
		l-8.137,6.509l4.066,7.322h6.51l1.628,11.396l-3.255,5.694h-4.883l-1.626,3.255l-6.511-4.068l-0.813-5.694h-6.51l-2.439-1.627
		l-9.76,14.647l-5.695,0.813l-6.511-4.071l-13.019-2.44l0.814-8.136l-3.255-4.883h-6.509l-2.438-4.886l-3.255,1.631l-2.44-10.581
		v-0.813l4.882-6.509l-6.509-4.068v-0.816l8.136,4.071l0.814-8.14l-10.578-8.136L666.454,768.7l1.626-9.763l-0.813-0.813
		l-1.628,3.255l-4.881-5.695l-7.323-1.628h-6.506l-4.068,4.883l-13.018-8.953v4.884l-8.138-10.579l-2.44-10.576l8.95-7.326
		l4.882,0.813l4.067-0.813l-3.255-2.44l-4.882-0.813l-4.068-8.949l-6.508-4.883l0.813-8.14l7.322-10.577l-5.695-4.885l-7.323,2.443
		v-8.14l5.696-1.626l13.019,3.254l15.458-3.254l0.814-17.903l14.642-5.696V640.13l6.509-9.763l-3.254-3.254l13.019-5.698
		l3.254-3.255v-6.509l13.829-7.323l14.646-13.835l1.627-1.627l7.323-5.695L729.918,576.658"/>
</g>
<g id="Skala">
	<rect id="rect4459" x="874.767" y="151.941" fill="#111101" width="13.945" height="13.275"/>
	<text transform="matrix(1.0506 0 0 1 895.7649 163.4668)" font-family="'ArialMT'" font-size="14.4822">%legende1%</text>
	<rect id="rect4459-1" x="874.767" y="170.232" fill="#111102" width="13.945" height="13.278"/>
	<text transform="matrix(1.0506 0 0 1 895.7649 181.7578)" font-family="'ArialMT'" font-size="14.4822">%legende2%</text>
	<rect id="rect4459-2" x="874.767" y="188.523" fill="#111103" width="13.945" height="13.277"/>
	<text transform="matrix(1.0506 0 0 1 895.7649 200.0498)" font-family="'ArialMT'" font-size="14.4822">%legende3%</text>
	<rect id="rect4459-6" x="874.767" y="206.817" fill="#111104" width="13.945" height="13.275"/>
	<text transform="matrix(1.0506 0 0 1 895.7649 218.3438)" font-family="'ArialMT'" font-size="14.4822">%legende4%</text>
	<rect id="rect4459-29" x="874.767" y="225.106" fill="#111105" width="13.945" height="13.278"/>
	<text transform="matrix(1.0506 0 0 1 895.7649 236.6338)" font-family="'ArialMT'" font-size="14.4822">%legende5%</text>
	<rect id="rect4459-3" x="874.767" y="243.399" fill="#111106" width="13.945" height="13.278"/>
	<text transform="matrix(1.0506 0 0 1 895.7649 254.9258)" font-family="'ArialMT'" font-size="14.4822">%legende6%</text>
	<rect id="rect4459-8" x="874.767" y="261.692" fill="#111107" width="13.945" height="13.276"/>
	<text transform="matrix(1.0506 0 0 1 895.7649 273.2178)" font-family="'ArialMT'" font-size="14.4822">%legende7%</text>
	<rect id="rect4459-9" x="874.767" y="279.982" fill="#111108" width="13.945" height="13.276"/>
	<text transform="matrix(1.0506 0 0 1 895.7649 291.5098)" font-family="'ArialMT'" font-size="14.4822">%legende8%</text>
	<rect id="rect4459-18" x="874.767" y="298.273" fill="#111109" width="13.945" height="13.279"/>
	<text transform="matrix(1.0506 0 0 1 895.7649 309.8018)" font-family="'ArialMT'" font-size="14.4822">%legende9%</text>
	<rect id="rect4459-18-6" x="874.767" y="316.566" fill="#111110" width="13.945" height="13.278"/>
	<text transform="matrix(1.0506 0 0 1 895.7649 328.0918)" font-family="'ArialMT'" font-size="14.4822">%legende10%</text>
</g>
<g id="Beschreibungen">
	<text id="Titel2" transform="matrix(1 0 0 1 27.4998 115.7832)" font-family="'ArialMT'" font-size="30">%titel2%</text>
	<text id="Titel1" transform="matrix(0.6758 0 0 1 23.4768 62.1689)" font-family="'ArialMT'" font-size="61.9146">%titel1%</text>
	<text transform="matrix(1 0 0 1 211.969 593.5811)" font-family="'ArialMT'" font-size="14.2709">Visualisierung erstellt mit</text>
	<text transform="matrix(1 0 0 1 248.759 610.7061)" font-family="'ArialMT'" font-size="14.2709">DataMaps.eu</text>
	<text transform="matrix(1 0 0 1 223.8635 627.8311)" font-family="'ArialMT'" font-size="14.2709">provided by open3.at</text>
	<g id="open3-logo">
		<path fill="#007CC1" d="M301.561,657.77c0-3.041-1.449-4.771-3.251-5.729c1.661-0.884,2.897-2.438,2.897-5.16
			c0-4.234-3.224-7.211-7.668-7.211c-4.241,0-7.604,2.688-7.704,7.178h4.594c0.106-1.904,1.378-3.035,3.11-3.035
			c1.653,0,3.066,1.096,3.066,3.217c0,1.767-0.954,3.145-3.181,3.145h-0.671v3.994h0.671c2.262,0,3.535,1.378,3.535,3.464
			c0,2.266-1.414,3.498-3.396,3.498c-1.802,0-3.354-1.021-3.428-3.286h-4.59c0.067,5.271,3.922,7.421,8.021,7.421
			C297.887,665.26,301.561,662.787,301.561,657.77z"/>
		<path fill="#9C9D9F" d="M219.5,652.925c0,5.833-2.326,9.688-6.076,9.688c-3.611,0-6.284-3.854-6.284-10.381
			c0-5.694,2.152-9.55,6.076-9.55C217.034,642.682,219.5,646.57,219.5,652.925z M224.014,652.648
			c0-7.813-4.479-12.646-10.729-12.646s-10.692,4.829-10.692,12.646c0,8.332,4.756,12.914,10.688,12.914
			C219.223,665.563,224.014,660.98,224.014,652.648z"/>
		<path fill="#9C9D9F" d="M239.13,655.771c0,4.375-1.84,7.32-4.757,7.32c-1.354,0-2.152-0.416-2.708-0.861v-11.526
			c0-1.251,0.86-1.91,2.604-1.91C236.665,648.793,239.13,651.016,239.13,655.771z M243.156,655.564c0-4.86-2.354-8.959-8.776-8.959
			c-2.188,0-4.409,0.557-5.354,1.182c-0.972,0.66-1.313,1.283-1.313,2.535v20.104c0,0.417,0.208,0.597,0.625,0.597h2.735
			c0.418,0,0.598-0.18,0.598-0.597v-5.903c0.443,0.313,1.667,0.938,3.396,0.938C240.519,665.458,243.156,660.391,243.156,655.564z"
			/>
		<path fill="#9C9D9F" d="M257.352,652.994l-7.534,1.285c0.146-2.709,1.319-5.486,4.104-5.486
			C256.38,648.793,257.248,650.842,257.352,652.994z M261.24,659.626c0-0.451-0.347-0.868-0.798-0.868
			c-0.417,0-0.729,0.313-0.896,0.625c-0.729,1.284-2.188,2.951-4.409,2.951c-3.333,0-4.938-2.813-5.146-6.076l10.104-1.666
			c0.729-0.104,1.042-0.348,1.042-1.104c0-3.511-2.465-6.875-6.805-6.875c-4.14,0-7.951,2.882-7.951,9.34
			c0,6.806,3.75,9.549,7.951,9.549C258.775,665.494,261.24,661.709,261.24,659.626z"/>
		<path fill="#9C9D9F" d="M279.739,664.452v-12.5c0-4.166-3.75-5.347-7.43-5.347c-2.569,0-4.687,0.479-5.833,1.041
			c-1.042,0.521-1.389,1.008-1.389,2.146v14.651c0,0.416,0.208,0.591,0.625,0.591h2.743c0.416,0,0.625-0.175,0.625-0.591v-13.399
			c0-1.105,0.271-2.291,3.09-2.291c2.771,0,3.604,1.666,3.604,3.367v12.325c0,0.416,0.182,0.591,0.598,0.591h2.771
			C279.565,665.042,279.739,664.867,279.739,664.452z"/>
		<path fill="#007CC1" d="M307.709,663.479c0-2.474-3.481-2.002-3.481-3.61c0-0.688,0.455-1.104,1.169-1.104
			c0.702,0,1,0.48,1.169,0.857c0.091,0.195,0.247,0.363,0.481,0.363c0.285,0,0.494-0.156,0.494-0.479
			c0-0.438-0.645-1.378-2.117-1.378c-1.299,0-2.234,0.688-2.234,1.871c0,2.246,3.442,1.779,3.442,3.597
			c0,0.624-0.416,1.132-1.222,1.132c-0.76,0-1.176-0.625-1.345-1.063c-0.071-0.222-0.229-0.391-0.519-0.391
			c-0.313,0-0.521,0.188-0.521,0.52c0,0.546,0.852,1.638,2.345,1.638C306.878,665.427,307.709,664.595,307.709,663.479z"/>
		<path fill="#007CC1" d="M314.28,661.829c0,1.7-0.714,2.87-1.936,2.87c-1.169,0-2.026-1.17-2.026-3.092
			c0-1.649,0.702-2.813,1.961-2.813C313.5,658.802,314.28,659.972,314.28,661.829z M315.423,661.736c0-2.223-1.273-3.61-3.117-3.61
			c-1.845,0-3.131,1.39-3.131,3.61c0,2.377,1.377,3.688,3.131,3.688S315.423,664.113,315.423,661.736z"/>
		<path fill="#007CC1" d="M322.407,664.1c0-0.172-0.09-0.271-0.239-0.271c-0.098,0-0.168,0.052-0.268,0.129
			c-0.286,0.286-0.766,0.676-1.604,0.676c-1.325,0-2.208-1.299-2.208-3.104c0-1.754,0.793-2.752,1.923-2.752
			c0.947,0,1.271,0.597,1.428,0.922c0.091,0.182,0.234,0.362,0.481,0.362c0.286,0,0.485-0.17,0.485-0.479
			c0-0.469-0.752-1.455-2.338-1.455c-1.979,0-3.109,1.648-3.109,3.586c0,2.019,1.039,3.715,3.188,3.715
			C321.513,665.427,322.407,664.504,322.407,664.1z"/>
		<path fill="#007CC1" d="M325.163,665.128v-6.702c0-0.104-0.059-0.149-0.155-0.149h-0.779c-0.104,0-0.156,0.052-0.156,0.149v6.702
			c0,0.104,0.06,0.155,0.156,0.155h0.779C325.112,665.283,325.163,665.23,325.163,665.128z"/>
		<path fill="#007CC1" d="M331.189,665.128v-0.403c0-0.104-0.052-0.149-0.156-0.149h-2.604v-2.586h2.222
			c0.104,0,0.156-0.056,0.156-0.154v-0.377c0-0.104-0.052-0.156-0.156-0.156h-2.222v-2.313h2.604c0.104,0,0.156-0.056,0.156-0.155
			v-0.405c0-0.104-0.052-0.149-0.156-0.149h-3.546c-0.104,0-0.148,0.052-0.148,0.149v6.702c0,0.104,0.052,0.156,0.148,0.156h3.546
			C331.137,665.283,331.189,665.23,331.189,665.128z"/>
		<path fill="#007CC1" d="M337.006,658.828v-0.402c0-0.104-0.065-0.149-0.169-0.149h-4.481c-0.104,0-0.168,0.052-0.168,0.149v0.402
			c0,0.104,0.064,0.154,0.168,0.154h1.701v6.131c0,0.117,0.052,0.17,0.169,0.17h0.753c0.117,0,0.169-0.053,0.169-0.17v-6.131h1.688
			C336.941,658.984,337.006,658.932,337.006,658.828z"/>
		<path fill="#007CC1" d="M342.965,658.426c0-0.104-0.065-0.149-0.168-0.149h-0.585c-0.117,0-0.169,0.039-0.234,0.143l-1.559,2.779
			h-0.026l-1.52-2.779c-0.065-0.104-0.118-0.143-0.234-0.143h-0.792c-0.104,0-0.156,0.052-0.156,0.149
			c0,0.038,0.021,0.097,0.039,0.146l2.053,3.455v3.104c0,0.104,0.06,0.156,0.156,0.156h0.779c0.104,0,0.155-0.055,0.155-0.156
			v-3.104l2.053-3.455C342.951,658.529,342.965,658.464,342.965,658.426z"/>
		<path fill="#007CC1" d="M307.89,652.396c0,1.807-0.792,2.924-2.571,2.924c-0.338,0-0.637-0.039-0.806-0.065v-5.715
			c0.13-0.026,0.455-0.052,0.806-0.052C307.032,649.486,307.89,650.591,307.89,652.396z M309.021,652.408
			c0-2.154-1.182-3.571-3.767-3.571c-0.813,0-1.508,0.092-1.677,0.146c-0.137,0.039-0.154,0.104-0.154,0.221v6.44
			c0,0.112,0.021,0.185,0.154,0.222c0.183,0.054,1.001,0.144,1.677,0.144C307.839,656.007,309.021,654.67,309.021,652.408z"/>
		<path fill="#007CC1" d="M314.267,653.072h-2.234l0.779-2.195c0.208-0.585,0.324-1.271,0.324-1.271h0.025
			c0,0,0.13,0.688,0.339,1.271L314.267,653.072z M316.332,655.787c0-0.04-0.026-0.117-0.039-0.156l-2.521-6.559
			c-0.039-0.104-0.078-0.156-0.188-0.156h-0.722c-0.13,0-0.169,0.052-0.208,0.156l-2.507,6.559
			c-0.021,0.053-0.039,0.116-0.039,0.156c0,0.091,0.06,0.143,0.156,0.143h0.61c0.108,0,0.168-0.052,0.207-0.149l0.733-2.078h2.649
			l0.728,2.078c0.039,0.104,0.099,0.149,0.195,0.149h0.778C316.28,655.93,316.332,655.878,316.332,655.787z"/>
		<path fill="#007CC1" d="M321.448,649.475v-0.401c0-0.104-0.063-0.155-0.169-0.155H316.8c-0.104,0-0.169,0.052-0.169,0.155v0.401
			c0,0.104,0.063,0.15,0.169,0.15h1.7v6.131c0,0.117,0.053,0.169,0.17,0.169h0.753c0.116,0,0.169-0.052,0.169-0.169v-6.13h1.688
			C321.383,649.63,321.448,649.578,321.448,649.475z"/>
		<path fill="#007CC1" d="M325.901,653.072h-2.229l0.771-2.195c0.208-0.585,0.325-1.271,0.325-1.271h0.026
			c0,0,0.13,0.688,0.338,1.271L325.901,653.072z M327.966,655.787c0-0.04-0.026-0.117-0.039-0.156l-2.521-6.559
			c-0.04-0.104-0.071-0.156-0.188-0.156h-0.714c-0.138,0-0.169,0.052-0.208,0.156l-2.515,6.559
			c-0.021,0.053-0.039,0.116-0.039,0.156c0,0.091,0.06,0.143,0.156,0.143h0.61c0.117,0,0.169-0.052,0.208-0.149l0.739-2.078h2.646
			l0.729,2.078c0.039,0.104,0.092,0.149,0.188,0.149h0.779C327.913,655.93,327.966,655.878,327.966,655.787z"/>
		<path fill="#007CC1" d="M308.916,645.68v-2.624c0-0.104-0.077-0.15-0.188-0.15h-2.14c-0.104,0-0.155,0.054-0.155,0.15v0.354
			c0,0.104,0.051,0.168,0.155,0.168h1.299v1.715c0,0.416-0.624,0.701-1.467,0.701c-1.224,0-2.146-1.26-2.146-3.117
			c0-1.688,0.753-2.807,2.079-2.807c1.026,0,1.402,0.604,1.563,0.923c0.092,0.196,0.222,0.352,0.479,0.352
			c0.313,0,0.481-0.183,0.481-0.479c0-0.431-0.65-1.441-2.437-1.441c-2.021,0-3.312,1.469-3.312,3.611
			c0,2.312,1.376,3.688,3.337,3.688C307.865,646.719,308.916,646.188,308.916,645.68z"/>
		<path fill="#007CC1" d="M315.798,643.121c0,1.701-0.714,2.869-1.938,2.869c-1.169,0-2.021-1.168-2.021-3.092
			c0-1.648,0.7-2.811,1.961-2.811C315.019,640.095,315.798,641.264,315.798,643.121z M316.941,643.029
			c0-2.222-1.271-3.61-3.118-3.61c-1.844,0-3.13,1.396-3.13,3.61c0,2.377,1.376,3.688,3.13,3.688
			C315.576,646.719,316.941,645.406,316.941,643.029z"/>
		<path fill="#007CC1" d="M323.875,639.718c0-0.104-0.064-0.148-0.168-0.148h-0.663c-0.117,0-0.169,0.052-0.208,0.148l-1.645,4.729
			c-0.143,0.43-0.24,0.947-0.24,0.947h-0.025c0,0-0.078-0.521-0.222-0.947l-1.609-4.729c-0.04-0.104-0.104-0.148-0.208-0.148h-0.832
			c-0.104,0-0.156,0.052-0.156,0.148c0,0.039,0.021,0.104,0.04,0.156l2.455,6.546c0.039,0.104,0.091,0.156,0.208,0.156h0.545
			c0.13,0,0.188-0.053,0.229-0.156l2.468-6.546C323.863,639.822,323.875,639.757,323.875,639.718z"/>
		<path fill="#007CC1" d="M329.108,646.42v-0.396c0-0.104-0.052-0.155-0.148-0.155h-2.611v-2.587h2.221
			c0.104,0,0.156-0.054,0.156-0.154v-0.377c0-0.104-0.052-0.156-0.156-0.156h-2.221v-2.313h2.609c0.104,0,0.15-0.058,0.15-0.155
			v-0.402c0-0.104-0.052-0.148-0.15-0.148h-3.551c-0.104,0-0.148,0.052-0.148,0.148v6.702c0,0.104,0.052,0.156,0.148,0.156h3.551
			C329.056,646.576,329.108,646.525,329.108,646.42z"/>
		<path fill="#007CC1" d="M334.248,641.563c0,0.854-0.623,1.431-1.791,1.431c-0.268,0-0.476,0-0.586-0.015v-2.829
			c0.17-0.027,0.416-0.065,0.832-0.065C333.781,640.082,334.248,640.602,334.248,641.563z M335.625,646.42
			c0-0.038-0.025-0.09-0.058-0.143l-1.144-2.093c-0.208-0.395-0.56-0.739-0.806-0.855v-0.025c0.832-0.189,1.698-0.793,1.698-1.813
			c0-1.188-0.736-2-2.605-2c-0.847,0-1.547,0.091-1.741,0.143c-0.13,0.039-0.156,0.091-0.156,0.208v6.585
			c0,0.104,0.059,0.156,0.156,0.156h0.739c0.104,0,0.156-0.053,0.156-0.156v-2.922h0.469c0.467,0,0.791,0.416,0.974,0.779
			l1.092,2.17c0.039,0.076,0.137,0.129,0.267,0.129h0.806C335.573,646.576,335.625,646.525,335.625,646.42z"/>
		<path fill="#007CC1" d="M342.948,646.42v-6.702c0-0.104-0.052-0.148-0.148-0.148h-0.563c-0.104,0-0.148,0.052-0.148,0.148v4.248
			c0,0.584,0.07,1.272,0.07,1.272h-0.036c0,0-0.302-0.644-0.64-1.131l-3-4.396c-0.063-0.104-0.117-0.149-0.229-0.149h-0.853
			c-0.104,0-0.148,0.052-0.148,0.149v6.702c0,0.104,0.053,0.156,0.148,0.156h0.571c0.104,0,0.156-0.054,0.156-0.156v-4.585
			c0-0.521-0.065-1.208-0.065-1.208h0.026c0,0,0.299,0.637,0.604,1.104l3.195,4.688c0.064,0.104,0.104,0.155,0.233,0.155h0.662
			C342.897,646.576,342.948,646.525,342.948,646.42z"/>
		<path fill="#007CC1" d="M352.48,646.447c0-0.041-0.675-6.729-0.675-6.729c-0.014-0.104-0.052-0.148-0.155-0.148h-0.845
			c-0.104,0-0.156,0.063-0.195,0.148l-1.701,4.521c-0.169,0.457-0.271,1.016-0.271,1.016h-0.026c0,0-0.111-0.559-0.286-1.016
			l-1.688-4.521c-0.039-0.091-0.091-0.148-0.195-0.148h-0.854c-0.104,0-0.146,0.052-0.156,0.148c0,0-0.675,6.688-0.675,6.729
			c0,0.09,0.063,0.129,0.153,0.129h0.639c0.104,0,0.143-0.053,0.153-0.156l0.358-4.546c0.04-0.56,0.04-1.338,0.04-1.338h0.026
			c0,0,0.182,0.778,0.39,1.338l1.688,4.563c0.039,0.104,0.077,0.143,0.188,0.143h0.325c0.117,0,0.156-0.039,0.193-0.143l1.688-4.563
			c0.208-0.571,0.396-1.338,0.396-1.338h0.021c0,0,0,0.778,0.039,1.338l0.364,4.546c0.013,0.104,0.052,0.156,0.155,0.156h0.754
			C352.442,646.576,352.48,646.537,352.48,646.447z"/>
		<path fill="#007CC1" d="M358.144,646.42v-0.396c0-0.104-0.052-0.155-0.156-0.155h-2.604v-2.587h2.221
			c0.104,0,0.156-0.054,0.156-0.154v-0.377c0-0.104-0.052-0.156-0.156-0.156h-2.221v-2.313h2.604c0.104,0,0.156-0.058,0.156-0.155
			v-0.402c0-0.104-0.052-0.148-0.156-0.148h-3.547c-0.104,0-0.154,0.052-0.154,0.148v6.702c0,0.104,0.058,0.156,0.154,0.156h3.547
			C358.092,646.576,358.144,646.525,358.144,646.42z"/>
		<path fill="#007CC1" d="M365.531,646.42v-6.702c0-0.104-0.052-0.148-0.148-0.148h-0.563c-0.104,0-0.148,0.052-0.148,0.148v4.248
			c0,0.584,0.071,1.272,0.071,1.272h-0.037c0,0-0.302-0.644-0.639-1.131l-3-4.396c-0.063-0.104-0.117-0.149-0.229-0.149h-0.852
			c-0.104,0-0.148,0.052-0.148,0.149v6.702c0,0.104,0.052,0.156,0.148,0.156h0.572c0.104,0,0.155-0.054,0.155-0.156v-4.585
			c0-0.521-0.065-1.208-0.065-1.208h0.026c0,0,0.299,0.637,0.609,1.104l3.188,4.688c0.064,0.104,0.104,0.155,0.234,0.155h0.662
			C365.48,646.576,365.531,646.525,365.531,646.42z"/>
		<path fill="#007CC1" d="M371.765,640.12v-0.402c0-0.104-0.065-0.148-0.169-0.148h-4.481c-0.104,0-0.169,0.052-0.169,0.148v0.402
			c0,0.104,0.065,0.155,0.169,0.155h1.702v6.131c0,0.117,0.059,0.17,0.168,0.17h0.753c0.117,0,0.169-0.053,0.169-0.17v-6.131h1.688
			C371.698,640.275,371.765,640.225,371.765,640.12z"/>
	</g>
</g>
<text transform="matrix(1 0 0 1 875.5002 407.5)" font-family="'ArialMT'" font-size="12">1. Bruck an der Mur</text>
<text transform="matrix(1 0 0 1 875.5002 421.9004)" font-family="'ArialMT'" font-size="12">2. Deutschlandsberg</text>
<text transform="matrix(1 0 0 1 875.5002 436.2998)" font-family="'ArialMT'" font-size="12">3. Feldbach</text>
<text transform="matrix(1 0 0 1 875.5002 450.7002)" font-family="'ArialMT'" font-size="12">4. F端rstenfeld</text>
<text transform="matrix(1 0 0 1 875.5002 465.0996)" font-family="'ArialMT'" font-size="12">5. Graz</text>
<text transform="matrix(1 0 0 1 875.5002 479.5)" font-family="'ArialMT'" font-size="12">6. Graz Umgebung</text>
<text transform="matrix(1 0 0 1 875.5002 493.9004)" font-family="'ArialMT'" font-size="12">7. Hartberg</text>
<text transform="matrix(1 0 0 1 875.5002 508.2998)" font-family="'ArialMT'" font-size="12">8. Judenburg</text>
<text transform="matrix(1 0 0 1 875.5002 522.7002)" font-family="'ArialMT'" font-size="12">9. Knittelfeld</text>
<text transform="matrix(1 0 0 1 875.5002 537.0996)" font-family="'ArialMT'" font-size="12">10. Leibnitz</text>
<text transform="matrix(1 0 0 1 875.5002 551.5)" font-family="'ArialMT'" font-size="12">11. Leoben</text>
<text transform="matrix(1 0 0 1 875.5002 565.9004)" font-family="'ArialMT'" font-size="12">12. Liezen</text>
<text transform="matrix(1 0 0 1 875.5002 580.2998)" font-family="'ArialMT'" font-size="12">13. M端rzzuschlag</text>
<text transform="matrix(1 0 0 1 875.5002 594.7002)" font-family="'ArialMT'" font-size="12">14. Murau</text>
<text transform="matrix(1 0 0 1 875.5002 609.0996)" font-family="'ArialMT'" font-size="12">15. Radkersburg</text>
<text transform="matrix(1 0 0 1 875.5002 623.5)" font-family="'ArialMT'" font-size="12">16. Voitsberg</text>
<text transform="matrix(1 0 0 1 875.5002 637.9004)" font-family="'ArialMT'" font-size="12">17. Weiz</text>
<g id="Kreise">
	<g id="Kreis17" transform="translate(-1099.4425,-1468.408)">
		
			<path id="path3841-8-9-2-0-6-5-2_1_" sodipodi:type="arc" sodipodi:cx="328.29956" sodipodi:ry="67.680222" sodipodi:cy="1106.1483" sodipodi:rx="67.680222" fill="#FFFFFF" stroke="#000000" d="
			M1787.709,1860.901c0,5.425-4.403,9.827-9.831,9.827s-9.826-4.403-9.826-9.827c0-5.429,4.398-9.827,9.826-9.827
			C1783.31,1851.075,1787.709,1855.472,1787.709,1860.901z"/>
		<text transform="matrix(1 0 0 1 1770.6371 1865.2458)" font-family="'ArialMT'" font-size="12.0563">17</text>
	</g>
	<g id="Kreis16" transform="translate(-1099.4425,-1468.408)">
		
			<path id="path3841-8-9-2-0-6-5-2_10_" sodipodi:type="arc" sodipodi:cx="328.29956" sodipodi:ry="67.680222" sodipodi:cy="1106.1483" sodipodi:rx="67.680222" fill="#FFFFFF" stroke="#000000" d="
			M1614.718,1971.396c0,5.425-4.403,9.827-9.831,9.827c-5.429,0-9.827-4.403-9.827-9.827c0-5.43,4.398-9.827,9.827-9.827
			C1610.318,1961.57,1614.718,1965.969,1614.718,1971.396z"/>
		<text transform="matrix(1 0 0 1 1597.6439 1975.741)" font-family="'ArialMT'" font-size="12.0563">16</text>
	</g>
	<g id="Kreis15" transform="translate(-1099.4425,-1468.408)">
		
			<path id="path3841-8-9-2-0-6-5-2_11_" sodipodi:type="arc" sodipodi:cx="328.29956" sodipodi:ry="67.680222" sodipodi:cy="1106.1483" sodipodi:rx="67.680222" fill="#FFFFFF" stroke="#000000" d="
			M1845.875,2096.935c0,5.427-4.399,9.826-9.833,9.826c-5.427,0-9.826-4.401-9.826-9.826c0-5.426,4.403-9.825,9.826-9.825
			C1841.476,2087.11,1845.875,2091.508,1845.875,2096.935z"/>
		<text transform="matrix(1 0 0 1 1828.8031 2101.2791)" font-family="'ArialMT'" font-size="12.0563">15</text>
	</g>
	<g id="Kreis14" transform="translate(-1099.4425,-1468.408)">
		
			<path id="path3841-8-9-2-0-6-5-2_12_" sodipodi:type="arc" sodipodi:cx="328.29956" sodipodi:ry="67.680222" sodipodi:cy="1106.1483" sodipodi:rx="67.680222" fill="#FFFFFF" stroke="#000000" d="
			M1332.75,1926.681c0,5.426-4.399,9.828-9.831,9.828c-5.428,0-9.827-4.403-9.827-9.828c0-5.431,4.398-9.828,9.827-9.828
			C1328.35,1916.853,1332.75,1921.252,1332.75,1926.681z"/>
		<text transform="matrix(1 0 0 1 1315.6771 1931.0222)" font-family="'ArialMT'" font-size="12.0563">14</text>
	</g>
	<g id="Kreis13" transform="translate(-1099.4425,-1468.408)">
		
			<path id="path3841-8-9-2-0-6-5-2_13_" sodipodi:type="arc" sodipodi:cx="328.29956" sodipodi:ry="67.680222" sodipodi:cy="1106.1483" sodipodi:rx="67.680222" fill="#FFFFFF" stroke="#000000" d="
			M1763.773,1717.535c0,5.424-4.404,9.826-9.832,9.826c-5.426,0-9.826-4.403-9.826-9.826c0-5.43,4.398-9.828,9.826-9.828
			C1759.371,1707.707,1763.773,1712.105,1763.773,1717.535z"/>
		<text transform="matrix(1 0 0 1 1746.6996 1721.8757)" font-family="'ArialMT'" font-size="12.0563">13</text>
	</g>
	<g id="Kreis12" transform="translate(-1099.4425,-1468.408)">
		
			<path id="path3841-8-9-2-0-6-5-2_14_" sodipodi:type="arc" sodipodi:cx="328.29956" sodipodi:ry="67.680222" sodipodi:cy="1106.1483" sodipodi:rx="67.680222" fill="#FFFFFF" stroke="#000000" d="
			M1280.355,1784.607c0,5.425-4.404,9.826-9.833,9.826c-5.427,0-9.826-4.403-9.826-9.826c0-5.43,4.399-9.827,9.826-9.827
			C1275.952,1774.78,1280.355,1779.177,1280.355,1784.607z"/>
		<text transform="matrix(1 0 0 1 1263.2787 1788.947)" font-family="'ArialMT'" font-size="12.0563">12</text>
	</g>
	<g id="Kreis11" transform="translate(-1099.4425,-1468.408)">
		
			<path id="path3841-8-9-2-0-6-5-2_3_" sodipodi:type="arc" sodipodi:cx="328.29956" sodipodi:ry="67.680222" sodipodi:cy="1106.1483" sodipodi:rx="67.680222" fill="#FFFFFF" stroke="#000000" d="
			M1556.536,1789.5c0,5.427-4.399,9.826-9.829,9.826c-5.427,0-9.829-4.401-9.829-9.826c0-5.426,4.399-9.829,9.829-9.829
			C1552.141,1779.671,1556.536,1784.071,1556.536,1789.5z"/>
		<text transform="matrix(1 0 0 1 1540.0824 1793.8435)" font-family="'ArialMT'" font-size="12.0563">11</text>
	</g>
	<g id="Kreis10" transform="translate(-1099.4425,-1468.408)">
		
			<path id="path3841-8-9-2-0-6-5-2_2_" sodipodi:type="arc" sodipodi:cx="328.29956" sodipodi:ry="67.680222" sodipodi:cy="1106.1483" sodipodi:rx="67.680222" fill="#FFFFFF" stroke="#000000" d="
			M1763.176,2097.967c0,5.425-4.399,9.826-9.829,9.826c-5.426,0-9.828-4.402-9.828-9.826c0-5.43,4.402-9.83,9.828-9.83
			C1758.78,2088.136,1763.176,2092.537,1763.176,2097.967z"/>
		<text transform="matrix(1 0 0 1 1746.4115 2102.3083)" font-family="'ArialMT'" font-size="12.0563">10</text>
	</g>
	<g id="Kreis09" transform="translate(-1099.4425,-1468.408)">
		
			<path id="path3841-8-9-2-0-6-5-2_23_" sodipodi:type="arc" sodipodi:cx="328.29956" sodipodi:ry="67.680222" sodipodi:cy="1106.1483" sodipodi:rx="67.680222" fill="#FFFFFF" stroke="#000000" d="
			M1534.098,1876.465c0,5.424-4.399,9.827-9.832,9.827c-5.427,0-9.827-4.403-9.827-9.827c0-5.43,4.4-9.826,9.827-9.826
			C1529.698,1866.636,1534.098,1871.035,1534.098,1876.465z"/>
		<text transform="matrix(1 0 0 1 1521.0365 1880.8064)" font-family="'ArialMT'" font-size="12.0563">9</text>
	</g>
	<g id="Kreis08" transform="translate(-1099.4425,-1468.408)">
		
			<path id="path3841-8-9-2-0-6-5-2_22_" sodipodi:type="arc" sodipodi:cx="328.29956" sodipodi:ry="67.680222" sodipodi:cy="1106.1483" sodipodi:rx="67.680222" fill="#FFFFFF" stroke="#000000" d="
			M1430.883,1891.219c0,5.428-4.4,9.826-9.831,9.826c-5.428,0-9.827-4.401-9.827-9.826c0-5.426,4.399-9.819,9.827-9.819
			C1426.486,1881.392,1430.883,1885.789,1430.883,1891.219z"/>
		<text transform="matrix(1 0 0 1 1417.8217 1895.5603)" font-family="'ArialMT'" font-size="12.0563">8</text>
	</g>
	<g id="Kreis07" transform="translate(-1099.4425,-1468.408)">
		
			<path id="path3841-8-9-2-0-6-5-2_21_" sodipodi:type="arc" sodipodi:cx="328.29956" sodipodi:ry="67.680222" sodipodi:cy="1106.1483" sodipodi:rx="67.680222" fill="#FFFFFF" stroke="#000000" d="
			M1877.73,1840.426c0,5.424-4.398,9.826-9.831,9.826c-5.427,0-9.827-4.403-9.827-9.826c0-5.431,4.404-9.828,9.827-9.828
			C1873.33,1830.597,1877.73,1834.995,1877.73,1840.426z"/>
		<text transform="matrix(1 0 0 1 1864.6693 1844.7654)" font-family="'ArialMT'" font-size="12.0563">7</text>
	</g>
	<g id="Kreis06" transform="translate(-1099.4425,-1468.408)">
		
			<path id="path3841-8-9-2-0-6-5-2_20_" sodipodi:type="arc" sodipodi:cx="328.29956" sodipodi:ry="67.680222" sodipodi:cy="1106.1483" sodipodi:rx="67.680222" fill="#FFFFFF" stroke="#000000" d="
			M1687.864,1898.166c0,5.426-4.399,9.828-9.832,9.828c-5.427,0-9.827-4.402-9.827-9.828c0-5.429,4.4-9.826,9.827-9.826
			C1683.464,1888.34,1687.864,1892.737,1687.864,1898.166z"/>
		<text transform="matrix(1 0 0 1 1674.8021 1902.5076)" font-family="'ArialMT'" font-size="12.0563">6</text>
	</g>
	<g id="Kreis05" transform="translate(-1099.4425,-1468.408)">
		
			<path id="path3841-8-9-2-0-6-5-2_19_" sodipodi:type="arc" sodipodi:cx="328.29956" sodipodi:ry="67.680222" sodipodi:cy="1106.1483" sodipodi:rx="67.680222" fill="#FFFFFF" stroke="#000000" d="
			M1731.693,1959.543c0,5.426-4.398,9.827-9.832,9.827c-5.426,0-9.826-4.403-9.826-9.827c0-5.43,4.4-9.827,9.826-9.827
			C1727.293,1949.716,1731.693,1954.113,1731.693,1959.543z"/>
		<text transform="matrix(1 0 0 1 1718.6332 1963.8845)" font-family="'ArialMT'" font-size="12.0563">5</text>
	</g>
	<g id="Kreis04" transform="translate(-1099.4425,-1468.408)">
		
			<path id="path3841-8-9-2-0-6-5-2_18_" sodipodi:type="arc" sodipodi:cx="328.29956" sodipodi:ry="67.680222" sodipodi:cy="1106.1483" sodipodi:rx="67.680222" fill="#FFFFFF" stroke="#000000" d="
			M1909.014,1946.939c0,5.426-4.399,9.828-9.831,9.828c-5.426,0-9.827-4.403-9.827-9.828c0-5.43,4.403-9.828,9.827-9.828
			C1904.615,1937.112,1909.014,1941.51,1909.014,1946.939z"/>
		<text transform="matrix(1 0 0 1 1895.9525 1950.9734)" font-family="'ArialMT'" font-size="12.0563">4</text>
	</g>
	<g id="Kreis03" transform="translate(-1099.4425,-1468.408)">
		
			<path id="path3841-8-9-2-0-6-5-2_15_" sodipodi:type="arc" sodipodi:cx="328.29956" sodipodi:ry="67.680222" sodipodi:cy="1106.1483" sodipodi:rx="67.680222" fill="#FFFFFF" stroke="#000000" d="
			M1860.898,2024.264c0,5.424-4.403,9.827-9.831,9.827c-5.429,0-9.828-4.403-9.828-9.827c0-5.429,4.399-9.827,9.828-9.827
			S1860.898,2018.836,1860.898,2024.264z"/>
		<text transform="matrix(1 0 0 1 1847.8353 2028.2976)" font-family="'ArialMT'" font-size="12.0563">3</text>
	</g>
	<g id="Kreis02" transform="translate(-1099.4425,-1468.408)">
		
			<path id="path3841-8-9-2-0-6-5-2_16_" sodipodi:type="arc" sodipodi:cx="328.29956" sodipodi:ry="67.680222" sodipodi:cy="1106.1483" sodipodi:rx="67.680222" fill="#FFFFFF" stroke="#000000" d="
			M1659.083,2085.234c0,5.427-4.403,9.826-9.833,9.826c-5.427,0-9.825-4.401-9.825-9.826c0-5.43,4.398-9.827,9.825-9.827
			C1654.68,2075.407,1659.083,2079.804,1659.083,2085.234z"/>
		<text transform="matrix(1 0 0 1 1646.0199 2089.2664)" font-family="'ArialMT'" font-size="12.0563">2</text>
	</g>
	<g id="Kreis01" transform="translate(-1099.4425,-1468.408)">
		
			<path id="path3841-8-9-2-0-6-5-2_17_" sodipodi:type="arc" sodipodi:cx="328.29956" sodipodi:ry="67.680222" sodipodi:cy="1106.1483" sodipodi:rx="67.680222" fill="#FFFFFF" stroke="#000000" d="
			M1660.865,1731.676c0,5.425-4.4,9.827-9.832,9.827c-5.427,0-9.828-4.403-9.828-9.827c0-5.43,4.4-9.828,9.828-9.828
			C1656.464,1721.847,1660.865,1726.246,1660.865,1731.676z"/>
		<text transform="matrix(1 0 0 1 1647.4945 1736.3259)" font-family="'ArialMT'" font-size="12.0563">1</text>
	</g>
</g>
</svg>
