<?xml version="1.0" encoding="utf-8"?>
<!-- Generator: Adobe Illustrator 13.0.2, SVG Export Plug-In . SVG Version: 6.00 Build 14948)  -->
<!DOCTYPE svg PUBLIC "-//W3C//DTD SVG 1.1//EN" "http://www.w3.org/Graphics/SVG/1.1/DTD/svg11.dtd">
<svg version="1.1" xmlns="http://www.w3.org/2000/svg" xmlns:xlink="http://www.w3.org/1999/xlink" x="0px" y="0px"
	 width="414.424px" height="673.408px" viewBox="183.977 130.547 414.424 673.408"
	 enable-background="new 183.977 130.547 414.424 673.408" xml:space="preserve">
<g id="Burgenland">
	<g id="Eisenstadt_x28_Stadt_x29_">
		
			<polygon id="Eisenstadt_1_" fill="#123456" stroke="#000000" stroke-width="0.1" stroke-linecap="round" stroke-linejoin="round" stroke-miterlimit="10" points="
			439.723,370.886 428.098,379.6 431.003,390.54 426.629,390.54 418.626,381.792 414.279,375.256 416.438,370.882 412.096,359.979 
			423.717,357.076 435.377,352.695 440.482,364.354 		"/>
	</g>
	<g id="Eisenstadt-Umgebung">
		
			<polygon id="Breitenbrunn_am_Neusiedler_See_2_" fill="#123456" stroke="#000000" stroke-width="0.1" stroke-linecap="round" stroke-linejoin="round" stroke-miterlimit="10" points="
			476.844,318.479 500.843,342.48 498.662,345.384 460.85,321.385 470.279,317.764 471.035,314.104 		"/>
		
			<polygon id="Donnerskirchen_2_" fill="#123456" stroke="#000000" stroke-width="0.1" stroke-linecap="round" stroke-linejoin="round" stroke-miterlimit="10" points="
			497.215,347.607 495.75,350.514 471.035,351.981 460.099,360.7 443.379,343.982 446.29,340.325 452.104,331.603 465.193,348.326 
					"/>
		
			<polygon id="Großhöflein_2_" fill="#123456" stroke="#000000" stroke-width="0.1" stroke-linecap="round" stroke-linejoin="round" stroke-miterlimit="10" points="
			418.631,381.795 412.102,386.883 406.256,383.979 403.346,386.883 403.346,386.166 410.627,367.984 409.906,360.701 
			412.099,359.986 416.441,370.889 414.283,375.263 		"/>
		
			<polygon id="Hornstein_2_" fill="#123456" stroke="#000000" stroke-width="0.1" stroke-linecap="round" stroke-linejoin="round" stroke-miterlimit="10" points="
			420.098,347.607 423.723,357.079 412.099,359.983 409.906,360.7 399.723,365.791 386.629,362.165 383.722,357.791 
			385.164,355.602 388.813,357.791 391.722,355.602 393.16,351.978 390.964,351.225 394.625,346.883 400.434,350.504 
			406.256,343.229 		"/>
		
			<polygon id="Klingenbach_2_" fill="#123456" stroke="#000000" stroke-width="0.1" stroke-linecap="round" stroke-linejoin="round" stroke-miterlimit="10" points="
			444.104,405.073 432.475,408.014 431.003,411.638 425.905,401.453 437.567,405.825 		"/>
		
			<polygon id="Leithaprodersdorf_2_" fill="#123456" stroke="#000000" stroke-width="0.1" stroke-linecap="round" stroke-linejoin="round" stroke-miterlimit="10" points="
			427.379,338.132 424.443,339.602 417.193,341.791 422.297,348.322 420.107,347.604 406.264,343.232 401.921,339.605 
			402.641,333.042 420.829,328.697 		"/>
		
			<polygon id="Loretto_2_" fill="#123456" stroke="#000000" stroke-width="0.1" stroke-linecap="round" stroke-linejoin="round" stroke-miterlimit="10" points="
			422.289,348.326 417.188,341.791 424.438,339.605 421.535,346.133 423.717,348.326 		"/>
		
			<polygon id="Mörbisch_am_See_2_" fill="#123456" stroke="#000000" stroke-width="0.1" stroke-linecap="round" stroke-linejoin="round" stroke-miterlimit="10" points="
			480.462,393.449 480.462,412.354 462.284,410.915 456.463,403.633 458.651,402.916 460.09,397.82 463.744,398.542 463.744,391.26 
					"/>
		
			<polygon id="Müllendorf_2_" fill="#123456" stroke="#000000" stroke-width="0.1" stroke-linecap="round" stroke-linejoin="round" stroke-miterlimit="10" points="
			403.346,386.166 401.16,382.541 396.818,373.79 399.723,365.791 409.898,360.7 410.619,367.981 		"/>
		
			<polygon id="Neufeld_an_der_Leitha_2_" fill="#123456" stroke="#000000" stroke-width="0.1" stroke-linecap="round" stroke-linejoin="round" stroke-miterlimit="10" points="
			386.635,362.162 382.254,367.978 374.258,362.162 383.722,357.791 		"/>
		
			<polygon id="Oggau_am_Neusiedler_See_2_" fill="#123456" stroke="#000000" stroke-width="0.1" stroke-linecap="round" stroke-linejoin="round" stroke-miterlimit="10" points="
			491.375,357.079 484.125,367.264 483.377,375.983 482.662,381.795 464.471,380.351 464.471,375.983 459.375,376.694 
			457.195,372.355 460.094,370.167 457.906,363.607 460.094,360.701 471.035,351.984 495.746,350.518 		"/>
		
			<polygon id="Oslip_2_" fill="#123456" stroke="#000000" stroke-width="0.1" stroke-linecap="round" stroke-linejoin="round" stroke-miterlimit="10" points="
			457.197,372.355 459.378,376.694 457.197,378.888 455.752,381.795 447.76,377.453 444.816,378.888 439.723,370.886 
			440.475,364.354 435.374,352.695 436.813,351.978 439.002,351.225 447.006,369.438 		"/>
		
			<polygon id="Purbach_am_Neusiedler_See_2_" fill="#123456" stroke="#000000" stroke-width="0.1" stroke-linecap="round" stroke-linejoin="round" stroke-miterlimit="10" points="
			460.85,321.42 498.662,345.418 497.215,347.607 465.187,348.326 452.099,331.603 454.285,326.518 459.378,319.952 		"/>
		
			<polygon id="Sankt_Margarethen_im_Burgenland_2_" fill="#123456" stroke="#000000" stroke-width="0.1" stroke-linecap="round" stroke-linejoin="round" stroke-miterlimit="10" points="
			457.197,378.888 463.748,391.26 463.748,398.542 460.102,397.82 458.663,402.916 456.471,403.633 452.822,404.355 
			450.662,394.886 439.726,393.449 438.295,389.791 444.816,378.888 447.76,377.453 455.752,381.795 		"/>
		
			<polygon id="Schützen_am_Gebirge_2_" fill="#123456" stroke="#000000" stroke-width="0.1" stroke-linecap="round" stroke-linejoin="round" stroke-miterlimit="10" points="
			460.094,360.7 457.906,363.604 460.094,370.167 457.195,372.355 447.006,369.451 439.005,351.235 443.376,343.985 		"/>
		
			<polygon id="Siegendorf_2_" fill="#123456" stroke="#000000" stroke-width="0.1" stroke-linecap="round" stroke-linejoin="round" stroke-miterlimit="10" points="
			452.822,404.352 444.1,405.07 437.564,405.821 425.905,401.449 422.286,396.353 426.629,390.54 430.997,390.54 438.286,389.791 
			439.719,393.449 450.659,394.89 		"/>
		
			<polygon id="Steinbrunn_2_" fill="#123456" stroke="#000000" stroke-width="0.1" stroke-linecap="round" stroke-linejoin="round" stroke-miterlimit="10" points="
			399.727,365.791 396.826,373.79 401.17,382.541 385.888,375.983 382.979,378.169 381.545,376.699 385.891,372.355 
			382.262,367.984 386.641,362.168 		"/>
		
			<polygon id="Stotzing_2_" fill="#123456" stroke="#000000" stroke-width="0.1" stroke-linecap="round" stroke-linejoin="round" stroke-miterlimit="10" points="
			436.818,351.978 435.377,352.695 423.717,357.076 420.094,347.604 422.286,348.322 423.717,348.322 421.531,346.133 
			424.44,339.605 427.375,338.135 		"/>
		
			<polygon id="Trausdorf_an_der_Wulka_2_" fill="#123456" stroke="#000000" stroke-width="0.1" stroke-linecap="round" stroke-linejoin="round" stroke-miterlimit="10" points="
			444.813,378.888 438.291,389.791 431.003,390.543 428.102,379.603 439.726,370.889 		"/>
		
			<polygon id="Wimpassing_an_der_Leitha_2_" fill="#123456" stroke="#000000" stroke-width="0.1" stroke-linecap="round" stroke-linejoin="round" stroke-miterlimit="10" points="
			406.256,343.237 400.441,350.514 394.625,346.893 395.346,340.328 402.627,333.05 401.914,339.608 		"/>
		
			<polygon id="Wulkaprodersdorf_2_" fill="#123456" stroke="#000000" stroke-width="0.1" stroke-linecap="round" stroke-linejoin="round" stroke-miterlimit="10" points="
			426.633,390.543 422.289,396.356 419.348,397.072 413.543,391.982 408.441,393.449 403.341,387.636 403.341,386.883 
			406.25,383.979 412.099,386.883 418.626,381.795 		"/>
		
			<polygon id="Zagersdorf_2_" fill="#123456" stroke="#000000" stroke-width="0.1" stroke-linecap="round" stroke-linejoin="round" stroke-miterlimit="10" points="
			425.905,401.449 431.003,411.633 429.533,413.103 424.443,410.91 417.914,403.628 419.348,397.065 422.289,396.35 		"/>
		
			<polygon id="Zillingtal_2_" fill="#123456" stroke="#000000" stroke-width="0.1" stroke-linecap="round" stroke-linejoin="round" stroke-miterlimit="10" points="
			401.164,382.544 403.351,386.169 403.351,387.643 400.445,389.078 399.009,389.078 390.978,389.796 379.35,380.357 
			382.973,378.174 385.88,375.986 		"/>
	</g>
	<g id="Güssing">
		
			<polygon id="Bildein" fill="#123456" stroke="#000000" stroke-width="0.1" stroke-linecap="round" stroke-linejoin="round" stroke-miterlimit="10" points="
			428.812,669.218 416.438,672.119 414.279,667.754 412.81,665.557 415.719,661.935 433.184,658.309 437.562,667.03 		"/>
		
			<polygon id="Bocksdorf" fill="#123456" stroke="#000000" stroke-width="0.1" stroke-linecap="round" stroke-linejoin="round" stroke-miterlimit="10" points="
			348.077,659.027 343.696,669.934 336.412,671.402 332.792,667.754 329.885,670.651 329.885,663.402 334.231,664.126 
			340.072,658.309 		"/>
		
			<polygon id="Burgauberg-Neudauberg" fill="#123456" stroke="#000000" stroke-width="0.1" stroke-linecap="round" stroke-linejoin="round" stroke-miterlimit="10" points="
			322.602,649.559 323.312,649.559 326.974,653.219 327.692,669.938 326.974,669.938 320.416,669.218 318.224,655.376 
			316.042,648.133 		"/>
		
			<polygon id="Eberau" fill="#123456" stroke="#000000" stroke-width="0.1" stroke-linecap="round" stroke-linejoin="round" stroke-miterlimit="10" points="
			414.291,667.745 416.445,672.119 428.824,669.218 429.536,675.036 424.449,675.036 425.195,677.935 419.344,681.595 
			423.002,685.216 422.289,689.59 426.633,691.782 419.348,695.4 412.822,688.839 406.262,686.685 407.725,677.214 401.16,678.684 
			399.727,667.745 405.541,667.021 406.256,672.119 		"/>
		
			<polygon id="Gerersdorf-Sulz" fill="#123456" stroke="#000000" stroke-width="0.1" stroke-linecap="round" stroke-linejoin="round" stroke-miterlimit="10" points="
			364.068,681.595 369.164,691.034 367.7,695.4 364.798,693.971 360.45,704.872 358.26,704.872 353.165,703.404 351.7,693.971 
			356.069,691.027 350.977,687.401 350.977,682.307 358.973,680.121 		"/>
		
			<polygon id="Großmürbisch" fill="#123456" stroke="#000000" stroke-width="0.1" stroke-linecap="round" stroke-linejoin="round" stroke-miterlimit="10" points="
			393.911,710.684 399.009,721.591 388.816,717.967 386.635,722.31 382.976,713.592 385.885,709.964 		"/>
		
			<polygon id="Güssing_1_" fill="#123456" stroke="#000000" stroke-width="0.1" stroke-linecap="round" stroke-linejoin="round" stroke-miterlimit="10" points="
			396.822,708.498 393.914,710.684 385.88,709.964 380.821,705.596 372.787,709.964 372.07,713.586 371.353,715.062 
			370.639,704.872 360.45,704.872 364.798,693.971 367.7,695.406 369.168,691.034 375.699,696.132 376.45,690.313 382.257,685.216 
			390.257,688.839 401.164,683.021 402.633,687.411 396.826,700.503 396.826,708.498 		"/>
		
			<polygon id="Güttenbach" fill="#123456" stroke="#000000" stroke-width="0.1" stroke-linecap="round" stroke-linejoin="round" stroke-miterlimit="10" points="
			380.07,648.13 377.878,659.027 374.969,661.222 364.788,661.222 364.788,640.855 366.972,645.223 		"/>
		
			<polygon id="Hackerberg" fill="#123456" stroke="#000000" stroke-width="0.1" stroke-linecap="round" stroke-linejoin="round" stroke-miterlimit="10" points="
			323.312,645.936 322.602,649.566 316.042,648.127 312.416,642.275 313.133,641.563 317.504,640.127 		"/>
		
			<polygon id="Heiligenbrunn" fill="#123456" stroke="#000000" stroke-width="0.1" stroke-linecap="round" stroke-linejoin="round" stroke-miterlimit="10" points="
			416.438,704.126 413.539,708.498 416.438,711.41 420.814,707.061 434.626,719.402 425.191,723.068 416.434,719.402 
			415.727,723.776 412.096,724.498 406.253,719.402 399.002,721.591 393.906,710.684 396.815,708.498 401.16,709.956 
			409.162,706.304 413.536,695.4 		"/>
		
			<polygon id="Heugraben" fill="#123456" stroke="#000000" stroke-width="0.1" stroke-linecap="round" stroke-linejoin="round" stroke-miterlimit="10" points="
			350.261,678.692 346.604,683.03 340.072,677.219 336.415,671.416 343.701,669.941 		"/>
		
			<polygon id="Inzenhof" fill="#123456" stroke="#000000" stroke-width="0.1" stroke-linecap="round" stroke-linejoin="round" stroke-miterlimit="10" points="
			382.973,713.592 386.629,722.31 380.818,720.87 378.629,717.252 374.254,720.152 371.35,717.252 371.35,715.062 372.066,713.592 
			374.254,712.157 		"/>
		
			<polygon id="Kleinmürbisch" fill="#123456" stroke="#000000" stroke-width="0.1" stroke-linecap="round" stroke-linejoin="round" stroke-miterlimit="10" points="
			385.885,709.956 382.976,713.592 374.262,712.152 372.07,713.592 372.793,709.956 380.825,705.593 		"/>
		
			<polygon id="Kukmirn" fill="#123456" stroke="#000000" stroke-width="0.1" stroke-linecap="round" stroke-linejoin="round" stroke-miterlimit="10" points="
			350.261,678.692 350.977,682.314 350.977,687.411 356.069,691.034 351.7,693.978 353.165,703.41 343.701,704.883 337.883,704.883 
			335.691,708.506 330.597,703.41 330.597,694.691 324.782,692.502 332.068,681.601 336.412,680.851 340.069,677.223 
			346.601,683.033 		"/>
		
			<polygon id="Moschendorf" fill="#123456" stroke="#000000" stroke-width="0.1" stroke-linecap="round" stroke-linejoin="round" stroke-miterlimit="10" points="
			426.633,691.782 433.199,692.499 436.098,696.88 416.441,704.126 413.543,695.406 412.826,688.839 419.348,695.406 		"/>
		
			<polygon id="Neuberg_im_Burgenland" fill="#123456" stroke="#000000" stroke-width="0.1" stroke-linecap="round" stroke-linejoin="round" stroke-miterlimit="10" points="
			364.792,640.855 364.792,661.219 359.692,660.503 351.691,653.219 352.41,651.753 353.882,635.038 358.253,639.377 		"/>
		
			<polygon id="Neustift_bei_Güssing" fill="#123456" stroke="#000000" stroke-width="0.1" stroke-linecap="round" stroke-linejoin="round" stroke-miterlimit="10" points="
			371.35,715.062 365.535,714.312 362.596,717.967 355.354,715.062 358.256,704.872 370.639,704.872 		"/>
		
			<polygon id="Olbendorf" fill="#123456" stroke="#000000" stroke-width="0.1" stroke-linecap="round" stroke-linejoin="round" stroke-miterlimit="10" points="
			353.889,635.033 352.416,651.75 351.7,653.219 346.598,651.75 348.074,657.565 337.169,648.846 336.409,640.849 341.513,635.03 
			353.889,635.03 		"/>
		
			<polygon id="Ollersdorf_im_Burgenland" fill="#123456" stroke="#000000" stroke-width="0.1" stroke-linecap="round" stroke-linejoin="round" stroke-miterlimit="10" points="
			336.409,640.855 337.167,648.849 332.065,651.029 323.309,649.572 322.599,649.572 323.309,645.941 329.127,640.849 
			336.405,640.849 336.405,640.855 		"/>
		
			<polygon id="Rauchwart" fill="#123456" stroke="#000000" stroke-width="0.1" stroke-linecap="round" stroke-linejoin="round" stroke-miterlimit="10" points="
			351.697,653.219 359.697,660.503 359.697,671.411 353.889,669.938 353.168,672.127 357.515,675.749 350.264,678.692 
			343.705,669.938 348.081,659.027 348.081,657.568 346.604,651.753 		"/>
		
			<polygon id="Rohr_im_Burgenland" fill="#123456" stroke="#000000" stroke-width="0.1" stroke-linecap="round" stroke-linejoin="round" stroke-miterlimit="10" points="
			336.409,671.402 340.065,677.217 336.409,680.842 332.065,681.595 326.969,676.495 326.969,669.934 327.685,669.934 
			329.876,670.651 332.786,667.745 		"/>
		
			<polygon id="Sankt_Michael_im_Burgenland" fill="#123456" stroke="#000000" stroke-width="0.1" stroke-linecap="round" stroke-linejoin="round" stroke-miterlimit="10" points="
			364.792,661.219 374.976,661.219 374.976,664.123 372.787,663.407 366.977,669.938 364.073,681.595 358.973,680.126 
			350.97,682.314 350.261,678.684 357.508,675.752 353.162,672.119 353.882,669.941 359.688,671.406 359.688,660.503 		"/>
		
			<polygon id="Stegersbach" fill="#123456" stroke="#000000" stroke-width="0.1" stroke-linecap="round" stroke-linejoin="round" stroke-miterlimit="10" points="
			348.077,657.565 348.077,659.031 340.069,658.312 334.223,664.131 329.89,663.407 329.89,670.654 327.689,669.931 
			326.974,653.219 323.315,649.566 332.065,651.026 337.167,648.846 		"/>
		
			<polygon id="Stinatz" fill="#123456" stroke="#000000" stroke-width="0.1" stroke-linecap="round" stroke-linejoin="round" stroke-miterlimit="10" points="
			321.136,629.189 323.315,636.468 329.137,640.849 323.315,645.936 317.507,640.136 313.892,627.758 		"/>
		
			<polygon id="Strem" fill="#123456" stroke="#000000" stroke-width="0.1" stroke-linecap="round" stroke-linejoin="round" stroke-miterlimit="10" points="
			412.822,688.836 413.539,695.4 409.162,706.304 401.16,709.956 396.818,708.498 396.818,700.495 402.631,687.411 401.16,683.025 
			401.16,678.684 407.721,677.217 406.256,686.681 		"/>
		
			<polygon id="Tobaj" fill="#123456" stroke="#000000" stroke-width="0.1" stroke-linecap="round" stroke-linejoin="round" stroke-miterlimit="10" points="
			399.009,665.565 399.727,667.754 401.164,678.692 401.164,683.03 390.26,688.846 382.254,685.223 376.444,690.313 
			375.699,696.132 369.168,691.04 364.068,681.601 366.972,669.941 372.787,663.412 374.972,664.126 374.972,661.222 
			377.878,659.027 380.07,664.134 		"/>
		
			<polygon id="Tschanigraben" fill="#123456" stroke="#000000" stroke-width="0.1" stroke-linecap="round" stroke-linejoin="round" stroke-miterlimit="10" points="
			380.821,720.87 374.969,723.068 374.254,720.16 378.629,717.26 		"/>
		
			<polygon id="Wörterberg" fill="#123456" stroke="#000000" stroke-width="0.1" stroke-linecap="round" stroke-linejoin="round" stroke-miterlimit="10" points="
			317.504,640.127 313.133,641.565 310.232,628.477 310.232,627.75 313.888,627.75 		"/>
	</g>
	<g id="Jennersdorf">
		
			<polygon id="Deutsch_Kaltenbrunn_2_" fill="#123456" stroke="#000000" stroke-width="0.1" stroke-linecap="round" stroke-linejoin="round" stroke-miterlimit="10" points="
			326.978,669.938 326.978,676.498 332.073,681.595 324.793,692.499 316.796,699.037 313.892,694.691 312.424,688.125 
			314.608,677.941 316.796,677.941 320.423,669.218 		"/>
		
			<polygon id="Eltendorf_2_" fill="#123456" stroke="#000000" stroke-width="0.1" stroke-linecap="round" stroke-linejoin="round" stroke-miterlimit="10" points="
			358.256,704.883 355.357,715.067 350.261,723.776 350.261,729.591 349.501,730.336 343.696,731.057 343.696,704.883 
			353.162,703.41 		"/>
		
			<polygon id="Heiligenkreuz_im_Lafnitztal_2_" fill="#123456" stroke="#000000" stroke-width="0.1" stroke-linecap="round" stroke-linejoin="round" stroke-miterlimit="10" points="
			371.35,715.062 371.35,717.252 368.445,738.345 362.596,737.587 358.97,732.494 355.342,729.583 352.41,732.494 349.501,730.336 
			350.256,729.583 350.256,723.776 355.351,715.062 362.596,717.967 365.531,714.306 		"/>
		
			<polygon id="Jennersdorf_1_" fill="#123456" stroke="#000000" stroke-width="0.1" stroke-linecap="round" stroke-linejoin="round" stroke-miterlimit="10" points="
			333.507,728.15 342.966,730.336 339.317,732.494 342.223,751.429 329.131,755.061 328.417,752.874 326.982,755.779 
			317.504,752.151 317.504,743.436 320.419,739.066 326.231,725.969 		"/>
		
			<polygon id="Königsdorf_2_" fill="#123456" stroke="#000000" stroke-width="0.1" stroke-linecap="round" stroke-linejoin="round" stroke-miterlimit="10" points="
			343.696,704.883 343.696,731.057 342.973,730.336 333.507,728.161 330.604,724.504 335.705,708.506 337.888,704.883 		"/>
		
			<polygon id="Minihof-Liebau_2_" fill="#123456" stroke="#000000" stroke-width="0.1" stroke-linecap="round" stroke-linejoin="round" stroke-miterlimit="10" points="
			317.504,780.556 310.232,787.127 305.855,784.185 308.755,780.556 304.407,774.737 308.755,771.839 308.037,768.187 
			315.317,763.838 319.696,765.282 		"/>
		
			<polygon id="Mogersdorf_2_" fill="#123456" stroke="#000000" stroke-width="0.1" stroke-linecap="round" stroke-linejoin="round" stroke-miterlimit="10" points="
			358.973,732.499 362.6,737.595 358.973,741.25 359.697,745.628 353.165,749.971 349.508,747.066 346.601,738.352 355.354,729.591 
					"/>
		
			<polygon id="Mühlgraben_2_" fill="#123456" stroke="#000000" stroke-width="0.1" stroke-linecap="round" stroke-linejoin="round" stroke-miterlimit="10" points="
			308.04,768.152 308.759,771.817 304.412,774.71 297.845,771.817 300.753,769.617 301.508,765.242 305.855,762.332 		"/>
		
			<polygon id="Neuhaus_am_Klausenbach_2_" fill="#123456" stroke="#000000" stroke-width="0.1" stroke-linecap="round" stroke-linejoin="round" stroke-miterlimit="10" points="
			304.412,774.717 308.759,780.527 305.858,784.179 310.235,787.094 308.043,792.188 300.763,794.346 300.046,791.436 
			294.236,795.807 291.324,793.633 292.763,789.247 294.236,776.156 297.848,771.817 		"/>
		
			<polygon id="Rudersdorf_2_" fill="#123456" stroke="#000000" stroke-width="0.1" stroke-linecap="round" stroke-linejoin="round" stroke-miterlimit="10" points="
			335.691,708.498 330.597,724.498 326.224,719.402 321.881,712.873 321.881,711.404 323.315,705.593 316.79,699.029 
			324.786,692.499 330.597,694.691 330.597,703.404 		"/>
		
			<polygon id="Sankt_Martin_an_der_Raab_2_" fill="#123456" stroke="#000000" stroke-width="0.1" stroke-linecap="round" stroke-linejoin="round" stroke-miterlimit="10" points="
			317.504,780.556 319.696,765.277 315.317,763.843 308.037,768.187 305.855,762.378 310.232,752.193 317.504,752.193 
			326.974,755.809 328.408,752.903 329.127,755.097 342.22,751.465 346.592,748.565 341.5,762.378 337.158,763.835 329.127,775.47 
					"/>
		
			<polygon id="Weichselbaum_2_" fill="#123456" stroke="#000000" stroke-width="0.1" stroke-linecap="round" stroke-linejoin="round" stroke-miterlimit="10" points="
			352.416,732.499 346.601,738.345 349.501,747.066 346.601,748.527 342.223,751.429 339.321,732.499 342.97,730.344 
			343.693,731.063 349.501,730.344 		"/>
	</g>
	<g id="Mattersburg">
		
			<polygon id="Antau" fill="#123456" stroke="#000000" stroke-width="0.1" stroke-linecap="round" stroke-linejoin="round" stroke-miterlimit="10" points="
			419.344,397.065 417.91,403.628 412.817,407.256 407.001,395.631 408.441,393.446 413.539,391.978 		"/>
		
			<polygon id="Bad_Sauerbrunn" fill="#123456" stroke="#000000" stroke-width="0.1" stroke-linecap="round" stroke-linejoin="round" stroke-miterlimit="10" points="
			372.793,400.729 371.353,405.825 366.98,405.073 368.448,402.919 366.98,400.729 366.258,397.068 372.07,397.823 		"/>
		
			<path id="Baumgarten_1_" fill="#123456" stroke="#000000" stroke-width="0.1" stroke-linecap="round" stroke-linejoin="round" stroke-miterlimit="10" d="
			M409.162,420.351l-1.441,2.906l-2.186-0.715l-0.721-2.19l0.721-0.719l2.186,0.719H409.162z M424.449,410.915l-16.719,9.439h13.808
			l7.28-5.815l0.715-1.432L424.449,410.915z"/>
		
			<polygon id="Draßburg" fill="#123456" stroke="#000000" stroke-width="0.1" stroke-linecap="round" stroke-linejoin="round" stroke-miterlimit="10" points="
			424.443,410.915 407.725,420.354 405.541,419.637 404.818,420.354 412.826,407.259 417.916,403.633 		"/>
		
			<polygon id="Forchtenstein" fill="#123456" stroke="#000000" stroke-width="0.1" stroke-linecap="round" stroke-linejoin="round" stroke-miterlimit="10" points="
			366.258,437.104 366.258,434.192 361.881,425.442 372.07,418.915 377.881,418.915 383.73,423.256 382.979,426.196 		"/>
		
			<polygon id="Hirm" fill="#123456" stroke="#000000" stroke-width="0.1" stroke-linecap="round" stroke-linejoin="round" stroke-miterlimit="10" points="
			408.445,393.449 407.004,395.639 402.633,397.828 400.445,389.075 403.346,387.643 		"/>
		
			<polygon id="Krensdorf" fill="#123456" stroke="#000000" stroke-width="0.1" stroke-linecap="round" stroke-linejoin="round" stroke-miterlimit="10" points="
			397.534,401.449 396.072,400.729 391.722,399.265 390.257,393.451 390.968,389.793 399.006,389.075 401.164,397.823 		"/>
		
			<polygon id="Loipersbach_im_Burgenland" fill="#123456" stroke="#000000" stroke-width="0.1" stroke-linecap="round" stroke-linejoin="round" stroke-miterlimit="10" points="
			419.344,428.352 412.822,437.821 404.814,432.013 409.91,424.009 		"/>
		
			<polygon id="Marz" fill="#123456" stroke="#000000" stroke-width="0.1" stroke-linecap="round" stroke-linejoin="round" stroke-miterlimit="10" points="
			402.631,419.637 396.822,425.445 395.349,441.481 382.254,439.292 381.537,434.92 384.446,429.112 395.352,418.167 
			401.918,418.167 		"/>
		
			<polygon id="Mattersburg_1_" fill="#123456" stroke="#000000" stroke-width="0.1" stroke-linecap="round" stroke-linejoin="round" stroke-miterlimit="10" points="
			393.16,408.731 401.914,418.167 395.349,418.167 384.439,429.112 381.537,434.92 382.249,439.292 380.065,440.013 
			370.629,438.538 366.253,437.101 382.969,426.2 383.719,423.26 377.869,418.919 380.814,415.261 379.346,410.915 382.249,408.014 
			388.81,406.54 391.714,410.167 		"/>
		
			<polygon id="Neudörfl" fill="#123456" stroke="#000000" stroke-width="0.1" stroke-linecap="round" stroke-linejoin="round" stroke-miterlimit="10" points="
			366.258,397.065 366.98,400.726 362.6,406.534 363.349,396.35 353.165,394.883 358.26,386.163 366.258,388.356 364.076,394.161 		
			"/>
		
			<polygon id="Pöttelsdorf" fill="#123456" stroke="#000000" stroke-width="0.1" stroke-linecap="round" stroke-linejoin="round" stroke-miterlimit="10" points="
			397.534,401.449 404.814,408.008 401.914,418.162 393.16,408.726 396.066,400.721 		"/>
		
			<path id="Pöttsching_1_" fill="#123456" stroke="#000000" stroke-width="0.1" stroke-linecap="round" stroke-linejoin="round" stroke-miterlimit="10" d="
			M366.258,406.537l-2.904,0.722l-0.75-0.722l4.376-5.808l1.465,2.19l-1.465,2.154L366.258,406.537z M382.257,408.014l0.719-10.942
			l2.194-3.621h5.095l0.713-3.657l-11.627-9.443l-2.189,0.719l-2.185,7.28l-8.718,8.715l5.812,0.755l0.724,2.906l3.65,1.44
			l-1.468,8.749h4.377L382.257,408.014z"/>
		
			<polygon id="Rohrbach_bei_Mattersburg" fill="#123456" stroke="#000000" stroke-width="0.1" stroke-linecap="round" stroke-linejoin="round" stroke-miterlimit="10" points="
			404.814,420.351 405.541,422.541 409.906,424.004 404.811,432.003 404.092,441.473 398.25,445.096 395.342,441.473 
			396.815,425.445 402.623,419.637 		"/>
		
			<polygon id="Schattendorf" fill="#123456" stroke="#000000" stroke-width="0.1" stroke-linecap="round" stroke-linejoin="round" stroke-miterlimit="10" points="
			419.344,428.352 409.906,424.009 407.725,423.256 409.162,420.351 407.725,420.351 421.535,420.351 428.812,414.536 
			433.914,420.351 431.003,424.009 		"/>
		
			<polygon id="Sieggraben" fill="#123456" stroke="#000000" stroke-width="0.1" stroke-linecap="round" stroke-linejoin="round" stroke-miterlimit="10" points="
			395.352,441.473 398.258,445.096 395.352,451.633 393.914,457.474 387.35,458.194 384.442,455.289 378.634,443.633 
			380.07,440.008 382.254,439.29 		"/>
		
			<polygon id="Sigleß" fill="#123456" stroke="#000000" stroke-width="0.1" stroke-linecap="round" stroke-linejoin="round" stroke-miterlimit="10" points="
			396.066,400.729 393.16,408.734 391.726,410.167 388.823,406.54 382.254,408.014 382.973,397.072 385.164,393.449 
			390.257,393.449 391.726,399.262 		"/>
		
			<polygon id="Wiesen" fill="#123456" stroke="#000000" stroke-width="0.1" stroke-linecap="round" stroke-linejoin="round" stroke-miterlimit="10" points="
			379.353,410.915 380.821,415.261 377.878,418.919 372.07,418.919 361.881,425.445 361.881,414.539 362.6,406.537 363.349,407.259 
			366.258,406.537 366.968,405.073 371.35,405.825 372.787,400.729 376.44,402.169 374.972,410.918 379.353,410.918 		"/>
		
			<polygon id="Zemendorf-Stöttera" fill="#123456" stroke="#000000" stroke-width="0.1" stroke-linecap="round" stroke-linejoin="round" stroke-miterlimit="10" points="
			407.001,395.634 412.822,407.264 404.814,420.359 402.633,419.64 401.918,418.168 404.818,408.019 397.541,401.456 
			401.17,397.828 399.009,389.078 400.445,389.078 402.633,397.828 		"/>
	</g>
	<g id="Neusiedl_am_See_2_">
		
			<polygon id="Andau_2_" fill="#123456" stroke="#000000" stroke-width="0.1" stroke-linecap="round" stroke-linejoin="round" stroke-miterlimit="10" points="
			579.44,420.351 568.499,410.91 556.156,383.258 554.687,378.888 569.966,370.164 577.249,376.694 572.157,383.976 
			577.249,394.886 578.688,410.915 585.256,418.919 		"/>
		
			<polygon id="Apetlon_2_" fill="#123456" stroke="#000000" stroke-width="0.1" stroke-linecap="round" stroke-linejoin="round" stroke-miterlimit="10" points="
			526.315,382.544 528.496,391.263 532.877,402.922 529.939,402.169 521.932,416.731 514.651,424.009 511.756,433.44 
			489.22,434.914 487.035,429.104 508.844,401.449 514.651,374.54 		"/>
		
			<polygon id="Bruckneudorf_2_" fill="#123456" stroke="#000000" stroke-width="0.1" stroke-linecap="round" stroke-linejoin="round" stroke-miterlimit="10" points="
			492.851,306.137 487.035,308.326 476.848,318.513 471.035,314.136 470.279,298.139 484.846,297.42 497.215,290.137 
			504.496,289.39 505.221,289.39 505.936,292.327 511.748,288.667 515.402,291.573 510.305,299.574 497.209,295.227 		"/>
		
			<polygon id="Deutsch_Jahrndorf_2_" fill="#123456" stroke="#000000" stroke-width="0.1" stroke-linecap="round" stroke-linejoin="round" stroke-miterlimit="10" points="
			580.871,310.477 574.346,301.008 568.495,292.294 574.346,287.198 578.688,290.106 583.784,285.013 598.352,294.478 		"/>
		
			<polygon id="Edelstal_2_" fill="#123456" stroke="#000000" stroke-width="0.1" stroke-linecap="round" stroke-linejoin="round" stroke-miterlimit="10" points="
			551.058,253.739 553.223,258.082 556.869,255.176 559.785,257.365 553.977,261.74 551.781,264.646 543.783,258.082 
			547.407,252.986 		"/>
		
			<polygon id="Frauenkirchen_2_" fill="#123456" stroke="#000000" stroke-width="0.1" stroke-linecap="round" stroke-linejoin="round" stroke-miterlimit="10" points="
			548.125,370.886 543.061,378.165 530.685,381.795 528.492,391.26 526.313,382.541 523.404,368.697 531.406,359.259 
			540.873,359.259 549.589,367.258 		"/>
		
			<polygon id="Gattendorf_2_" fill="#123456" stroke="#000000" stroke-width="0.1" stroke-linecap="round" stroke-linejoin="round" stroke-miterlimit="10" points="
			564.877,290.142 550.314,302.516 545.219,301.767 535.773,314.858 531.406,311.231 533.598,309.765 539.408,303.952 
			539.408,291.576 544.5,288.67 548.877,288.67 551.064,280.667 		"/>
		
			<polygon id="Gols_2_" fill="#123456" stroke="#000000" stroke-width="0.1" stroke-linecap="round" stroke-linejoin="round" stroke-miterlimit="10" points="
			548.125,325.792 543.779,338.135 528.492,355.607 531.406,359.263 523.404,368.7 515.402,356.328 510.305,354.889 
			512.492,351.231 524.115,352.698 523.404,345.415 526.313,341.075 521.208,335.98 527.023,334.517 537.217,320.702 		"/>
		
			<polygon id="Halbturn_2_" fill="#123456" stroke="#000000" stroke-width="0.1" stroke-linecap="round" stroke-linejoin="round" stroke-miterlimit="10" points="
			577.973,349.067 567.06,354.163 561.25,353.415 559.064,357.791 571.44,365.788 569.966,370.164 554.687,378.888 548.131,370.886 
			549.596,367.264 540.889,359.263 547.412,346.893 552.512,341.793 559.788,343.237 563.408,337.423 574.354,341.799 		"/>
		
			<polygon id="Illmitz_2_" fill="#123456" stroke="#000000" stroke-width="0.1" stroke-linecap="round" stroke-linejoin="round" stroke-miterlimit="10" points="
			514.651,374.544 508.836,401.453 487.035,429.112 480.465,412.356 480.465,393.451 482.658,381.798 483.374,375.986 
			502.316,372.359 		"/>
		
			<polygon id="Jois_2_" fill="#123456" stroke="#000000" stroke-width="0.1" stroke-linecap="round" stroke-linejoin="round" stroke-miterlimit="10" points="
			509.588,311.919 504.494,314.822 496.463,306.822 505.936,334.478 501.559,341.042 489.932,323.575 491.371,318.479 
			487.02,308.295 492.834,306.106 498.656,305.389 		"/>
		
			<polygon id="Kittsee_2_" fill="#123456" stroke="#000000" stroke-width="0.1" stroke-linecap="round" stroke-linejoin="round" stroke-miterlimit="10" points="
			572.157,274.829 559.064,266.827 556.869,269.017 551.777,264.646 553.965,261.74 561.961,263.927 563.396,256.648 
			569.248,253.021 569.966,249.366 577.245,256.648 572.154,264.65 574.346,266.082 572.154,269.021 576.527,271.18 		"/>
		
			<polygon id="Mönchhof_2_" fill="#123456" stroke="#000000" stroke-width="0.1" stroke-linecap="round" stroke-linejoin="round" stroke-miterlimit="10" points="
			553.965,327.943 564.873,335.225 563.396,337.413 559.779,343.227 552.505,341.787 547.404,346.883 540.869,359.259 
			531.403,359.259 528.496,355.599 543.779,338.128 548.127,325.785 		"/>
		
			<polygon id="Neudorf_2_" fill="#123456" stroke="#000000" stroke-width="0.1" stroke-linecap="round" stroke-linejoin="round" stroke-miterlimit="10" points="
			539.408,291.576 539.408,303.952 533.598,309.765 526.318,305.42 526.318,296.669 521.219,289.39 520.504,287.229 
			526.315,282.855 		"/>
		
			<path id="Neusiedl_am_See_1_" fill="#123456" stroke="#000000" stroke-width="0.1" stroke-linecap="round" stroke-linejoin="round" stroke-miterlimit="10" d="
			M523.404,345.418l0.716,7.28l-11.623-1.467l-2.188,3.657l-5.814,10.909l-5.09-3.629l10.188-16.031l9.431-5.059l2.188-5.094
			l5.102,5.094L523.404,345.418z M505.942,334.52l-4.376,6.566l-0.719,1.436l-2.182,2.907l-1.447,2.19l-1.464,2.904l-4.38,6.564
			l4.38,2.905l18.188-32.035l13.843-12.34l-18.188-3.66l-5.102,2.902l-8.025-8.001L505.942,334.52z"/>
		
			<polygon id="Nickelsdorf_2_" fill="#123456" stroke="#000000" stroke-width="0.1" stroke-linecap="round" stroke-linejoin="round" stroke-miterlimit="10" points="
			580.871,310.477 586.68,314.104 580.152,325.759 586.68,327.943 582.338,338.096 584.525,339.563 580.148,350.474 
			577.969,349.031 574.346,341.75 563.399,337.378 564.877,335.19 553.971,327.939 564.877,309.723 574.346,301 		"/>
		
			<polygon id="Pama_2_" fill="#123456" stroke="#000000" stroke-width="0.1" stroke-linecap="round" stroke-linejoin="round" stroke-miterlimit="10" points="
			572.157,274.829 577.249,279.203 571.44,285.735 574.346,287.202 568.495,292.298 564.877,290.106 551.061,280.639 
			556.869,269.013 559.064,266.823 		"/>
		
			<polygon id="Pamhagen_2_" fill="#123456" stroke="#000000" stroke-width="0.1" stroke-linecap="round" stroke-linejoin="round" stroke-miterlimit="10" points="
			532.877,402.919 535.781,402.919 537.971,413.107 548.131,426.917 524.848,430.54 521.938,416.734 529.939,402.173 		"/>
		
			<polygon id="Parndorf_2_" fill="#123456" stroke="#000000" stroke-width="0.1" stroke-linecap="round" stroke-linejoin="round" stroke-miterlimit="10" points="
			529.217,277.048 525.592,278.486 526.315,282.858 520.498,287.232 521.211,289.39 526.315,296.669 526.315,305.42 
			533.598,309.769 531.403,311.231 527.785,315.609 509.588,311.952 498.659,305.42 492.844,306.137 497.212,295.233 
			510.309,299.578 515.402,291.576 511.748,288.67 505.942,292.33 505.224,289.394 508.125,287.954 505.942,284.292 
			516.844,271.203 518.313,271.953 525.592,271.203 529.937,273.39 		"/>
		
			<polygon id="Podersdorf_am_See_2_" fill="#123456" stroke="#000000" stroke-width="0.1" stroke-linecap="round" stroke-linejoin="round" stroke-miterlimit="10" points="
			523.404,368.7 526.315,382.544 514.651,374.544 502.316,372.355 483.371,375.983 484.119,367.264 491.371,357.079 
			495.744,359.983 499.404,362.168 504.494,365.797 510.309,354.889 515.409,356.328 		"/>
		
			<polygon id="Potzneusiedl_2_" fill="#123456" stroke="#000000" stroke-width="0.1" stroke-linecap="round" stroke-linejoin="round" stroke-miterlimit="10" points="
			544.496,288.667 539.405,291.573 526.313,282.855 525.592,278.481 529.213,277.045 544.496,282.855 		"/>
		
			<polygon id="Sankt_Andrä_am_Zicksee_2_" fill="#123456" stroke="#000000" stroke-width="0.1" stroke-linecap="round" stroke-linejoin="round" stroke-miterlimit="10" points="
			554.684,378.888 556.148,383.261 544.496,391.982 545.96,397.823 535.77,402.919 532.87,402.919 528.49,391.26 530.682,381.795 
			543.058,378.165 548.121,370.889 		"/>
		
			<polygon id="Tadten_1_" fill="#123456" stroke="#000000" stroke-width="0.1" stroke-linecap="round" stroke-linejoin="round" stroke-miterlimit="10" points="
			579.44,420.351 570.682,421.102 556.869,413.103 545.97,397.82 544.5,391.978 556.156,383.258 568.499,410.91 		"/>
		
			<polygon id="Wallern_im_Burgenland_2_" fill="#123456" stroke="#000000" stroke-width="0.1" stroke-linecap="round" stroke-linejoin="round" stroke-miterlimit="10" points="
			570.682,421.102 548.127,426.913 537.971,413.103 535.777,402.916 545.973,397.82 556.872,413.1 		"/>
		
			<polygon id="Weiden_am_See_2_" fill="#123456" stroke="#000000" stroke-width="0.1" stroke-linecap="round" stroke-linejoin="round" stroke-miterlimit="10" points="
			537.223,320.699 527.033,334.51 521.219,335.98 519.023,341.075 509.598,346.133 499.412,362.165 495.75,359.979 513.938,327.943 
			527.785,315.603 		"/>
		
			<polygon id="Winden_am_See_2_" fill="#123456" stroke="#000000" stroke-width="0.1" stroke-linecap="round" stroke-linejoin="round" stroke-miterlimit="10" points="
			501.566,341.075 500.843,342.512 476.844,318.516 487.035,308.329 491.375,318.516 489.938,323.611 		"/>
		
			<polygon id="Zurndorf_2_" fill="#123456" stroke="#000000" stroke-width="0.1" stroke-linecap="round" stroke-linejoin="round" stroke-miterlimit="10" points="
			568.492,292.298 574.346,301.012 564.877,309.732 553.971,327.951 548.125,325.766 537.223,320.671 527.785,315.577 
			531.406,311.201 535.773,314.822 545.219,301.733 550.314,302.487 564.877,290.109 		"/>
	</g>
	<g id="Oberpullendorf">
		
			<polygon id="Deutschkreutz" fill="#123456" stroke="#000000" stroke-width="0.1" stroke-linecap="round" stroke-linejoin="round" stroke-miterlimit="10" points="
			467.375,482.188 455.748,487.294 452.095,485.105 446.998,465.48 446.282,463.289 457.189,458.197 462.994,460.381 
			465.939,466.905 469.559,467.661 468.093,470.566 470.275,477.853 		"/>
		
			<polygon id="Draßmarkt" fill="#123456" stroke="#000000" stroke-width="0.1" stroke-linecap="round" stroke-linejoin="round" stroke-miterlimit="10" points="
			399.009,501.85 407.004,506.229 409.165,507.666 406.268,515.66 397.541,520.042 398.261,522.938 393.168,522.938 
			393.918,528.038 386.635,522.938 377.165,525.133 372.793,517.127 377.885,507.666 386.638,512.764 389.55,509.852 
			385.888,506.953 386.638,506.953 388.83,508.394 390.264,506.226 389.55,505.478 390.264,504.759 390.264,505.478 		"/>
		
			<polygon id="Frankenau-Unterpullendorf" fill="#123456" stroke="#000000" stroke-width="0.1" stroke-linecap="round" stroke-linejoin="round" stroke-miterlimit="10" points="
			447.757,517.846 449.186,522.23 452.099,527.33 451.375,530.23 456.471,533.142 455.756,539.694 449.191,544.037 440.479,530.954 
			430.289,527.321 428.102,522.233 435.383,514.231 		"/>
		
			<polygon id="Großwarasdorf" fill="#123456" stroke="#000000" stroke-width="0.1" stroke-linecap="round" stroke-linejoin="round" stroke-miterlimit="10" points="
			455.752,487.294 453.57,488.758 455.752,491.663 453.57,501.134 458.663,507.657 456.477,509.841 449.914,501.85 446.29,509.122 
			449.912,513.498 447.757,517.846 435.374,514.226 433.914,505.471 430.287,508.38 429.533,506.219 424.44,500.378 
			437.564,491.657 439.005,487.28 444.816,488.028 452.099,485.093 		"/>
		
			<polygon id="Horitschon" fill="#123456" stroke="#000000" stroke-width="0.1" stroke-linecap="round" stroke-linejoin="round" stroke-miterlimit="10" points="
			452.104,485.105 444.816,488.039 442.625,482.941 442.625,485.851 439.01,487.283 428.102,480.03 427.383,478.573 
			428.102,474.196 441.909,474.945 444.816,482.941 443.379,466.913 447.006,465.477 		"/>
		
			<polygon id="Kaisersdorf" fill="#123456" stroke="#000000" stroke-width="0.1" stroke-linecap="round" stroke-linejoin="round" stroke-miterlimit="10" points="
			401.164,498.22 399.006,501.85 390.257,505.471 390.257,504.751 382.973,501.134 377.873,497.476 380.818,497.476 
			378.629,494.566 382.249,492.381 		"/>
		
			<polygon id="Kobersdorf" fill="#123456" stroke="#000000" stroke-width="0.1" stroke-linecap="round" stroke-linejoin="round" stroke-miterlimit="10" points="
			387.345,458.201 391.722,469.1 396.826,473.481 393.163,480.762 396.072,480.762 393.911,483.665 397.534,484.393 
			398.252,489.485 390.251,491.679 393.16,487.297 374.254,477.861 373.542,474.203 377.878,472.022 380.073,469.105 
			378.634,466.204 384.442,463.299 384.442,455.305 		"/>
		
			<polygon id="Lackenbach" fill="#123456" stroke="#000000" stroke-width="0.1" stroke-linecap="round" stroke-linejoin="round" stroke-miterlimit="10" points="
			406.256,448.728 407.001,450.919 404.092,453.1 404.092,461.105 417.91,477.845 412.099,484.393 395.349,451.636 398.258,445.101 
					"/>
		
			<polygon id="Lackendorf" fill="#123456" stroke="#000000" stroke-width="0.1" stroke-linecap="round" stroke-linejoin="round" stroke-miterlimit="10" points="
			425.905,472.76 424.443,474.944 427.379,478.57 428.098,480.038 424.443,482.188 417.914,477.853 404.095,461.105 404.095,453.1 
			407.004,450.919 415.727,472.007 		"/>
		
			<polygon id="Lockenhaus" fill="#123456" stroke="#000000" stroke-width="0.1" stroke-linecap="round" stroke-linejoin="round" stroke-miterlimit="10" points="
			404.814,539.691 413.543,539.691 413.543,542.599 407.004,545.503 408.445,549.883 412.826,549.126 409.165,552.035 
			413.543,568.782 407.008,574.591 393.168,578.251 390.978,578.251 388.823,575.307 390.26,572.405 388.068,562.966 
			382.973,557.868 391.722,549.869 388.823,546.217 390.254,542.594 393.914,539.685 401.918,542.594 401.16,538.221 		"/>
		
			<polygon id="Lutzmannsburg" fill="#123456" stroke="#000000" stroke-width="0.1" stroke-linecap="round" stroke-linejoin="round" stroke-miterlimit="10" points="
			455.752,539.691 456.466,533.133 451.371,530.23 452.095,527.321 449.183,522.228 454.999,520.757 460.099,512.046 
			465.947,510.564 471.043,521.507 468.852,529.504 		"/>
		
			<polygon id="Mannersdorf_an_der_Rabnitz" fill="#123456" stroke="#000000" stroke-width="0.1" stroke-linecap="round" stroke-linejoin="round" stroke-miterlimit="10" points="
			449.183,544.059 445.568,551.349 429.533,549.917 423.723,559.352 420.098,555.721 420.098,550.63 412.822,549.156 
			408.445,549.909 407.004,545.537 413.539,542.625 420.814,544.059 425.195,543.352 428.818,536.063 431.721,530.967 
			430.283,527.346 440.475,530.967 		"/>
		
			<polygon id="Markt_Sankt_Martin" fill="#123456" stroke="#000000" stroke-width="0.1" stroke-linecap="round" stroke-linejoin="round" stroke-miterlimit="10" points="
			398.258,489.478 405.541,485.851 407.004,482.196 411.352,482.947 412.102,484.384 413.539,486.565 406.268,489.478 
			407.008,492.389 401.164,498.229 382.254,492.389 378.634,494.577 380.821,497.476 377.878,497.476 375.699,495.29 
			373.544,499.659 370.639,497.474 369.881,497.474 369.168,488.042 374.262,477.853 393.168,487.297 390.264,491.663 		"/>
		
			<polygon id="Neckenmarkt" fill="#123456" stroke="#000000" stroke-width="0.1" stroke-linecap="round" stroke-linejoin="round" stroke-miterlimit="10" points="
			446.29,463.28 447.009,465.477 443.376,466.913 444.816,482.941 441.909,474.945 428.102,474.196 427.383,478.573 
			424.449,474.945 425.909,472.76 426.629,467.665 419.344,458.194 420.098,455.289 425.198,452.377 		"/>
		
			<polygon id="Neutal" fill="#123456" stroke="#000000" stroke-width="0.1" stroke-linecap="round" stroke-linejoin="round" stroke-miterlimit="10" points="
			417.189,493.849 409.906,500.381 407.004,506.222 399.009,501.85 401.17,498.227 407.011,492.381 406.268,489.469 
			413.543,486.569 		"/>
		
			<polygon id="Nikitsch" fill="#123456" stroke="#000000" stroke-width="0.1" stroke-linecap="round" stroke-linejoin="round" stroke-miterlimit="10" points="
			465.947,510.564 460.094,512.038 454.999,520.757 449.178,522.228 447.75,517.846 449.908,513.498 446.287,509.122 
			449.908,501.841 456.466,509.841 458.654,507.657 453.559,501.134 455.748,491.657 453.559,488.758 455.748,487.294 
			467.375,482.182 482.658,493.849 476.127,506.222 470.279,509.128 468.093,506.942 		"/>
		
			<polygon id="Oberloisdorf" fill="#123456" stroke="#000000" stroke-width="0.1" stroke-linecap="round" stroke-linejoin="round" stroke-miterlimit="10" points="
			428.812,536.042 425.195,543.314 420.818,544.031 413.539,542.594 413.539,539.685 430.283,527.314 431.717,530.938 		"/>
		
			<polygon id="Oberpullendorf_1_" fill="#123456" stroke="#000000" stroke-width="0.1" stroke-linecap="round" stroke-linejoin="round" stroke-miterlimit="10" points="
			435.377,514.257 428.098,522.257 417.91,511.356 429.533,506.256 430.287,508.414 433.914,505.508 		"/>
		
			<polygon id="Pilgersdorf" fill="#123456" stroke="#000000" stroke-width="0.1" stroke-linecap="round" stroke-linejoin="round" stroke-miterlimit="10" points="
			377.158,525.129 390.257,542.604 388.813,546.229 391.722,549.883 382.969,557.879 378.626,559.319 372.06,554.224 
			365.531,540.414 366.248,534.598 361.877,533.847 368.434,528.033 366.248,524.407 369.873,522.938 372.78,517.127 		"/>
		
			<polygon id="Piringsdorf" fill="#123456" stroke="#000000" stroke-width="0.1" stroke-linecap="round" stroke-linejoin="round" stroke-miterlimit="10" points="
			398.258,522.935 410.631,523.658 403.357,535.318 404.818,539.691 401.17,538.23 401.918,542.604 393.918,539.691 
			393.918,528.029 393.168,522.938 398.258,522.938 		"/>
		
			<polygon id="Raiding" fill="#123456" stroke="#000000" stroke-width="0.1" stroke-linecap="round" stroke-linejoin="round" stroke-miterlimit="10" points="
			444.813,488.039 439.005,487.294 437.564,491.673 424.44,500.381 424.44,482.188 428.094,480.03 439.002,487.28 442.618,485.843 
			442.618,482.941 		"/>
		
			<polygon id="Ritzing" fill="#123456" stroke="#000000" stroke-width="0.1" stroke-linecap="round" stroke-linejoin="round" stroke-miterlimit="10" points="
			420.098,455.289 419.344,458.194 426.629,467.665 425.909,472.76 415.73,472.007 407.004,450.919 406.264,448.728 		"/>
		
			<polygon id="Steinberg-Dörfl" fill="#123456" stroke="#000000" stroke-width="0.1" stroke-linecap="round" stroke-linejoin="round" stroke-miterlimit="10" points="
			417.914,511.31 428.102,522.228 430.287,527.314 413.543,539.691 404.818,539.691 403.354,535.318 410.631,523.658 
			398.258,522.935 397.537,520.039 406.256,515.657 409.162,507.666 		"/>
		
			<polygon id="Stoob" fill="#123456" stroke="#000000" stroke-width="0.1" stroke-linecap="round" stroke-linejoin="round" stroke-miterlimit="10" points="
			424.443,499.667 424.443,500.388 429.533,506.229 417.914,511.323 409.162,507.672 407.001,506.229 409.903,500.388 
			417.188,493.855 		"/>
		
			<polygon id="Unterfrauenhaid" fill="#123456" stroke="#000000" stroke-width="0.1" stroke-linecap="round" stroke-linejoin="round" stroke-miterlimit="10" points="
			424.443,482.188 424.443,499.654 417.193,493.846 413.543,486.565 412.105,484.384 417.916,477.845 		"/>
		
			<polygon id="Unterrabnitz-Schwendgraben" fill="#123456" stroke="#000000" stroke-width="0.1" stroke-linecap="round" stroke-linejoin="round" stroke-miterlimit="10" points="
			393.911,528.033 393.911,539.691 390.257,542.602 377.161,525.133 386.629,522.938 		"/>
		
			<polygon id="Weingraben" fill="#123456" stroke="#000000" stroke-width="0.1" stroke-linecap="round" stroke-linejoin="round" stroke-miterlimit="10" points="
			377.878,497.476 382.976,501.142 390.257,504.759 389.55,505.478 390.257,506.226 388.816,508.388 386.635,506.947 
			385.885,506.947 389.545,509.852 386.635,512.757 377.878,507.657 370.639,497.474 373.544,499.659 375.702,495.283 		"/>
		
			<polygon id="Weppersdorf" fill="#123456" stroke="#000000" stroke-width="0.1" stroke-linecap="round" stroke-linejoin="round" stroke-miterlimit="10" points="
			411.352,482.947 407.004,482.196 405.544,485.851 398.258,489.478 397.541,484.38 393.918,483.658 396.075,480.756 
			393.168,480.756 396.83,473.47 391.729,469.094 387.356,458.189 393.918,457.48 395.355,451.656 		"/>
	</g>
	<g id="Oberwart">
		
			<polygon id="Bad_Tatzmannsdorf_2_" fill="#123456" stroke="#000000" stroke-width="0.1" stroke-linecap="round" stroke-linejoin="round" stroke-miterlimit="10" points="
			357.508,581.908 353.889,587.72 354.603,594.284 348.784,594.284 345.883,574.625 352.416,573.908 353.165,579.72 		"/>
		
			<polygon id="Badersdorf_2_" fill="#123456" stroke="#000000" stroke-width="0.1" stroke-linecap="round" stroke-linejoin="round" stroke-miterlimit="10" points="
			399.009,642.275 398.258,648.13 387.35,643.034 387.35,635.03 389.545,631.377 393.163,632.092 		"/>
		
			<polygon id="Bernstein_2_" fill="#123456" stroke="#000000" stroke-width="0.1" stroke-linecap="round" stroke-linejoin="round" stroke-miterlimit="10" points="
			372.07,554.224 363.354,555.691 366.258,563.684 364.076,565.155 358.973,561.501 353.886,567.317 348.074,555.691 
			342.963,552.775 341.503,547.688 354.599,536.775 361.877,533.847 366.248,534.595 365.531,540.414 		"/>
		
			<polygon id="Deutsch_Schützen-Eisenberg_2_" fill="#123456" stroke="#000000" stroke-width="0.1" stroke-linecap="round" stroke-linejoin="round" stroke-miterlimit="10" points="
			415.727,661.927 412.822,665.565 414.287,667.745 406.256,672.119 405.541,667.021 399.727,667.745 399.009,665.557 
			404.095,652.467 398.252,648.124 399.009,642.271 405.541,639.363 407.721,644.465 415.727,643.02 417.91,653.212 
			414.287,657.555 		"/>
		
			<polygon id="Grafenschachen_2_" fill="#123456" stroke="#000000" stroke-width="0.1" stroke-linecap="round" stroke-linejoin="round" stroke-miterlimit="10" points="
			308.755,576.813 300.043,580.44 297.136,571.006 293.513,571.006 292.758,568.094 300.757,565.91 301.511,568.816 
			307.325,568.094 		"/>
		
			<polygon id="Großpetersdorf_2_" fill="#123456" stroke="#000000" stroke-width="0.1" stroke-linecap="round" stroke-linejoin="round" stroke-miterlimit="10" points="
			384.442,613.189 382.976,617.559 388.072,616.847 390.26,621.19 389.55,631.38 387.36,635.033 378.637,637.939 368.454,628.477 
			369.884,617.567 371.356,615.382 374.98,615.382 373.544,605.921 377.888,605.921 		"/>
		
			<polygon id="Hannersdorf_2_" fill="#123456" stroke="#000000" stroke-width="0.1" stroke-linecap="round" stroke-linejoin="round" stroke-miterlimit="10" points="
			404.814,636.468 405.541,639.371 399.009,642.275 393.16,632.094 389.537,631.373 390.251,621.182 398.25,619.756 
			404.092,624.851 402.633,635.033 		"/>
		
			<polygon id="Jabing_2_" fill="#123456" stroke="#000000" stroke-width="0.1" stroke-linecap="round" stroke-linejoin="round" stroke-miterlimit="10" points="
			368.448,628.477 363.346,631.38 357.5,627.75 359.688,621.19 369.873,617.567 		"/>
		
			<polygon id="Kemeten_2_" fill="#123456" stroke="#000000" stroke-width="0.1" stroke-linecap="round" stroke-linejoin="round" stroke-miterlimit="10" points="
			338.6,616.847 337.169,626.286 332.068,629.936 324.036,629.936 321.133,623.37 323.315,622.658 318.944,616.097 321.881,612.47 
			327.696,609.563 333.507,610.285 		"/>
		
			<polygon id="Kohfidisch_2_" fill="#123456" stroke="#000000" stroke-width="0.1" stroke-linecap="round" stroke-linejoin="round" stroke-miterlimit="10" points="
			398.258,648.13 404.099,652.474 399.009,665.565 380.073,664.131 377.878,659.027 380.073,648.127 387.345,643.02 		"/>
		
			<polygon id="Litzelsdorf_2_" fill="#123456" stroke="#000000" stroke-width="0.1" stroke-linecap="round" stroke-linejoin="round" stroke-miterlimit="10" points="
			338.6,626.286 341.509,635.033 336.409,640.855 329.131,640.855 323.312,636.468 321.133,629.192 324.036,629.943 
			332.065,629.943 337.167,626.277 338.6,626.277 		"/>
		
			<polygon id="Loipersdorf-Kitzladen_2_" fill="#123456" stroke="#000000" stroke-width="0.1" stroke-linecap="round" stroke-linejoin="round" stroke-miterlimit="10" points="
			315.323,582.632 316.042,583.38 311.692,586.29 308.755,592.821 301.511,594.292 294.236,577.545 300.046,580.44 308.759,576.821 
					"/>
		
			<polygon id="Mariasdorf_2_" fill="#123456" stroke="#000000" stroke-width="0.1" stroke-linecap="round" stroke-linejoin="round" stroke-miterlimit="10" points="
			364.068,565.155 359.697,577.536 363.346,580.44 357.505,581.908 353.158,579.717 352.41,573.905 345.877,574.628 342.22,566.626 
			345.153,562.244 342.963,552.813 348.074,555.718 353.882,567.344 358.973,561.533 		"/>
		
			<polygon id="Markt_Allhau_2_" fill="#123456" stroke="#000000" stroke-width="0.1" stroke-linecap="round" stroke-linejoin="round" stroke-miterlimit="10" points="
			323.312,595.008 323.312,604.471 327.692,609.563 321.881,612.47 314.601,610.285 310.947,612.47 306.601,611.001 301.505,596.47 
			301.505,594.284 308.752,592.816 311.682,586.29 316.036,583.38 		"/>
		
			<polygon id="Markt_Neuhodis_2_" fill="#123456" stroke="#000000" stroke-width="0.1" stroke-linecap="round" stroke-linejoin="round" stroke-miterlimit="10" points="
			393.16,578.286 401.914,589.19 399.009,592.093 401.914,608.1 396.066,610.277 390.964,605.183 388.063,597.901 390.964,578.279 
			393.16,578.279 		"/>
		
			<polygon id="Mischendorf_2_" fill="#123456" stroke="#000000" stroke-width="0.1" stroke-linecap="round" stroke-linejoin="round" stroke-miterlimit="10" points="
			357.508,627.75 363.354,631.38 368.457,628.477 378.637,637.934 387.36,635.033 387.36,643.027 380.08,648.133 366.985,645.223 
			364.798,640.855 358.266,639.377 353.896,635.03 350.981,635.03 358.266,629.943 356.794,627.75 		"/>
		
			<polygon id="Neustift_an_der_Lafnitz_2_" fill="#123456" stroke="#000000" stroke-width="0.1" stroke-linecap="round" stroke-linejoin="round" stroke-miterlimit="10" points="
			300.043,580.44 294.231,577.536 288.425,573.198 292.758,571.002 297.139,571.002 		"/>
		
			<polygon id="Oberdorf_im_Burgenland_2_" fill="#123456" stroke="#000000" stroke-width="0.1" stroke-linecap="round" stroke-linejoin="round" stroke-miterlimit="10" points="
			356.785,627.75 358.256,629.943 350.977,635.038 341.509,635.038 338.6,626.289 348.074,624.105 		"/>
		
			<polygon id="Oberschützen_2_" fill="#123456" stroke="#000000" stroke-width="0.1" stroke-linecap="round" stroke-linejoin="round" stroke-miterlimit="10" points="
			342.966,552.775 345.162,562.223 342.223,566.593 345.883,574.591 348.788,594.259 348.074,596.433 337.88,597.153 
			332.789,592.782 334.22,588.44 326.974,576.057 329.131,574.591 336.409,562.975 329.893,549.126 332.068,548.404 
			341.503,547.691 		"/>
		
			<polygon id="Oberwart_1_" fill="#123456" stroke="#000000" stroke-width="0.1" stroke-linecap="round" stroke-linejoin="round" stroke-miterlimit="10" points="
			332.792,592.816 337.888,597.19 348.081,596.47 348.792,594.292 354.609,594.292 356.788,600.816 351.697,603.723 
			354.603,608.817 348.077,610.285 338.6,616.85 333.507,610.285 327.692,609.563 323.312,604.471 323.312,595.008 329.131,591.382 
					"/>
		
			<polygon id="Pinkafeld_2_" fill="#123456" stroke="#000000" stroke-width="0.1" stroke-linecap="round" stroke-linejoin="round" stroke-miterlimit="10" points="
			316.042,552.775 319.696,557.879 319.696,563.7 329.131,574.599 326.974,576.071 315.312,582.598 308.752,576.792 
			307.313,568.074 301.501,568.791 300.75,565.883 301.501,565.172 307.313,554.978 310.936,555.691 307.316,560.07 
			310.224,562.979 313.881,560.799 311.682,552.791 316.039,552.791 		"/>
		
			<polygon id="Rechnitz_2_" fill="#123456" stroke="#000000" stroke-width="0.1" stroke-linecap="round" stroke-linejoin="round" stroke-miterlimit="10" points="
			420.818,606.659 416.441,608.104 415.003,604.471 409.162,608.817 401.918,608.104 399.009,592.107 401.918,589.199 
			393.163,578.289 407.004,574.637 415.727,581.908 423.723,603.726 		"/>
		
			<polygon id="Riedlingsdorf_2_" fill="#123456" stroke="#000000" stroke-width="0.1" stroke-linecap="round" stroke-linejoin="round" stroke-miterlimit="10" points="
			332.792,592.816 329.137,591.382 323.315,595.008 316.046,583.391 315.328,582.632 326.989,576.101 334.234,588.44 		"/>
		
			<polygon id="Rotenturm_an_der_Pinka_2_" fill="#123456" stroke="#000000" stroke-width="0.1" stroke-linecap="round" stroke-linejoin="round" stroke-miterlimit="10" points="
			371.35,615.382 369.878,617.567 359.697,621.19 357.508,627.75 356.788,627.75 348.074,624.098 357.515,611.751 364.076,612.47 
			358.973,603.72 361.877,600.816 		"/>
		
			<polygon id="Schachendorf_2_" fill="#123456" stroke="#000000" stroke-width="0.1" stroke-linecap="round" stroke-linejoin="round" stroke-miterlimit="10" points="
			420.818,606.659 421.538,611.759 417.91,616.102 407.721,617.559 401.914,614.666 398.252,617.559 398.252,619.756 
			390.257,621.19 388.065,616.847 382.969,617.559 384.439,613.189 390.251,613.189 390.964,605.189 396.066,610.285 401.914,608.1 
			409.156,608.813 415.003,604.471 416.441,608.1 		"/>
		
			<polygon id="Schandorf_2_" fill="#123456" stroke="#000000" stroke-width="0.1" stroke-linecap="round" stroke-linejoin="round" stroke-miterlimit="10" points="
			407.725,617.559 410.627,617.559 410.627,630.65 404.814,636.468 402.633,635.03 404.092,624.842 398.25,619.751 398.25,617.559 
			401.91,614.65 		"/>
		
			<polygon id="Stadtschlaining_2_" fill="#123456" stroke="#000000" stroke-width="0.1" stroke-linecap="round" stroke-linejoin="round" stroke-miterlimit="10" points="
			376.444,578.999 368.448,584.104 369.161,589.199 373.542,594.297 373.542,605.924 374.972,615.385 371.35,615.385 
			361.877,600.823 356.781,600.823 354.599,594.301 353.886,587.733 357.505,581.925 363.349,580.455 359.697,577.545 
			364.073,565.178 366.258,563.738 374.98,573.206 372.787,576.108 		"/>
		
			<polygon id="Unterkohlstätten_2_" fill="#123456" stroke="#000000" stroke-width="0.1" stroke-linecap="round" stroke-linejoin="round" stroke-miterlimit="10" points="
			382.973,557.903 388.068,563.011 390.26,572.439 388.816,575.352 379.353,578.289 379.353,583.391 376.444,579.01 
			372.793,576.108 374.98,573.198 366.258,563.73 363.357,555.732 372.073,554.264 378.637,559.359 		"/>
		
			<polygon id="Unterwart_2_" fill="#123456" stroke="#000000" stroke-width="0.1" stroke-linecap="round" stroke-linejoin="round" stroke-miterlimit="10" points="
			361.877,600.816 358.973,603.72 364.076,612.47 357.515,611.751 348.074,624.092 338.604,626.277 337.169,626.277 
			338.604,616.844 348.074,610.271 354.603,608.813 351.7,603.72 356.792,600.811 361.885,600.811 		"/>
		
			<polygon id="Weiden_bei_Rechnitz_2_" fill="#123456" stroke="#000000" stroke-width="0.1" stroke-linecap="round" stroke-linejoin="round" stroke-miterlimit="10" points="
			390.971,578.286 388.065,597.907 390.971,605.189 390.257,613.189 384.442,613.189 377.878,605.905 373.535,605.905 
			373.535,594.278 369.161,589.19 368.448,584.086 376.444,578.987 379.346,583.367 379.346,578.272 388.813,575.33 		"/>
		
			<polygon id="Wiesfleck_2_" fill="#123456" stroke="#000000" stroke-width="0.1" stroke-linecap="round" stroke-linejoin="round" stroke-miterlimit="10" points="
			329.131,574.625 319.696,563.725 319.696,557.903 316.042,552.816 323.312,551.341 329.89,549.156 336.409,563.001 		"/>
		
			<polygon id="Wolfau_2_" fill="#123456" stroke="#000000" stroke-width="0.1" stroke-linecap="round" stroke-linejoin="round" stroke-miterlimit="10" points="
			321.881,612.47 318.948,616.097 323.315,622.658 321.133,623.37 324.039,629.936 321.133,629.189 313.892,627.758 
			310.238,627.758 307.333,612.473 306.609,611.009 310.956,612.473 314.608,610.29 		"/>
	</g>
	<g id="Rust_x28_Stadt_x29_">
		
			<polygon id="Rust_1_" fill="#123456" stroke="#000000" stroke-width="0.1" stroke-linecap="round" stroke-linejoin="round" stroke-miterlimit="10" points="
			482.658,381.795 480.462,393.449 463.744,391.26 457.195,378.888 459.375,376.694 464.471,375.983 464.471,380.351 		"/>
	</g>
</g>
<g id="Beschreibungen_1_">
	<g id="Beschreibungen_2_">
		<text id="Titel2_1_" transform="matrix(1 0 0 1 188 228.2832)" font-family="'ArialMT'" font-size="30">%titel2%</text>
		<text id="Titel1_1_" transform="matrix(0.6758 0 0 1 183.9771 183.6689)" font-family="'ArialMT'" font-size="61.9146">%titel1%</text>
	</g>
	<text transform="matrix(1 0 0 1 441.2275 742.0771)" enable-background="new    "><tspan x="0" y="0" font-family="'ArialMT'" font-size="11.4028">V</tspan><tspan x="7.399" y="0" font-family="'ArialMT'" font-size="11.4028">isualisierung erstellt mit</tspan></text>
	<text transform="matrix(1 0 0 1 470.624 755.7607)" font-family="'ArialMT'" font-size="11.4028">DataMaps.eu</text>
	<text transform="matrix(1 0 0 1 450.7324 769.4434)" font-family="'ArialMT'" font-size="11.4028">provided by open3.at</text>
	<g id="open3-logo_1_">
		<path fill="#007CC1" d="M512.813,793.365c0-2.43-1.157-3.813-2.598-4.578c1.327-0.706,2.315-1.948,2.315-4.123
			c0-3.385-2.575-5.762-6.127-5.762c-3.389,0-6.076,2.148-6.156,5.735h3.671c0.085-1.522,1.101-2.427,2.485-2.427
			c1.322,0,2.451,0.876,2.451,2.57c0,1.412-0.763,2.513-2.542,2.513h-0.536v3.191h0.536c1.808,0,2.825,1.102,2.825,2.768
			c0,1.81-1.131,2.796-2.715,2.796c-1.439,0-2.679-0.815-2.738-2.626h-3.668c0.055,4.212,3.135,5.93,6.409,5.93
			C509.878,799.35,512.813,797.374,512.813,793.365z"/>
		<path fill="#9C9D9F" d="M447.246,789.494c0,4.66-1.859,7.741-4.855,7.741c-2.886,0-5.021-3.08-5.021-8.295
			c0-4.55,1.72-7.63,4.855-7.63C445.275,781.31,447.246,784.416,447.246,789.494z M450.852,789.273
			c0-6.243-3.579-10.104-8.572-10.104c-4.994,0-8.544,3.858-8.544,10.104c0,6.657,3.8,10.318,8.54,10.318
			C447.023,799.592,450.852,795.931,450.852,789.273z"/>
		<path fill="#9C9D9F" d="M462.93,791.769c0,3.495-1.47,5.85-3.801,5.85c-1.082,0-1.719-0.332-2.164-0.688v-9.21
			c0-1,0.689-1.526,2.081-1.526C460.961,786.192,462.93,787.969,462.93,791.769z M466.148,791.603c0-3.883-1.882-7.158-7.014-7.158
			c-1.748,0-3.523,0.445-4.277,0.944c-0.777,0.527-1.049,1.025-1.049,2.025v16.065c0,0.333,0.166,0.476,0.499,0.476h2.187
			c0.334,0,0.477-0.143,0.477-0.476v-4.718c0.355,0.25,1.332,0.749,2.715,0.749C464.039,799.508,466.148,795.459,466.148,791.603z"
			/>
		<path fill="#9C9D9F" d="M477.49,789.549l-6.021,1.027c0.116-2.165,1.054-4.384,3.278-4.384
			C476.713,786.192,477.406,787.829,477.49,789.549z M480.597,794.849c0-0.361-0.276-0.694-0.638-0.694
			c-0.333,0-0.582,0.25-0.716,0.5c-0.583,1.025-1.749,2.357-3.523,2.357c-2.663,0-3.944-2.247-4.111-4.854l8.073-1.331
			c0.582-0.083,0.833-0.278,0.833-0.884c0-2.805-1.97-5.493-5.437-5.493c-3.307,0-6.354,2.303-6.354,7.463
			c0,5.438,2.996,7.63,6.354,7.63C478.627,799.537,480.597,796.513,480.597,794.849z"/>
		<path fill="#9C9D9F" d="M495.377,798.704v-9.987c0-3.329-2.996-4.272-5.937-4.272c-2.053,0-3.745,0.384-4.661,0.832
			c-0.832,0.417-1.109,0.806-1.109,1.716v11.707c0,0.332,0.166,0.472,0.5,0.472h2.191c0.332,0,0.5-0.14,0.5-0.472v-10.707
			c0-0.884,0.217-1.83,2.469-1.83c2.215,0,2.879,1.331,2.879,2.69v9.848c0,0.333,0.145,0.473,0.477,0.473h2.215
			C495.238,799.176,495.377,799.037,495.377,798.704z"/>
		<path fill="#007CC1" d="M517.727,797.927c0-1.977-2.782-1.6-2.782-2.885c0-0.551,0.364-0.883,0.935-0.883
			c0.561,0,0.799,0.384,0.934,0.686c0.072,0.155,0.197,0.29,0.385,0.29c0.229,0,0.395-0.125,0.395-0.383
			c0-0.351-0.514-1.102-1.691-1.102c-1.037,0-1.785,0.55-1.785,1.495c0,1.795,2.75,1.422,2.75,2.874
			c0,0.498-0.332,0.904-0.975,0.904c-0.607,0-0.939-0.499-1.074-0.85c-0.058-0.178-0.184-0.312-0.415-0.312
			c-0.251,0-0.417,0.15-0.417,0.414c0,0.437,0.68,1.309,1.874,1.309C517.063,799.483,517.727,798.818,517.727,797.927z"/>
		<path fill="#007CC1" d="M522.977,796.608c0,1.358-0.57,2.294-1.547,2.294c-0.934,0-1.619-0.936-1.619-2.471
			c0-1.318,0.561-2.247,1.566-2.247C522.354,794.189,522.977,795.124,522.977,796.608z M523.89,796.534
			c0-1.774-1.017-2.885-2.491-2.885c-1.473,0-2.501,1.11-2.501,2.885c0,1.899,1.101,2.947,2.501,2.947
			C522.801,799.481,523.89,798.434,523.89,796.534z"/>
		<path fill="#007CC1" d="M529.471,798.423c0-0.138-0.071-0.216-0.191-0.216c-0.077,0-0.135,0.041-0.213,0.103
			c-0.229,0.229-0.611,0.54-1.281,0.54c-1.059,0-1.764-1.038-1.764-2.48c0-1.401,0.633-2.199,1.535-2.199
			c0.758,0,1.016,0.477,1.142,0.737c0.072,0.145,0.187,0.29,0.384,0.29c0.229,0,0.389-0.136,0.389-0.384
			c0-0.375-0.6-1.163-1.867-1.163c-1.582,0-2.485,1.317-2.485,2.865c0,1.612,0.831,2.969,2.548,2.969
			C528.756,799.483,529.471,798.746,529.471,798.423z"/>
		<path fill="#007CC1" d="M531.674,799.244v-5.354c0-0.083-0.047-0.12-0.125-0.12h-0.623c-0.082,0-0.125,0.041-0.125,0.12v5.354
			c0,0.084,0.047,0.125,0.125,0.125h0.623C531.631,799.369,531.674,799.326,531.674,799.244z"/>
		<path fill="#007CC1" d="M536.486,799.244v-0.322c0-0.082-0.041-0.12-0.124-0.12h-2.081v-2.066h1.775
			c0.083,0,0.125-0.044,0.125-0.123v-0.301c0-0.083-0.042-0.125-0.125-0.125h-1.775v-1.848h2.081c0.083,0,0.124-0.045,0.124-0.124
			v-0.324c0-0.082-0.041-0.12-0.124-0.12h-2.833c-0.083,0-0.119,0.042-0.119,0.12v5.355c0,0.083,0.041,0.125,0.119,0.125h2.833
			C536.445,799.369,536.486,799.326,536.486,799.244z"/>
		<path fill="#007CC1" d="M541.135,794.211v-0.321c0-0.083-0.052-0.12-0.135-0.12h-3.58c-0.083,0-0.135,0.041-0.135,0.12v0.321
			c0,0.083,0.052,0.123,0.135,0.123h1.359v4.898c0,0.094,0.041,0.137,0.135,0.137h0.602c0.094,0,0.135-0.043,0.135-0.137v-4.898H541
			C541.083,794.336,541.135,794.294,541.135,794.211z"/>
		<path fill="#007CC1" d="M545.896,793.89c0-0.083-0.053-0.12-0.135-0.12h-0.467c-0.094,0-0.135,0.031-0.188,0.113l-1.245,2.221
			h-0.021l-1.215-2.221c-0.053-0.082-0.094-0.113-0.188-0.113h-0.633c-0.083,0-0.125,0.041-0.125,0.12
			c0,0.03,0.016,0.076,0.031,0.116l1.641,2.761v2.48c0,0.082,0.047,0.125,0.125,0.125h0.623c0.082,0,0.125-0.044,0.125-0.125v-2.48
			l1.639-2.761C545.887,793.972,545.896,793.92,545.896,793.89z"/>
		<path fill="#007CC1" d="M517.871,789.071c0,1.444-0.633,2.337-2.055,2.337c-0.27,0-0.509-0.031-0.645-0.053v-4.566
			c0.104-0.021,0.364-0.041,0.645-0.041C517.187,786.746,517.871,787.629,517.871,789.071z M518.774,789.081
			c0-1.722-0.944-2.854-3.01-2.854c-0.649,0-1.204,0.073-1.339,0.116c-0.109,0.031-0.124,0.084-0.124,0.177v5.146
			c0,0.09,0.017,0.146,0.124,0.177c0.145,0.043,0.8,0.114,1.339,0.114C517.83,791.956,518.774,790.889,518.774,789.081z"/>
		<path fill="#007CC1" d="M522.966,789.611h-1.785l0.622-1.754c0.167-0.467,0.26-1.016,0.26-1.016h0.021c0,0,0.104,0.55,0.27,1.016
			L522.966,789.611z M524.616,791.781c0-0.032-0.021-0.094-0.031-0.125l-2.015-5.24c-0.031-0.084-0.063-0.125-0.15-0.125h-0.576
			c-0.104,0-0.135,0.041-0.166,0.125l-2.003,5.24c-0.017,0.042-0.031,0.093-0.031,0.125c0,0.072,0.047,0.113,0.125,0.113h0.487
			c0.088,0,0.135-0.041,0.166-0.12l0.586-1.66h2.117l0.582,1.66c0.031,0.084,0.078,0.12,0.155,0.12h0.622
			C524.574,791.895,524.616,791.854,524.616,791.781z"/>
		<path fill="#007CC1" d="M528.703,786.737v-0.321c0-0.083-0.05-0.124-0.135-0.124h-3.578c-0.084,0-0.135,0.041-0.135,0.124v0.321
			c0,0.083,0.05,0.12,0.135,0.12h1.359v4.898c0,0.094,0.041,0.135,0.135,0.135h0.602c0.094,0,0.135-0.041,0.135-0.135v-4.897h1.349
			C528.652,786.861,528.703,786.819,528.703,786.737z"/>
		<path fill="#007CC1" d="M532.262,789.611h-1.781l0.617-1.754c0.167-0.467,0.26-1.016,0.26-1.016h0.021c0,0,0.104,0.55,0.27,1.016
			L532.262,789.611z M533.912,791.781c0-0.032-0.021-0.094-0.031-0.125l-2.015-5.24c-0.032-0.084-0.058-0.125-0.151-0.125h-0.57
			c-0.109,0-0.135,0.041-0.166,0.125l-2.009,5.24c-0.017,0.042-0.031,0.093-0.031,0.125c0,0.072,0.047,0.113,0.124,0.113h0.488
			c0.094,0,0.135-0.041,0.166-0.12l0.592-1.66h2.113l0.584,1.66c0.031,0.084,0.072,0.12,0.15,0.12h0.622
			C533.871,791.895,533.912,791.854,533.912,791.781z"/>
		<path fill="#007CC1" d="M518.691,783.705v-2.097c0-0.083-0.063-0.121-0.15-0.121h-1.709c-0.084,0-0.125,0.043-0.125,0.121v0.283
			c0,0.083,0.041,0.134,0.125,0.134h1.037v1.37c0,0.333-0.498,0.561-1.172,0.561c-0.977,0-1.715-1.007-1.715-2.49
			c0-1.349,0.602-2.243,1.66-2.243c0.82,0,1.121,0.484,1.25,0.737c0.072,0.157,0.176,0.281,0.383,0.281
			c0.25,0,0.385-0.146,0.385-0.383c0-0.344-0.521-1.152-1.947-1.152c-1.613,0-2.646,1.174-2.646,2.886
			c0,1.847,1.1,2.946,2.667,2.946C517.851,784.535,518.691,784.11,518.691,783.705z"/>
		<path fill="#007CC1" d="M524.189,781.66c0,1.359-0.57,2.293-1.549,2.293c-0.934,0-1.614-0.934-1.614-2.471
			c0-1.317,0.56-2.245,1.566-2.245C523.566,779.242,524.189,780.177,524.189,781.66z M525.103,781.587
			c0-1.774-1.015-2.885-2.491-2.885c-1.474,0-2.501,1.115-2.501,2.885c0,1.899,1.099,2.947,2.501,2.947
			C524.014,784.535,525.103,783.486,525.103,781.587z"/>
		<path fill="#007CC1" d="M530.644,778.941c0-0.084-0.052-0.12-0.134-0.12h-0.53c-0.094,0-0.136,0.042-0.167,0.12l-1.313,3.778
			c-0.114,0.344-0.191,0.757-0.191,0.757h-0.021c0,0-0.063-0.415-0.177-0.757l-1.286-3.778c-0.032-0.084-0.084-0.12-0.166-0.12
			h-0.666c-0.082,0-0.125,0.042-0.125,0.12c0,0.031,0.018,0.083,0.033,0.125l1.961,5.229c0.031,0.083,0.072,0.125,0.166,0.125h0.436
			c0.104,0,0.15-0.042,0.183-0.125l1.972-5.229C530.633,779.024,530.644,778.973,530.644,778.941z"/>
		<path fill="#007CC1" d="M534.824,784.296v-0.316c0-0.083-0.041-0.124-0.119-0.124h-2.087v-2.067h1.774
			c0.084,0,0.125-0.042,0.125-0.123v-0.301c0-0.083-0.041-0.125-0.125-0.125h-1.774v-1.848h2.086c0.083,0,0.12-0.046,0.12-0.124
			v-0.321c0-0.083-0.041-0.12-0.12-0.12h-2.837c-0.083,0-0.119,0.042-0.119,0.12v5.354c0,0.083,0.041,0.125,0.119,0.125h2.837
			C534.783,784.421,534.824,784.381,534.824,784.296z"/>
		<path fill="#007CC1" d="M538.933,780.415c0,0.683-0.499,1.143-1.433,1.143c-0.213,0-0.379,0-0.467-0.011v-2.262
			c0.135-0.021,0.332-0.052,0.664-0.052C538.559,779.232,538.933,779.647,538.933,780.415z M540.033,784.296
			c0-0.03-0.021-0.071-0.047-0.113l-0.914-1.672c-0.166-0.315-0.445-0.591-0.643-0.684v-0.021c0.665-0.152,1.357-0.634,1.357-1.449
			c0-0.949-0.589-1.598-2.083-1.598c-0.676,0-1.235,0.072-1.392,0.113c-0.104,0.031-0.125,0.073-0.125,0.166v5.262
			c0,0.083,0.047,0.125,0.125,0.125h0.592c0.083,0,0.125-0.042,0.125-0.125v-2.334h0.373c0.373,0,0.633,0.332,0.779,0.622
			l0.871,1.734c0.031,0.061,0.109,0.103,0.214,0.103h0.643C539.991,784.421,540.033,784.381,540.033,784.296z"/>
		<path fill="#007CC1" d="M545.883,784.296v-5.354c0-0.084-0.041-0.12-0.119-0.12h-0.45c-0.083,0-0.119,0.042-0.119,0.12v3.394
			c0,0.467,0.057,1.018,0.057,1.018h-0.028c0,0-0.241-0.514-0.512-0.904l-2.396-3.512c-0.051-0.084-0.094-0.119-0.183-0.119h-0.681
			c-0.082,0-0.119,0.04-0.119,0.119v5.355c0,0.082,0.042,0.124,0.119,0.124h0.457c0.083,0,0.125-0.042,0.125-0.124v-3.664
			c0-0.416-0.053-0.965-0.053-0.965h0.021c0,0,0.238,0.509,0.481,0.882l2.554,3.746c0.052,0.083,0.083,0.124,0.188,0.124h0.528
			C545.842,784.421,545.883,784.381,545.883,784.296z"/>
		<path fill="#007CC1" d="M553.499,784.318c0-0.033-0.539-5.377-0.539-5.377c-0.011-0.084-0.042-0.12-0.124-0.12h-0.676
			c-0.083,0-0.124,0.051-0.155,0.12l-1.359,3.611c-0.136,0.365-0.216,0.812-0.216,0.812h-0.021c0,0-0.09-0.446-0.229-0.812
			l-1.349-3.611c-0.031-0.073-0.072-0.12-0.155-0.12h-0.683c-0.083,0-0.117,0.042-0.125,0.12c0,0-0.539,5.344-0.539,5.377
			c0,0.071,0.05,0.103,0.124,0.103h0.509c0.083,0,0.114-0.042,0.124-0.125l0.285-3.632c0.033-0.447,0.033-1.069,0.033-1.069h0.021
			c0,0,0.146,0.622,0.312,1.069l1.349,3.646c0.031,0.083,0.062,0.113,0.151,0.113h0.26c0.094,0,0.125-0.03,0.154-0.113l1.349-3.646
			c0.167-0.456,0.317-1.069,0.317-1.069h0.016c0,0,0,0.622,0.031,1.069l0.291,3.632c0.011,0.083,0.041,0.125,0.125,0.125h0.603
			C553.469,784.421,553.499,784.39,553.499,784.318z"/>
		<path fill="#007CC1" d="M558.024,784.296v-0.316c0-0.083-0.041-0.124-0.124-0.124h-2.082v-2.067h1.775
			c0.083,0,0.124-0.042,0.124-0.123v-0.301c0-0.083-0.041-0.125-0.124-0.125h-1.775v-1.848h2.082c0.083,0,0.124-0.046,0.124-0.124
			v-0.321c0-0.083-0.041-0.12-0.124-0.12h-2.834c-0.084,0-0.124,0.042-0.124,0.12v5.354c0,0.083,0.046,0.125,0.124,0.125h2.834
			C557.983,784.421,558.024,784.381,558.024,784.296z"/>
		<path fill="#007CC1" d="M563.928,784.296v-5.354c0-0.084-0.041-0.12-0.119-0.12h-0.449c-0.084,0-0.12,0.042-0.12,0.12v3.394
			c0,0.467,0.058,1.018,0.058,1.018h-0.029c0,0-0.241-0.514-0.51-0.904l-2.398-3.512c-0.049-0.084-0.093-0.119-0.182-0.119h-0.68
			c-0.083,0-0.119,0.04-0.119,0.119v5.355c0,0.082,0.041,0.124,0.119,0.124h0.457c0.084,0,0.124-0.042,0.124-0.124v-3.664
			c0-0.416-0.052-0.965-0.052-0.965h0.021c0,0,0.239,0.509,0.487,0.882l2.549,3.746c0.052,0.083,0.083,0.124,0.187,0.124h0.53
			C563.887,784.421,563.928,784.381,563.928,784.296z"/>
		<path fill="#007CC1" d="M568.908,779.263v-0.321c0-0.084-0.053-0.12-0.135-0.12h-3.581c-0.083,0-0.135,0.042-0.135,0.12v0.321
			c0,0.083,0.052,0.124,0.135,0.124h1.36v4.898c0,0.094,0.047,0.136,0.134,0.136h0.602c0.094,0,0.136-0.042,0.136-0.136v-4.898
			h1.349C568.855,779.387,568.908,779.346,568.908,779.263z"/>
	</g>
	<g id="Skala_1_">
		<rect id="rect4459_1_" x="188.267" y="284.359" fill="#111101" width="12.375" height="11.78"/>
		<text transform="matrix(1.0506 0 0 1 206.9004 294.5889)" font-family="'ArialMT'" font-size="12.8511">%legende1%</text>
		<rect id="rect4459-1_1_" x="188.267" y="300.59" fill="#111102" width="12.375" height="11.783"/>
		<text transform="matrix(1.0506 0 0 1 206.9004 310.8203)" font-family="'ArialMT'" font-size="12.8511">%legende2%</text>
		<rect id="rect4459-2_1_" x="188.267" y="316.822" fill="#111103" width="12.375" height="11.782"/>
		<text transform="matrix(1.0506 0 0 1 206.9004 327.0508)" font-family="'ArialMT'" font-size="12.8511">%legende3%</text>
		<rect id="rect4459-6_1_" x="188.267" y="333.056" fill="#111104" width="12.375" height="11.78"/>
		<text transform="matrix(1.0506 0 0 1 206.9004 343.2842)" font-family="'ArialMT'" font-size="12.8511">%legende4%</text>
		<rect id="rect4459-29_1_" x="188.267" y="349.285" fill="#111105" width="12.375" height="11.783"/>
		<text transform="matrix(1.0506 0 0 1 206.9004 359.5151)" font-family="'ArialMT'" font-size="12.8511">%legende5%</text>
		<rect id="rect4459-3_1_" x="188.267" y="365.518" fill="#111106" width="12.375" height="11.783"/>
		<text transform="matrix(1.0506 0 0 1 206.9004 375.7476)" font-family="'ArialMT'" font-size="12.8511">%legende6%</text>
		<rect id="rect4459-8_1_" x="188.267" y="381.75" fill="#111107" width="12.375" height="11.781"/>
		<text transform="matrix(1.0506 0 0 1 206.9004 391.979)" font-family="'ArialMT'" font-size="12.8511">%legende7%</text>
		<rect id="rect4459-9_1_" x="188.267" y="397.98" fill="#111108" width="12.375" height="11.781"/>
		<text transform="matrix(1.0506 0 0 1 206.9004 408.2114)" font-family="'ArialMT'" font-size="12.8511">%legende8%</text>
		<rect id="rect4459-18_1_" x="188.267" y="414.211" fill="#111109" width="12.375" height="11.783"/>
		<text transform="matrix(1.0506 0 0 1 206.9004 424.4419)" font-family="'ArialMT'" font-size="12.8511">%legende9%</text>
		<rect id="rect4459-18-6_1_" x="188.267" y="430.444" fill="#111110" width="12.375" height="11.783"/>
		<text transform="matrix(1.0506 0 0 1 206.9004 440.6724)" font-family="'ArialMT'" font-size="12.8511">%legende10%</text>
	</g>
</g>
</svg>
