<?xml version="1.0" encoding="utf-8"?>
<!-- Generator: Adobe Illustrator 13.0.2, SVG Export Plug-In . SVG Version: 6.00 Build 14948)  -->
<!DOCTYPE svg PUBLIC "-//W3C//DTD SVG 1.1//EN" "http://www.w3.org/Graphics/SVG/1.1/DTD/svg11.dtd">
<svg version="1.1"
	 id="England-London" xmlns:inkscape="http://www.inkscape.org/namespaces/inkscape" xmlns:sodipodi="http://sodipodi.sourceforge.net/DTD/sodipodi-0.dtd" sodipodi:docname="wien_bezirke.svg" inkscape:version="0.47 r22583" xmlns:dc="http://purl.org/dc/elements/1.1/" xmlns:rdf="http://www.w3.org/1999/02/22-rdf-syntax-ns#" xmlns:cc="http://creativecommons.org/ns#" xmlns:svg="http://www.w3.org/2000/svg"
	 xmlns="http://www.w3.org/2000/svg" xmlns:xlink="http://www.w3.org/1999/xlink" x="0px" y="0px" width="1307.33px"
	 height="987.961px" viewBox="0 0 1307.33 987.961" enable-background="new 0 0 1307.33 987.961" xml:space="preserve">
<g id="Borough">
	<path id="Barking__x26__Dagenham" fill="#123456" stroke="#000000" stroke-width="3.5" d="M744.243,476.721l-6.272-27.624
		l21.272-11.568l12.579,5.807l39.675-42.578l-2.9-37.74l27.095-30.965l2.417,25.643l-1.45,26.127l-5.807,8.709l20.805,13.064
		l24.677-3.871l11.129,24.191l-29.516,48.869l-7.257,38.706l-34.353-9.676l-34.852,6.747l-12.564-24.164L744.243,476.721z"/>
	<path id="Barnet" fill="#123456" stroke="#000000" stroke-width="3.5" stroke-linejoin="round" d="M351.99,403.047l-5.944-1.321
		l-4.838,6.293l-7.258-21.775l5.807-10.162l-70.157-98.22l54.675-13.063l10.645-30.966l20.807-0.968l35.318-21.772l28.546-5.807
		v15.483l35.804,9.677l2.903,20.321l29.514,29.998L467.488,312.7l6.774,11.129l-8.228,24.191l-9.676-12.58l-6.289,12.58
		l0.482,21.288l-11.611,23.224l-36.771,38.224h-22.31l-20.754-26.127L351.99,403.047z"/>
	<path id="Bexley" fill="#123456" stroke="#000000" stroke-width="3.5" stroke-linejoin="round" d="M791.66,587.518l13.548-12.096
		l-2.01-68.032l12.441-3.387l34.664,9.378l16.085,9.129l10.476,32.234l10.477,8.058l31.428-4.835l10.479,9.671l-15.313,36.262
		l-62.854,74.943l4.834,39.892l-39.89-14.908l-20.146,4.836l-38.569-37.439l-4.839-5.806l8.213-9.094l5.334-5.904l-0.969-24.193
		l-8.225-6.288l1.451-19.354l20.32-13.547L791.66,587.518z"/>
	<path id="Brent" fill="#123456" stroke="#000000" stroke-width="3.5" stroke-linejoin="round" d="M288.26,358.215l13.238-5.884
		l16.048-7.133l22.209,30.883l-5.807,10.162l7.74,23.223l4.355-7.741l13.063,2.903l54.191,68.222l-4.839,13.063l-18.869-6.774
		l-5.323,7.741l-38.368-3.488l0.629-1.837l-16.45-8.225l-12.095,14.031h-17.902V470.91l-22.741,11.128l-12.579-27.579
		l-29.998-15.483l9.021-24.355l1.334-21.812l25.551-18.323l26.268,2.169L288.26,358.215z"/>
	<path id="Bromley" fill="#123456" stroke="#000000" stroke-width="3.5" d="M559.939,700.523l1.941-15.689l35.277,9.13l19.837-6.29
		l16.935,9.194l-5.323,7.257l15.485,8.708l44.995-32.901l13.064,9.676l4.839-18.386l-12.097-8.226l0.482-8.71l4.839-2.902
		l36.771,36.774l20.096-16.74l38.795,37.243l20.146-4.836l39.889,14.908l4.028,24.577l-12.088,7.653l-16.116,88.646l-16.923,1.208
		l-4.433,27.803l-36.666,27.397l11.546,41.188l-61.104,10.385l-17.729-19.381l-22.047,23.097L665.94,882.97l-4.025-22.433
		l-2.375-13.235l-2.137-11.903l-9.664-9.662l-20.068-44.602l-11.894,7.435v-20.813l-20.813-27.503l-5.203,2.974L559.939,700.523z"/>
	<path id="Camden" fill="#123456" stroke="#000000" stroke-width="3.5" stroke-linejoin="round" d="M402.172,430.756l30.068-31.257
		l42.99,1.742l1.937,27.095l26.127,36.287l14.515,42.093l-20.322,7.741l-22.741-14.516l-12.58-29.997l-39.675-2.42l-9.191,5.325
		l-32.482-40.893L402.172,430.756z"/>
	<path id="City_of_London" fill="#123456" stroke="#000000" stroke-width="3.5" stroke-linejoin="round" d="M517.807,506.716
		l15.967-10.158l10.643,6.773l7.259-4.354l5.807-0.483l6.289,17.419l-8.71,13.546l-15.967-3.871l-19.176,1.17L517.807,506.716z"/>
	<path id="City_of_Westminster" fill="#123456" stroke="#000000" stroke-width="3.5" d="M386.688,495.104l17.901,4.84l25.159,46.933
		h15.967l10.645-10.161l7.258,33.869l29.998,1.453l12.097-45.482l14.208,0.201l-2.112-20.04l-17.969,6.845l-25.094-13.618
		l-12.579-29.997l-39.676-2.42l-9.191,5.325l-4.838,13.063l-18.87-6.774l-5.323,7.741L386.688,495.104z"/>
	<path id="Croydon" fill="#123456" stroke="#000000" stroke-width="3.5" d="M559.284,700.45l30.478,42.774l5.203-2.973
		l20.813,27.503v20.813l11.894-7.435l20.068,44.602l9.664,9.661l8.537,47.572l-29.351-19.326l-31.219,17.099l-0.745,11.892
		l-46.086,11.896l-1.487,11.894l-38.652,51.29l-23.786-18.585l-22.3-7.434l-5.947-37.908l17.841-8.176l-4.461-35.682l39.396-14.866
		l-21.107-68.526l-5.541-14.238l9.829-18.499l-5.319-22.518l19.484-25.547L559.284,700.45z"/>
	<path id="Ealing" fill="#123456" stroke="#000000" stroke-width="3.5" stroke-linejoin="round" d="M151.059,547.845l24.677,7.739
		l8.225-3.871l12.58,11.612l20.322-14.031l8.709,8.226l50.802-2.42l10.646-10.646l13.548-0.482l14.997,11.612l19.354-0.969
		l3.871-13.063l7.739-7.259l-5.806-35.803l5.806-16.936l-16.45-8.225l-12.095,14.031h-17.901V470.91l-22.742,11.128l-12.579-27.579
		l-29.998-15.482l-19.836-8.709l-35.321,9.192l-24.191,14.031l-0.482,7.741l-26.127,13.549l51.284,13.063L151.059,547.845z"/>
	<path id="Enfield" fill="#123456" stroke="#000000" d="M419.59,205.286l20.51-30.093l91.059-13.7l95.896,18.534l6.448,57.215
		l6.446,4.837l-38.681,72.526l0.745,3.383l-2.356,7.897l-5.503,1.378l-10.264-5.816l-109.625,0.215l-6.774-8.962l20.322-31.934
		l-29.514-29.998l-2.903-20.321l-35.804-9.677v-15.484H419.59z"/>
	<path id="Greenwich" fill="#123456" stroke="#000000" stroke-width="3.5" stroke-linejoin="round" d="M679.409,591.389
		l-10.644,12.581l-0.483,14.515l27.096,35.803l4.838-2.902l36.771,36.774l20.321-16.938l-4.839-5.806l13.547-14.998l-0.969-24.193
		l-8.225-6.288l1.451-19.354l20.32-13.547l13.064,0.48l13.548-12.096l-2.01-68.032l-36.214,6.585l-20.321,24.191l-63.866,6.29
		L662.35,528.1l-6.959,0.334l-7.186,10.605l4.446,15.738l-3.763,12.658l-22.22,1.212l12.097,27.096L679.409,591.389z"/>
	<path id="Hackney" fill="#123456" stroke="#000000" stroke-width="3.5" stroke-linejoin="round" d="M545.87,465.107l-10.644,11.128
		l15.045,23.583l1.405-0.844l5.886,0.301l4.771-23.532l34.214-5.474l25.658-19.843l8.212-2.736l0.342-14.027l-14.369-14.711
		l-20.528-1.71l-24.975-28.396l-36.948,4.79l-11.29,18.132L559.9,449.14l-11.612,3.388L545.87,465.107z"/>
	<path id="Hammersmith_and_Fulham" fill="#123456" stroke="#000000" stroke-width="3.5" stroke-linejoin="round" d="M368.302,572.52
		l13.063,26.612l21.773,18.869l25.644-4.354l3.387-23.709l-47.9-47.901l-12.095-36.286l2.045-19.783l-28.319-2.575l-5.176,15.099
		l5.806,35.803L338.063,544l14.27,9.648v12.958L368.302,572.52z"/>
	<path id="Haringey" fill="#123456" stroke="#000000" stroke-width="3.5" stroke-linejoin="round" d="M450.553,369.308
		l-0.482-21.288l6.289-10.911l9.676,10.911l8.228-26.358l109.625-0.215l10.264,5.816l-9.922,24.975l-3.421,22.238l-9.923,14.37
		l-36.948,4.79l-11.29,18.132l-18.475-18.132l-68.688,5.052L450.553,369.308z"/>
	<path id="Harrow" fill="#123456" stroke="#000000" stroke-width="3.5" stroke-linejoin="round" d="M178.703,439.57l35.796-8.679
		l20.61,8.679l8.677-24.948l1.334-21.812l25.551-18.323l26.268,2.169l-8.678-18.44l29.286-13.017l-48.812-68.337l-17.356-8.676
		l-16.271,19.525l-94.37,37.965L178.703,439.57z"/>
	<path id="Havering" fill="#123456" stroke="#000000" d="M876.864,554.744l-10.476-32.234l-15.7-9.021l7.257-38.706l29.515-48.869
		l-11.127-24.191l-24.678,3.871L830.85,392.53l5.807-8.709l1.149-29.317l-2.116-22.453l-0.729-18.254l-19.539-26.956l40.488,0.364
		l72.526-16.922l45.127,34.651l-4.835,17.728l11.28,4.029l28.7,72.134l31.737-0.414l27.398,42.709l-84.06,23.925l-4.584,28.355
		l-19.34-18.435l-41.097,83l-31.429,4.835L876.864,554.744z"/>
	<path id="Hillingdon" fill="#123456" stroke="#000000" stroke-width="3.5" stroke-linejoin="round" d="M24,612.277l74.111,34.606
		l39.652-40.266l-9.763-19.527l10.848-36.879l11.932-3.255l30.374-58.576l-53.152-14.102l27.119-11.933l-1.084-8.678l24.948-13.017
		L143.518,325.19l-50.625-12.27L77.02,323.505l-45.487-32.062l-0.098,59.468l23.89,90.827l-19.509,33.51l13.017,65.701L24,612.277z"
		/>
	<path id="Hounslow" fill="#123456" stroke="#000000" stroke-width="3.5" stroke-linejoin="round" d="M138.847,550.213L128,587.092
		l9.763,19.527L98.11,646.885l-14.305-6.628l8.709,38.226l25.644,16.448l16.935-5.807l16.934,16.452l26.612,0.48l-3.871-17.418
		l23.223-20.321l-25.644-10.644l9.676-20.322l16.934-4.84l42.094,2.904l45.965-59.028h16.934l16.452,24.677l19.353-1.452
		l1.937-18.386l10.646-10.16v-17.418L338.063,544l-3.145,10.615l-19.354,0.969l-14.997-11.612l-13.548,0.482L276.374,555.1
		l-50.802,2.42l-8.709-8.226l-20.322,14.031l-12.58-11.612l-8.225,3.871l-24.677-7.739L138.847,550.213z"/>
	<path id="Islington" fill="#123456" stroke="#000000" stroke-width="3.5" stroke-linejoin="round" d="M504.26,392.531l55.64,56.607
		l-11.612,3.388l-2.419,12.581l-10.644,11.128l15.045,23.583l-5.854,3.512l-10.644-6.773l-15.967,10.158l-14.515-42.093
		l-26.128-36.287l-1.936-27.095l-39.746-2.553L504.26,392.531z"/>
	<path id="Kensington_and_Chelsea" fill="#123456" stroke="#000000" stroke-width="3.5" stroke-linejoin="round" d="
		M374.116,486.956l10.151-0.076l2.421,8.224l17.901,4.84l25.159,46.933h15.967l10.645-10.161l7.258,33.869l-35.615,15.186
		l-42.991-42.989l-12.836-37.029L374.116,486.956z"/>
	<path id="Kingston_upon_Thames" fill="#123456" stroke="#000000" stroke-width="3.5" d="M342.901,681.105l-2.66,11.404
		l13.546,44.516l-6.291,16.448l20.188,16.104l-14.616,16.442l-12.894,4.03l-34.651,24.175l-23.369,59.633l-24.981,19.341
		l-6.445-4.835l-4.836-41.904l20.952-42.711l9.67-10.475l-11.282-24.981h-8.059l-4.022-1.27l14.515-7.258l8.227-55.641
		l-11.129-14.998l9.677-8.711l30.482,21.289l37.438-29.159L342.901,681.105z"/>
	<path id="Lambeth" fill="#123456" stroke="#000000" stroke-width="3.5" stroke-linejoin="round" d="M487.41,659.813l-1.026,36.264
		l-7.527,7.525l-8.212,10.606l28.055,7.526l17.791-26.001l43.449,4.79l-31.476-63.637l14.369-20.185l-4.105-13.687l-19.16-29.766
		l7.186-15.737l-8.211-8.21l4.448-21.896l-17.278-0.854l-12.097,45.482l-4.15,21.403l-20.871,19.5L487.41,659.813z"/>
	<path id="Lewisham" fill="#123456" stroke="#000000" stroke-width="3.5" stroke-linejoin="round" d="M603.929,630.58l-7.74,9.192
		l-12.58-0.97l-10.162,32.418l-9.676,6.775l-1.891,6.837l35.277,9.13l19.837-6.29l16.935,9.194l-5.323,7.257l15.485,8.708
		l44.995-32.901l13.064,9.676l4.839-18.386l-12.097-8.226l0.482-8.71l-27.095-35.803l0.483-14.515l10.644-12.581l-40.642,4.355
		l-12.097-27.095l-14.099-11.145l-21.707,3.401l0.483,36.287L603.929,630.58z"/>
	<path id="Merton" fill="#123456" stroke="#000000" stroke-width="3.5" d="M343.626,677.997l-3.385,14.514l13.546,44.516
		l-6.291,16.448l40.643,32.417l13.548-15.965l21.771,3.87l18.87-15.967l12.58,8.226l38.707-3.871l8.709-18.387l-5.319-22.518
		l-26.36-7.072l8.212-10.606l-19.159-4.446l-2.396,3.765l-28.396-10.264l-1.71-14.028l-7.871,2.736l-2.052-21.554l-26.343,11.632
		l-15.054-3.764L343.626,677.997z"/>
	<path id="Newham" fill="#123456" stroke="#000000" stroke-width="3.5" stroke-linejoin="round" d="M630.417,447.691l0.342-14.027
		l47.201-9.199l29.996,1.937l-4.838-15l8.227-1.452l22.256,18.87l10.644,47.899l24.677,9.676l12.996,24.993l-14.932,2.585
		l-20.321,24.191l-63.866,6.29l-20.444-16.355l-6.959-20.879l-13.002-5.814l-1.71-14.37l-10.605-14.37L630.417,447.691z"/>
	<path id="Redbridge" fill="#123456" stroke="#000000" stroke-width="3.5" d="M677.822,282.37l30.621,27.398l53.286,18.493
		l4.734-19.299l50.769-22.563l17.729,27.398v19.088l-26.365,30.131l2.9,37.74l-39.675,42.578l-12.579-5.807l-21.272,11.568
		l-4.37-20.276l-22.256-18.87l-8.227,1.452l4.838,15l-29.996-1.937l-13.838-76.822l12.089-30.622l-12.895-17.728L677.822,282.37z"/>
	<path id="Richmond" fill="#123456" stroke="#000000" stroke-width="3.5" d="M182.023,637.354l-9.676,20.321l25.644,10.644
		l-23.223,20.321l3.871,17.419l-13.064-0.236l8.709,22.494l34.354,3.871l44.513,34.836l14.515-7.258l8.227-55.641l-11.129-14.998
		l9.677-8.711l30.482,21.289l50.316-39.191l-20.32-26.611l5.806-18.869l23.708,0.484l2.419-15.482l15.482-1.936l-14.031-27.579
		l-15.968-5.913v4.46l-10.646,10.161l-1.936,18.385l-19.668,0.79l-16.138-24.015h-16.934l-45.964,59.028l-42.095-2.903
		L182.023,637.354z"/>
	<path id="Southwark" fill="#123456" stroke="#000000" stroke-width="3.5" stroke-linejoin="round" d="M519.568,573.252
		l7.187-15.737l-8.211-8.21l3.619-21.783l16.934-1.936l15.967,3.871l20.806,9.678l23.707-16.936l15.967,9.19v25.646l-24.676,3.87
		l0.483,36.287l12.58,33.386l-7.74,9.191l-12.58-0.969l-10.162,32.418l-9.676,6.775L559.9,699.77l-31.436-62.882l14.37-20.185
		l-4.106-13.687L519.568,573.252z"/>
	<path id="Sutton" fill="#123456" stroke="#000000" d="M388.139,785.892l-20.455-16.313l-6.724,7.564l-6.062,6.817l-0.22,5.283
		v28.205l10.476-3.224l23.369,41.098l-12.893,20.146l19.34,13.7l21.757-24.979l50.79,39.069l16.689-7.647l-4.461-35.682
		l39.396-14.865l-25.528-82.878l-38.707,3.87l-12.58-8.226l-18.87,15.967l-21.771-3.87L388.139,785.892z"/>
	<path id="Tower_Hamlets" fill="#123456" stroke="#000000" stroke-width="3.5" stroke-linejoin="round" d="M622.205,450.428
		l8.896-2.736l-1.027,24.975l10.605,14.37l1.71,14.37l13.002,5.814l7.185,20.87l-7.185,0.343l-7.186,10.605l4.446,15.738
		l-3.763,12.658l-22.22,1.213l-11.128-11.612V531.39l-15.968-9.19l-23.706,16.936l-20.807-9.678l8.71-13.546l-6.289-17.419
		l4.851-22.748l34.213-5.474L622.205,450.428z"/>
	<path id="Waltham_Forrest" fill="#123456" stroke="#000000" stroke-width="3.5" stroke-linejoin="round" d="M594.152,327.263
		l5.503-1.378l3.225-8.058l-1.612-3.223l38.681-72.526l26.592,13.699l12.088,26.593l-15.311,16.922l12.895,17.728l-12.089,30.622
		l13.837,76.822l-47.2,9.199l-14.369-14.711l-20.528-1.71l-24.975-28.396l9.923-14.37l3.421-22.238L594.152,327.263z"/>
	<path id="Wandsworth" fill="#123456" stroke="#000000" stroke-width="3.5" stroke-linejoin="round" d="M428.782,613.646
		L403.138,618l-20.808-17.902l-15.481,1.937l-2.419,15.481l-23.708-0.483l-5.806,18.869l20.32,26.611l-10.587,8.245l-0.933,8.209
		l32.158-11.289l15.055,3.764l26.343-11.632l2.052,21.554l7.871-2.736l1.71,14.028l28.396,10.264l2.396-3.765l19.159,4.446
		l7.527-7.525l1.026-36.264l-18.816-46.872l20.871-19.5l4.104-22.237l-29.953-0.618l-35.616,15.186l4.168,4.168L428.782,613.646z"/>
</g>
<path id="Umrandung" fill="none" stroke="#000000" stroke-width="6.2" stroke-linejoin="round" d="M31.533,291.443l46.021,35.283
	l15.339-13.806l50.624,12.271l88.974-33.749l18.409-23.01l18.408,9.205l55.226-13.806l9.204-30.68l24.543-1.535l33.749-21.477
	l26.079-4.602l23.01-32.214l88.975-12.272l98.178,18.408l4.602,58.292l33.749,18.409l12.271,26.078l30.682,27.613l52.155,18.408
	l4.603-19.942l49.091-21.477h42.952l70.564-15.34l46.021,35.282l-7.67,18.408l13.806,3.069l27.612,70.565l30.681-1.534
	l29.146,44.486l-85.856,23.572l-2.17,29.287L959.9,475.113l-42.304,84.609l9.763,8.677l-15.188,39.051l-61.828,71.591l9.761,65.084
	l-11.933,6.508L831.9,840.666l-15.636,1.083l-4.973,27.12l-37.965,28.202l11.932,40.136l-60.745,11.931l-17.354-21.694
	l-22.779,23.864l-18.439-68.337l-30.372-19.525l-30.373,18.438l-1.084,10.849l-45.558,13.019l-1.085,13.016l-40.134,50.981
	l-26.034-21.693l-20.609-7.593l-4.34-37.966L417.54,862.36l-21.694,28.204L374.15,876.46l14.103-21.693l-23.865-40.134
	l-10.848,4.338V784.26l-15.186,5.425l-30.373,23.863l-24.948,60.744L257,893.815l-7.313-7.414l-3.535-38.144l20.61-44.474
	l9.762-9.763l-11.933-24.948l-9.762-1.085l-45.558-35.797l-35.797-3.254l-6.507-21.694h-14.103l-16.271-18.44l-17.355,6.51
	L93.206,681.21l-8.677-39.052L22.7,612.872l26.032-71.592l-14.102-66.168l20.609-34.711l-24.948-93.287L31.533,291.443z"/>
<text transform="matrix(1 0 0 1 1091.2117 271.2725)" font-family="'ArialMT'" font-size="15.1466">1. Barking and Dagenham</text>
<text transform="matrix(1 0 0 1 1091.2117 289.4482)" font-family="'ArialMT'" font-size="15.1466">2. Barnet</text>
<text transform="matrix(1 0 0 1 1091.2117 307.624)" font-family="'ArialMT'" font-size="15.1466">3. Bexley</text>
<text transform="matrix(1 0 0 1 1091.2117 325.8008)" font-family="'ArialMT'" font-size="15.1466">4. Brent</text>
<text transform="matrix(1 0 0 1 1091.2117 343.9766)" font-family="'ArialMT'" font-size="15.1466">5. Bromley</text>
<text transform="matrix(1 0 0 1 1091.2117 362.1514)" font-family="'ArialMT'" font-size="15.1466">6. Camden</text>
<text transform="matrix(1 0 0 1 1091.2117 380.3271)" font-family="'ArialMT'" font-size="15.1466">7. City of London</text>
<text transform="matrix(1 0 0 1 1091.2117 398.5039)" font-family="'ArialMT'" font-size="15.1466">8. City of Westminster</text>
<text transform="matrix(1 0 0 1 1091.2117 416.6797)" font-family="'ArialMT'" font-size="15.1466">9. Croydon</text>
<text transform="matrix(1 0 0 1 1091.2117 434.8555)" font-family="'ArialMT'" font-size="15.1466">10. Ealing</text>
<text transform="matrix(1 0 0 1 1091.2117 453.0313)" font-family="'ArialMT'" font-size="15.1466">11. Enfield</text>
<text transform="matrix(1 0 0 1 1091.2117 471.207)" font-family="'ArialMT'" font-size="15.1466">12. Greenwich</text>
<text transform="matrix(1 0 0 1 1091.2117 489.3838)" font-family="'ArialMT'" font-size="15.1466">13. Hackney</text>
<text transform="matrix(1 0 0 1 1091.2117 507.5586)" font-family="'ArialMT'" font-size="15.1466">14. Hammersmith and Fulham</text>
<text transform="matrix(1 0 0 1 1091.2117 525.7354)" font-family="'ArialMT'" font-size="15.1466">15. Haringey</text>
<text transform="matrix(1 0 0 1 1091.2117 543.9111)" font-family="'ArialMT'" font-size="15.1466">16. Harrow</text>
<text transform="matrix(1 0 0 1 1091.2117 562.0869)" font-family="'ArialMT'" font-size="15.1466">17. Havering</text>
<text transform="matrix(1 0 0 1 1091.2117 580.2627)" font-family="'ArialMT'" font-size="15.1466">18. Hillingdon</text>
<text transform="matrix(1 0 0 1 1091.2117 598.4385)" font-family="'ArialMT'" font-size="15.1466">19. Hounslow</text>
<text transform="matrix(1 0 0 1 1091.2117 616.6143)" font-family="'ArialMT'" font-size="15.1466">20. Islington</text>
<text transform="matrix(1 0 0 1 1091.2117 634.79)" font-family="'ArialMT'" font-size="15.1466">21. Kensington and Chelsea</text>
<text transform="matrix(1 0 0 1 1091.2117 652.9658)" font-family="'ArialMT'" font-size="15.1466">22. Kingston upon Thames</text>
<text transform="matrix(1 0 0 1 1091.2117 671.1416)" font-family="'ArialMT'" font-size="15.1466">23. Lambeth</text>
<text transform="matrix(1 0 0 1 1091.2117 689.3174)" font-family="'ArialMT'" font-size="15.1466">24. Lewisham</text>
<text transform="matrix(1 0 0 1 1091.2117 707.4932)" font-family="'ArialMT'" font-size="15.1466">25. Merton</text>
<text transform="matrix(1 0 0 1 1091.2117 725.6699)" font-family="'ArialMT'" font-size="15.1466">26. Newham</text>
<text transform="matrix(1 0 0 1 1091.2117 743.8457)" font-family="'ArialMT'" font-size="15.1466">27. Redbridge</text>
<text transform="matrix(1 0 0 1 1091.2117 762.0215)" font-family="'ArialMT'" font-size="15.1466">28. Richmond</text>
<text transform="matrix(1 0 0 1 1091.2117 780.1973)" font-family="'ArialMT'" font-size="15.1466">29. Southwark</text>
<text transform="matrix(1 0 0 1 1091.2117 798.373)" font-family="'ArialMT'" font-size="15.1466">30. Sutton</text>
<text transform="matrix(1 0 0 1 1091.2117 816.5488)" font-family="'ArialMT'" font-size="15.1466">31. Tower Hamlets</text>
<text transform="matrix(1 0 0 1 1091.2117 834.7246)" font-family="'ArialMT'" font-size="15.1466">32. Waltham Forest</text>
<text transform="matrix(1 0 0 1 1091.2117 852.9004)" font-family="'ArialMT'" font-size="15.1466">33. Wandsworth</text>
<g id="Kreise">
	<g id="Kreis33" transform="translate(-1099.4425,-1468.408)">
		
			<path id="path3841-8-9-2-0-6-5-2_40_" sodipodi:ry="67.680222" sodipodi:cy="1106.1483" sodipodi:cx="328.29956" sodipodi:rx="67.680222" sodipodi:type="arc" fill="#FFFFFF" stroke="#000000" d="
			M1541.866,2107.907c0,4.999-4.055,9.055-9.059,9.055c-5.001,0-9.054-4.057-9.054-9.055c0-5.002,4.056-9.058,9.054-9.058
			C1537.813,2098.851,1541.866,2102.905,1541.866,2107.907z"/>
		<text transform="matrix(1 0 0 1 1526.7054 2111.908)" font-family="'ArialMT'" font-size="11.1081">33</text>
	</g>
	<g id="Kreis32" transform="translate(-1099.4425,-1468.408)">
		
			<path id="path3841-8-9-2-0-6-5-2_41_" sodipodi:ry="67.680222" sodipodi:cy="1106.1483" sodipodi:cx="328.29956" sodipodi:rx="67.680222" sodipodi:type="arc" fill="#FFFFFF" stroke="#000000" d="
			M1736.361,1837.985c0,4.998-4.055,9.055-9.059,9.055c-5,0-9.056-4.058-9.056-9.055c0-5.003,4.058-9.057,9.056-9.057
			C1732.307,1828.928,1736.361,1832.982,1736.361,1837.985z"/>
		<text transform="matrix(1 0 0 1 1721.1991 1841.9851)" font-family="'ArialMT'" font-size="11.1081">32</text>
	</g>
	<g id="Kreis31" transform="translate(-1099.4425,-1468.408)">
		
			<path id="path3841-8-9-2-0-6-5-2_42_" sodipodi:ry="67.680222" sodipodi:cy="1106.1483" sodipodi:cx="328.29956" sodipodi:rx="67.680222" sodipodi:type="arc" fill="#FFFFFF" stroke="#000000" d="
			M1714.427,1963.707c0,4.998-4.055,9.055-9.059,9.055c-5,0-9.055-4.058-9.055-9.055c0-5.003,4.058-9.057,9.055-9.057
			C1710.372,1954.651,1714.427,1958.704,1714.427,1963.707z"/>
		<text transform="matrix(1 0 0 1 1699.266 1967.7068)" font-family="'ArialMT'" font-size="11.1081">31</text>
	</g>
	<g id="Kreis30" transform="translate(-1099.4425,-1468.408)">
		
			<path id="path3841-8-9-2-0-6-5-2_43_" sodipodi:ry="67.680222" sodipodi:cy="1106.1483" sodipodi:cx="328.29956" sodipodi:rx="67.680222" sodipodi:type="arc" fill="#FFFFFF" stroke="#000000" d="
			M1544.485,2285.129c0,4.998-4.055,9.055-9.059,9.055c-5,0-9.056-4.057-9.056-9.055c0-5.002,4.058-9.058,9.056-9.058
			C1540.43,2276.071,1544.485,2280.125,1544.485,2285.129z"/>
		<text transform="matrix(1 0 0 1 1529.3236 2289.1287)" font-family="'ArialMT'" font-size="11.1081">30</text>
	</g>
	<g id="Kreis29" transform="translate(-1099.4425,-1468.408)">
		
			<path id="path3841-8-9-2-0-6-5-2_44_" sodipodi:ry="67.680222" sodipodi:cy="1106.1483" sodipodi:cx="328.29956" sodipodi:rx="67.680222" sodipodi:type="arc" fill="#FFFFFF" stroke="#000000" d="
			M1670.285,2050.776c0,4.998-4.057,9.054-9.061,9.054c-5,0-9.054-4.056-9.054-9.054c0-5.002,4.056-9.057,9.054-9.057
			C1666.23,2041.719,1670.285,2045.773,1670.285,2050.776z"/>
		<text transform="matrix(1 0 0 1 1655.1224 2054.7761)" font-family="'ArialMT'" font-size="11.1081">29</text>
	</g>
	<g id="Kreis28" transform="translate(-1099.4425,-1468.408)">
		
			<path id="path3841-8-9-2-0-6-5-2_45_" sodipodi:ry="67.680222" sodipodi:cy="1106.1483" sodipodi:cx="328.29956" sodipodi:rx="67.680222" sodipodi:type="arc" fill="#FFFFFF" stroke="#000000" d="
			M1367.504,2124.121c0,4.999-4.055,9.055-9.059,9.055c-5,0-9.056-4.057-9.056-9.055c0-5.002,4.058-9.056,9.056-9.056
			C1363.449,2115.065,1367.504,2119.119,1367.504,2124.121z"/>
		<text transform="matrix(1 0 0 1 1352.3427 2128.1218)" font-family="'ArialMT'" font-size="11.1081">28</text>
	</g>
	<g id="Kreis27" transform="translate(-1099.4425,-1468.408)">
		
			<path id="path3841-8-9-2-0-6-5-2_46_" sodipodi:ry="67.680222" sodipodi:cy="1106.1483" sodipodi:cx="328.29956" sodipodi:rx="67.680222" sodipodi:type="arc" fill="#FFFFFF" stroke="#000000" d="
			M1846.767,1838.891c0,4.998-4.055,9.055-9.059,9.055c-5,0-9.055-4.057-9.055-9.055c0-5.002,4.057-9.057,9.055-9.057
			C1842.713,1829.835,1846.767,1833.887,1846.767,1838.891z"/>
		<text transform="matrix(1 0 0 1 1831.6053 1842.8914)" font-family="'ArialMT'" font-size="11.1081">27</text>
	</g>
	<g id="Kreis26_1_" transform="translate(-1099.4425,-1468.408)">
		
			<path id="path3841-8-9-2-0-6-5-2_47_" sodipodi:ry="67.680222" sodipodi:cy="1106.1483" sodipodi:cx="328.29956" sodipodi:rx="67.680222" sodipodi:type="arc" fill="#FFFFFF" stroke="#000000" d="
			M1801.928,1948.122c0,4.998-4.055,9.054-9.061,9.054c-5,0-9.053-4.057-9.053-9.054c0-5.002,4.057-9.058,9.053-9.058
			C1797.873,1939.067,1801.928,1943.119,1801.928,1948.122z"/>
		<text transform="matrix(1 0 0 1 1786.7655 1952.1223)" font-family="'ArialMT'" font-size="11.1081">26</text>
	</g>
	<g id="Kreis25_1_" transform="translate(-1099.4425,-1468.408)">
		
			<path id="path3841-8-9-2-0-6-5-2_25_" sodipodi:ry="67.680222" sodipodi:cy="1106.1483" sodipodi:cx="328.29956" sodipodi:rx="67.680222" sodipodi:type="arc" fill="#FFFFFF" stroke="#000000" d="
			M1515.629,2192.783c0,4.998-4.056,9.054-9.06,9.054c-5,0-9.055-4.056-9.055-9.054c0-5.002,4.057-9.057,9.055-9.057
			C1511.575,2183.726,1515.629,2187.78,1515.629,2192.783z"/>
		<text transform="matrix(1 0 0 1 1500.4681 2196.783)" font-family="'ArialMT'" font-size="11.1081">25</text>
	</g>
	<g id="Kreis24" transform="translate(-1099.4425,-1468.408)">
		
			<path id="path3841-8-9-2-0-6-5-2_24_" sodipodi:ry="67.680222" sodipodi:cy="1106.1483" sodipodi:cx="328.29956" sodipodi:rx="67.680222" sodipodi:type="arc" fill="#FFFFFF" stroke="#000000" d="
			M1746.418,2113.613c0,4.998-4.056,9.055-9.06,9.055c-5,0-9.054-4.057-9.054-9.055c0-5.002,4.058-9.057,9.054-9.057
			C1742.365,2104.556,1746.418,2108.611,1746.418,2113.613z"/>
		<text transform="matrix(1 0 0 1 1731.2572 2117.615)" font-family="'ArialMT'" font-size="11.1081">24</text>
	</g>
	<g id="Kreis23" transform="translate(-1099.4425,-1468.408)">
		
			<path id="path3841-8-9-2-0-6-5-2_1_" sodipodi:ry="67.680222" sodipodi:cy="1106.1483" sodipodi:cx="328.29956" sodipodi:rx="67.680222" sodipodi:type="arc" fill="#FFFFFF" stroke="#000000" d="
			M1614.617,2088.634c0,4.998-4.057,9.055-9.059,9.055c-5,0-9.056-4.058-9.056-9.055c0-5.002,4.056-9.056,9.056-9.056
			C1610.562,2079.578,1614.617,2083.632,1614.617,2088.634z"/>
		<text transform="matrix(1 0 0 1 1599.455 2092.6345)" font-family="'ArialMT'" font-size="11.1081">23</text>
	</g>
	<g id="Kreis22" transform="translate(-1099.4425,-1468.408)">
		
			<path id="path3841-8-9-2-0-6-5-2_4_" sodipodi:ry="67.680222" sodipodi:cy="1106.1483" sodipodi:cx="328.29956" sodipodi:rx="67.680222" sodipodi:type="arc" fill="#FFFFFF" stroke="#000000" d="
			M1416.774,2225.912c0,4.998-4.056,9.054-9.06,9.054c-5,0-9.055-4.058-9.055-9.054c0-5.004,4.057-9.058,9.055-9.058
			C1412.72,2216.854,1416.774,2220.908,1416.774,2225.912z"/>
		<text transform="matrix(1 0 0 1 1401.6132 2229.9119)" font-family="'ArialMT'" font-size="11.1081">22</text>
	</g>
	<g id="Kreis21" transform="translate(-1099.4425,-1468.408)">
		
			<path id="path3841-8-9-2-0-6-5-2_5_" sodipodi:ry="67.680222" sodipodi:cy="1106.1483" sodipodi:cx="328.29956" sodipodi:rx="67.680222" sodipodi:type="arc" fill="#FFFFFF" stroke="#000000" d="
			M1510.368,2002.449c0,4.998-4.055,9.054-9.059,9.054c-5,0-9.056-4.056-9.056-9.054c0-5.003,4.058-9.056,9.056-9.056
			C1506.313,1993.395,1510.368,1997.446,1510.368,2002.449z"/>
		<text transform="matrix(1 0 0 1 1495.2064 2006.4509)" font-family="'ArialMT'" font-size="11.1081">21</text>
	</g>
	<g id="Kreis20" transform="translate(-1099.4425,-1468.408)">
		
			<path id="path3841-8-9-2-0-6-5-2_6_" sodipodi:ry="67.680222" sodipodi:cy="1106.1483" sodipodi:cx="328.29956" sodipodi:rx="67.680222" sodipodi:type="arc" fill="#FFFFFF" stroke="#000000" d="
			M1624.981,1907.45c0,4.999-4.054,9.054-9.059,9.054c-5,0-9.053-4.057-9.053-9.054c0-5.002,4.056-9.055,9.053-9.055
			C1620.928,1898.396,1624.981,1902.447,1624.981,1907.45z"/>
		<text transform="matrix(1 0 0 1 1609.8197 1911.4534)" font-family="'ArialMT'" font-size="11.1081">20</text>
	</g>
	<g id="Kreis19" transform="translate(-1099.4425,-1468.408)">
		
			<path id="path3841-8-9-2-0-6-5-2_7_" sodipodi:ry="67.680222" sodipodi:cy="1106.1483" sodipodi:cx="328.29956" sodipodi:rx="67.680222" sodipodi:type="arc" fill="#FFFFFF" stroke="#000000" d="
			M1295.382,2065.97c0,4.998-4.054,9.055-9.06,9.055c-4.999,0-9.054-4.057-9.054-9.055c0-5.002,4.055-9.054,9.054-9.054
			C1291.328,2056.917,1295.382,2060.969,1295.382,2065.97z"/>
		<text transform="matrix(1 0 0 1 1280.2216 2069.9734)" font-family="'ArialMT'" font-size="11.1081">19</text>
	</g>
	<g id="Kreis18" transform="translate(-1099.4425,-1468.408)">
		
			<path id="path3841-8-9-2-0-6-5-2_8_" sodipodi:ry="67.680222" sodipodi:cy="1106.1483" sodipodi:cx="328.29956" sodipodi:rx="67.680222" sodipodi:type="arc" fill="#FFFFFF" stroke="#000000" d="
			M1196.008,1939.019c0,4.998-4.057,9.054-9.059,9.054c-4.999,0-9.054-4.056-9.054-9.054c0-5.004,4.054-9.056,9.054-9.056
			C1191.953,1929.964,1196.008,1934.015,1196.008,1939.019z"/>
		<text transform="matrix(1 0 0 1 1180.2777 1943.0198)" font-family="'ArialMT'" font-size="11.1081">18</text>
	</g>
	<g id="Kreis17" transform="translate(-1099.4425,-1468.408)">
		
			<path id="path3841-8-9-2-0-6-5-2_9_" sodipodi:ry="67.680222" sodipodi:cy="1106.1483" sodipodi:cx="328.29956" sodipodi:rx="67.680222" sodipodi:type="arc" fill="#FFFFFF" stroke="#000000" d="
			M2048.248,1868.928c0,4.999-4.058,9.055-9.065,9.055c-5,0-9.054-4.057-9.054-9.055c0-5.001,4.057-9.056,9.054-9.056
			C2044.192,1859.875,2048.248,1863.928,2048.248,1868.928z"/>
		<text transform="matrix(1 0 0 1 2032.5184 1872.9314)" font-family="'ArialMT'" font-size="11.1081">17</text>
	</g>
	<g id="Kreis16" transform="translate(-1099.4425,-1468.408)">
		
			<path id="path3841-8-9-2-0-6-5-2_10_" sodipodi:ry="67.680222" sodipodi:cy="1106.1483" sodipodi:cx="328.29956" sodipodi:rx="67.680222" sodipodi:type="arc" fill="#FFFFFF" stroke="#000000" d="
			M1327.182,1822.187c0,4.999-4.057,9.054-9.059,9.054c-4.999,0-9.054-4.057-9.054-9.054c0-5.002,4.055-9.054,9.054-9.054
			C1323.127,1813.134,1327.182,1817.184,1327.182,1822.187z"/>
		<text transform="matrix(1 0 0 1 1311.4515 1826.1902)" font-family="'ArialMT'" font-size="11.1081">16</text>
	</g>
	<g id="Kreis15" transform="translate(-1099.4425,-1468.408)">
		
			<path id="path3841-8-9-2-0-6-5-2_11_" sodipodi:ry="67.680222" sodipodi:cy="1106.1483" sodipodi:cx="328.29956" sodipodi:rx="67.680222" sodipodi:type="arc" fill="#FFFFFF" stroke="#000000" d="
			M1625.911,1825.594c0,5-4.055,9.055-9.06,9.055c-5,0-9.053-4.058-9.053-9.055c0-5,4.056-9.052,9.053-9.052
			C1621.858,1816.542,1625.911,1820.593,1625.911,1825.594z"/>
		<text transform="matrix(1 0 0 1 1610.182 1829.5964)" font-family="'ArialMT'" font-size="11.1081">15</text>
	</g>
	<g id="Kreis14" transform="translate(-1099.4425,-1468.408)">
		
			<path id="path3841-8-9-2-0-6-5-2_12_" sodipodi:ry="67.680222" sodipodi:cy="1106.1483" sodipodi:cx="328.29956" sodipodi:rx="67.680222" sodipodi:type="arc" fill="#FFFFFF" stroke="#000000" d="
			M1476.804,2017.421c0,5-4.056,9.056-9.06,9.056c-5,0-9.055-4.056-9.055-9.056c0-5.003,4.055-9.055,9.055-9.055
			C1472.749,2008.366,1476.804,2012.418,1476.804,2017.421z"/>
		<text transform="matrix(1 0 0 1 1461.0731 2021.4216)" font-family="'ArialMT'" font-size="11.1081">14</text>
	</g>
	<g id="Kreis13" transform="translate(-1099.4425,-1468.408)">
		
			<path id="path3841-8-9-2-0-6-5-2_13_" sodipodi:ry="67.680222" sodipodi:cy="1106.1483" sodipodi:cx="328.29956" sodipodi:rx="67.680222" sodipodi:type="arc" fill="#FFFFFF" stroke="#000000" d="
			M1692.384,1910.065c0,4.998-4.058,9.054-9.06,9.054c-5,0-9.055-4.058-9.055-9.054c0-5.002,4.054-9.056,9.055-9.056
			C1688.329,1901.011,1692.384,1905.063,1692.384,1910.065z"/>
		<text transform="matrix(1 0 0 1 1676.6532 1914.0647)" font-family="'ArialMT'" font-size="11.1081">13</text>
	</g>
	<g id="Kreis12" transform="translate(-1099.4425,-1468.408)">
		
			<path id="path3841-8-9-2-0-6-5-2_14_" sodipodi:ry="67.680222" sodipodi:cy="1106.1483" sodipodi:cx="328.29956" sodipodi:rx="67.680222" sodipodi:type="arc" fill="#FFFFFF" stroke="#000000" d="
			M1831.429,2055.797c0,4.998-4.057,9.053-9.06,9.053c-5,0-9.055-4.057-9.055-9.053c0-5.002,4.054-9.055,9.055-9.055
			C1827.371,2046.742,1831.429,2050.795,1831.429,2055.797z"/>
		<text transform="matrix(1 0 0 1 1815.6942 2059.7947)" font-family="'ArialMT'" font-size="11.1081">12</text>
	</g>
	<g id="Kreis11" transform="translate(-1099.4425,-1468.408)">
		
			<path id="path3841-8-9-2-0-6-5-2_3_" sodipodi:ry="67.680222" sodipodi:cy="1106.1483" sodipodi:cx="328.29956" sodipodi:rx="67.680222" sodipodi:type="arc" fill="#FFFFFF" stroke="#000000" d="
			M1646.358,1706.889c0,4.999-4.054,9.053-9.057,9.053c-5,0-9.056-4.056-9.056-9.053c0-5,4.055-9.057,9.056-9.057
			C1642.307,1697.833,1646.358,1701.885,1646.358,1706.889z"/>
		<text transform="matrix(1 0 0 1 1631.1981 1710.8904)" font-family="'ArialMT'" font-size="11.1081">11</text>
	</g>
	<g id="Kreis10" transform="translate(-1099.4425,-1468.408)">
		
			<path id="path3841-8-9-2-0-6-5-2_2_" sodipodi:ry="67.680222" sodipodi:cy="1106.1483" sodipodi:cx="328.29956" sodipodi:rx="67.680222" sodipodi:type="arc" fill="#FFFFFF" stroke="#000000" d="
			M1350.776,1973.924c0,4.999-4.054,9.055-9.058,9.055c-4.999,0-9.055-4.057-9.055-9.055c0-5.001,4.057-9.058,9.055-9.058
			C1346.724,1964.868,1350.776,1968.922,1350.776,1973.924z"/>
		<text transform="matrix(1 0 0 1 1335.3295 1977.9246)" font-family="'ArialMT'" font-size="11.1081">10</text>
	</g>
	<g id="Kreis09" transform="translate(-1099.4425,-1468.408)">
		
			<path id="path3841-8-9-2-0-6-5-2_23_" sodipodi:ry="67.680222" sodipodi:cy="1106.1483" sodipodi:cx="328.29956" sodipodi:rx="67.680222" sodipodi:type="arc" fill="#FFFFFF" stroke="#000000" d="
			M1679.236,2283.462c0,4.999-4.054,9.055-9.058,9.055c-5,0-9.056-4.057-9.056-9.055c0-5.002,4.056-9.054,9.056-9.054
			C1675.182,2274.409,1679.236,2278.46,1679.236,2283.462z"/>
		<text transform="matrix(1 0 0 1 1667.202 2287.4626)" font-family="'ArialMT'" font-size="11.1081">9</text>
	</g>
	<g id="Kreis08" transform="translate(-1099.4425,-1468.408)">
		
			<path id="path3841-8-9-2-0-6-5-2_22_" sodipodi:ry="67.680222" sodipodi:cy="1106.1483" sodipodi:cx="328.29956" sodipodi:rx="67.680222" sodipodi:type="arc" fill="#FFFFFF" stroke="#000000" d="
			M1557.742,1978.978c0,4.999-4.055,9.053-9.059,9.053c-5,0-9.054-4.057-9.054-9.053c0-5.001,4.055-9.049,9.054-9.049
			C1553.691,1969.925,1557.742,1973.975,1557.742,1978.978z"/>
		<text transform="matrix(1 0 0 1 1545.7079 1982.9783)" font-family="'ArialMT'" font-size="11.1081">8</text>
	</g>
	<g id="Kreis07" transform="translate(-1099.4425,-1468.408)">
		
			<path id="path3841-8-9-2-0-6-5-2_21_" sodipodi:ry="67.680222" sodipodi:cy="1106.1483" sodipodi:cx="328.29956" sodipodi:rx="67.680222" sodipodi:type="arc" fill="#FFFFFF" stroke="#000000" d="
			M1647.64,1983.012c0,4.998-4.054,9.054-9.058,9.054c-5,0-9.054-4.057-9.054-9.054c0-5.002,4.057-9.055,9.054-9.055
			C1643.587,1973.958,1647.64,1978.01,1647.64,1983.012z"/>
		<text transform="matrix(1 0 0 1 1635.6073 1987.0125)" font-family="'ArialMT'" font-size="11.1081">7</text>
	</g>
	<g id="Kreis06" transform="translate(-1099.4425,-1468.408)">
		
			<path id="path3841-8-9-2-0-6-5-2_20_" sodipodi:ry="67.680222" sodipodi:cy="1106.1483" sodipodi:cx="328.29956" sodipodi:rx="67.680222" sodipodi:type="arc" fill="#FFFFFF" stroke="#000000" d="
			M1553.243,1906.981c0,4.998-4.055,9.056-9.06,9.056c-5,0-9.054-4.058-9.054-9.056c0-5.002,4.055-9.054,9.054-9.054
			C1549.188,1897.926,1553.243,1901.978,1553.243,1906.981z"/>
		<text transform="matrix(1 0 0 1 1541.2084 1910.9812)" font-family="'ArialMT'" font-size="11.1081">6</text>
	</g>
	<g id="Kreis05" transform="translate(-1099.4425,-1468.408)">
		
			<path id="path3841-8-9-2-0-6-5-2_19_" sodipodi:ry="67.680222" sodipodi:cy="1106.1483" sodipodi:cx="328.29956" sodipodi:rx="67.680222" sodipodi:type="arc" fill="#FFFFFF" stroke="#000000" d="
			M1844.227,2259.463c0,4.999-4.055,9.055-9.061,9.055c-4.999,0-9.054-4.057-9.054-9.055c0-5.001,4.056-9.054,9.054-9.054
			C1840.175,2250.409,1844.227,2254.461,1844.227,2259.463z"/>
		<text transform="matrix(1 0 0 1 1832.1942 2263.4636)" font-family="'ArialMT'" font-size="11.1081">5</text>
	</g>
	<g id="Kreis04" transform="translate(-1099.4425,-1468.408)">
		
			<path id="path3841-8-9-2-0-6-5-2_18_" sodipodi:ry="67.680222" sodipodi:cy="1106.1483" sodipodi:cx="328.29956" sodipodi:rx="67.680222" sodipodi:type="arc" fill="#FFFFFF" stroke="#000000" d="
			M1415.249,1898.265c0,5-4.056,9.056-9.058,9.056s-9.056-4.058-9.056-9.056c0-5.001,4.058-9.055,9.056-9.055
			C1411.196,1889.211,1415.249,1893.264,1415.249,1898.265z"/>
		<text transform="matrix(1 0 0 1 1403.2152 1901.9817)" font-family="'ArialMT'" font-size="11.1081">4</text>
	</g>
	<g id="Kreis03" transform="translate(-1099.4425,-1468.408)">
		
			<path id="path3841-8-9-2-0-6-5-2_15_" sodipodi:ry="67.680222" sodipodi:cy="1106.1483" sodipodi:cx="328.29956" sodipodi:rx="67.680222" sodipodi:type="arc" fill="#FFFFFF" stroke="#000000" d="
			M1940.224,2082.757c0,4.998-4.059,9.054-9.06,9.054c-5,0-9.054-4.057-9.054-9.054c0-5.001,4.054-9.055,9.054-9.055
			C1936.168,2073.702,1940.224,2077.755,1940.224,2082.757z"/>
		<text transform="matrix(1 0 0 1 1928.1893 2086.4724)" font-family="'ArialMT'" font-size="11.1081">3</text>
	</g>
	<g id="Kreis02" transform="translate(-1099.4425,-1468.408)">
		
			<path id="path3841-8-9-2-0-6-5-2_16_" sodipodi:ry="67.680222" sodipodi:cy="1106.1483" sodipodi:cx="328.29956" sodipodi:rx="67.680222" sodipodi:type="arc" fill="#FFFFFF" stroke="#000000" d="
			M1494.747,1775.272c0,5-4.058,9.056-9.059,9.056c-5,0-9.054-4.057-9.054-9.056c0-5.002,4.054-9.054,9.054-9.054
			C1490.69,1766.216,1494.747,1770.27,1494.747,1775.272z"/>
		<text transform="matrix(1 0 0 1 1482.7113 1778.9875)" font-family="'ArialMT'" font-size="11.1081">2</text>
	</g>
	<g id="Kreis01" transform="translate(-1099.4425,-1468.408)">
		
			<path id="path3841-8-9-2-0-6-5-2_17_" sodipodi:ry="67.680222" sodipodi:cy="1106.1483" sodipodi:cx="328.29956" sodipodi:rx="67.680222" sodipodi:type="arc" fill="#FFFFFF" stroke="#000000" d="
			M1928.507,1920.197c0,4.999-4.053,9.054-9.059,9.054c-4.998,0-9.056-4.057-9.056-9.054c0-5.002,4.056-9.056,9.056-9.056
			C1924.454,1911.141,1928.507,1915.195,1928.507,1920.197z"/>
		<text transform="matrix(1 0 0 1 1916.1893 1924.4807)" font-family="'ArialMT'" font-size="11.1081">1</text>
	</g>
</g>
<g id="Skala">
	<rect id="rect4459" x="13.981" y="752.641" fill="#111101" width="17.398" height="16.563"/>
	<text transform="matrix(1.0506 0 0 1 40.1809 767.0215)" font-family="'ArialMT'" font-size="18.069">%legende1%</text>
	<rect id="rect4459-1" x="13.981" y="775.462" fill="#111102" width="17.398" height="16.566"/>
	<text transform="matrix(1.0506 0 0 1 40.1809 789.8438)" font-family="'ArialMT'" font-size="18.069">%legende2%</text>
	<rect id="rect4459-2" x="13.981" y="798.283" fill="#111103" width="17.398" height="16.564"/>
	<text transform="matrix(1.0506 0 0 1 40.1809 812.665)" font-family="'ArialMT'" font-size="18.069">%legende3%</text>
	<rect id="rect4459-6" x="13.981" y="821.108" fill="#111104" width="17.398" height="16.563"/>
	<text transform="matrix(1.0506 0 0 1 40.1809 835.4893)" font-family="'ArialMT'" font-size="18.069">%legende4%</text>
	<rect id="rect4459-29" x="13.981" y="843.927" fill="#111105" width="17.398" height="16.567"/>
	<text transform="matrix(1.0506 0 0 1 40.1809 858.3105)" font-family="'ArialMT'" font-size="18.069">%legende5%</text>
	<rect id="rect4459-3" x="13.981" y="866.751" fill="#111106" width="17.398" height="16.566"/>
	<text transform="matrix(1.0506 0 0 1 40.1809 881.1328)" font-family="'ArialMT'" font-size="18.069">%legende6%</text>
	<rect id="rect4459-8" x="13.981" y="889.573" fill="#111107" width="17.398" height="16.564"/>
	<text transform="matrix(1.0506 0 0 1 40.1809 903.9551)" font-family="'ArialMT'" font-size="18.069">%legende7%</text>
	<rect id="rect4459-9" x="13.981" y="912.394" fill="#111108" width="17.398" height="16.564"/>
	<text transform="matrix(1.0506 0 0 1 40.1809 926.7773)" font-family="'ArialMT'" font-size="18.069">%legende8%</text>
	<rect id="rect4459-18" x="13.981" y="935.216" fill="#111109" width="17.398" height="16.566"/>
	<text transform="matrix(1.0506 0 0 1 40.1809 949.5986)" font-family="'ArialMT'" font-size="18.069">%legende9%</text>
	<rect id="rect4459-18-6" x="13.981" y="958.038" fill="#111110" width="17.398" height="16.567"/>
	<text transform="matrix(1.0506 0 0 1 40.1809 972.4199)" font-family="'ArialMT'" font-size="18.069">%legende10%</text>
</g>
<g id="Beschreibungen">
	<text id="Titel2" transform="matrix(1 0 0 1 12.1648 124.7637)" font-family="'MyriadPro-Regular'" font-size="30">%titel2%</text>
	<text id="Titel1" transform="matrix(0.6758 0 0 1 8.1414 71.1494)" font-family="'ArialMT'" font-size="61.9146">%titel1%</text>
	<text transform="matrix(1 0 0 1 873.8142 900.2012)" font-family="'ArialMT'" font-size="13.5735">visualisation created with</text>
	<text transform="matrix(1 0 0 1 908.8064 916.4883)" font-family="'ArialMT'" font-size="13.5735">DataMaps.eu</text>
	<text transform="matrix(1 0 0 1 885.1277 932.7754)" font-family="'ArialMT'" font-size="13.5735">provided by open3.at</text>
	<g id="open3-logo">
		<path fill="#007CC1" d="M959.024,961.252c0-2.895-1.375-4.54-3.093-5.45c1.582-0.84,2.757-2.318,2.757-4.905
			c0-4.026-3.066-6.86-7.293-6.86c-4.034,0-7.232,2.557-7.328,6.83h4.369c0.102-1.813,1.31-2.888,2.959-2.888
			c1.571,0,2.916,1.041,2.916,3.059c0,1.681-0.907,2.994-3.027,2.994h-0.63v3.796h0.638c2.15,0,3.361,1.312,3.361,3.296
			c0,2.155-1.344,3.327-3.229,3.327c-1.714,0-3.19-0.971-3.261-3.125h-4.365c0.064,5.015,3.729,7.06,7.629,7.06
			C955.532,968.377,959.024,966.023,959.024,961.252z"/>
		<path fill="#9C9D9F" d="M880.977,956.643c0,5.55-2.213,9.216-5.779,9.216c-3.435,0-5.979-3.666-5.979-9.875
			c0-5.416,2.047-9.081,5.779-9.081C878.633,946.901,880.977,950.599,880.977,956.643z M885.268,956.381
			c0-7.432-4.26-12.028-10.205-12.028c-5.943,0-10.17,4.594-10.17,12.028c0,7.924,4.523,12.282,10.167,12.282
			C880.712,968.663,885.268,964.305,885.268,956.381z"/>
		<path fill="#9C9D9F" d="M899.647,959.352c0,4.162-1.75,6.964-4.523,6.964c-1.289,0-2.048-0.396-2.578-0.82V954.53
			c0-1.189,0.821-1.815,2.479-1.815C897.302,952.713,899.647,954.827,899.647,959.352z M903.478,959.154
			c0-4.624-2.241-8.521-8.351-8.521c-2.081,0-4.193,0.53-5.091,1.124c-0.927,0.628-1.25,1.222-1.25,2.41v19.123
			c0,0.396,0.198,0.568,0.596,0.568h2.604c0.397,0,0.566-0.172,0.566-0.568v-5.616c0.423,0.298,1.586,0.895,3.229,0.895
			C900.967,968.564,903.478,963.744,903.478,959.154z"/>
		<path fill="#9C9D9F" d="M916.975,956.71l-7.164,1.222c0.139-2.574,1.253-5.219,3.903-5.219
			C916.054,952.713,916.882,954.663,916.975,956.71z M920.677,963.018c0-0.427-0.333-0.825-0.759-0.825
			c-0.399,0-0.694,0.299-0.854,0.594c-0.695,1.223-2.081,2.808-4.194,2.808c-3.17,0-4.694-2.675-4.894-5.778l9.61-1.585
			c0.693-0.099,0.99-0.33,0.99-1.051c0-3.338-2.345-6.538-6.473-6.538c-3.936,0-7.563,2.741-7.563,8.884
			c0,6.474,3.566,9.083,7.563,9.083C918.333,968.599,920.677,964.997,920.677,963.018z"/>
		<path fill="#9C9D9F" d="M938.272,967.606v-11.889c0-3.962-3.567-5.086-7.069-5.086c-2.44,0-4.458,0.455-5.55,0.989
			c-0.99,0.496-1.32,0.959-1.32,2.042v13.934c0,0.397,0.198,0.564,0.596,0.564h2.608c0.396,0,0.595-0.167,0.595-0.564v-12.742
			c0-1.051,0.257-2.181,2.938-2.181c2.636,0,3.427,1.586,3.427,3.203V967.6c0,0.396,0.175,0.563,0.569,0.563h2.635
			C938.106,968.168,938.272,968.003,938.272,967.606z"/>
		<path fill="#007CC1" d="M964.876,966.681c0-2.354-3.312-1.902-3.312-3.434c0-0.653,0.435-1.051,1.112-1.051
			c0.666,0,0.951,0.457,1.109,0.813c0.09,0.187,0.236,0.347,0.458,0.347c0.271,0,0.472-0.149,0.472-0.456
			c0-0.416-0.612-1.313-2.016-1.313c-1.232,0-2.122,0.655-2.122,1.778c0,2.137,3.272,1.691,3.272,3.424
			c0,0.594-0.397,1.077-1.161,1.077c-0.724,0-1.118-0.595-1.28-1.013c-0.066-0.211-0.217-0.369-0.494-0.369
			c-0.298,0-0.494,0.177-0.494,0.492c0,0.521,0.808,1.561,2.229,1.561C964.085,968.534,964.876,967.743,964.876,966.681z"/>
		<path fill="#007CC1" d="M971.124,965.113c0,1.615-0.679,2.729-1.843,2.729c-1.11,0-1.924-1.111-1.924-2.938
			c0-1.569,0.664-2.678,1.864-2.678C970.385,962.233,971.124,963.347,971.124,965.113z M972.212,965.024
			c0-2.113-1.211-3.435-2.963-3.435c-1.756,0-2.979,1.323-2.979,3.435c0,2.261,1.311,3.507,2.979,3.507
			C970.917,968.531,972.212,967.285,972.212,965.024z"/>
		<path fill="#007CC1" d="M978.855,967.271c0-0.162-0.085-0.259-0.229-0.259c-0.092,0-0.159,0.052-0.252,0.122
			c-0.271,0.273-0.73,0.646-1.525,0.646c-1.262,0-2.1-1.236-2.1-2.952c0-1.668,0.752-2.617,1.827-2.617
			c0.902,0,1.209,0.57,1.358,0.878c0.089,0.175,0.222,0.345,0.458,0.345c0.271,0,0.462-0.161,0.462-0.456
			c0-0.446-0.715-1.383-2.223-1.383c-1.885,0-2.961,1.565-2.961,3.41c0,1.92,0.989,3.534,3.033,3.534
			C978.005,968.534,978.855,967.656,978.855,967.271z"/>
		<path fill="#007CC1" d="M981.478,968.252v-6.373c0-0.1-0.056-0.145-0.149-0.145h-0.738c-0.101,0-0.148,0.051-0.148,0.145v6.373
			c0,0.099,0.057,0.146,0.148,0.146h0.738C981.427,968.396,981.478,968.347,981.478,968.252z"/>
		<path fill="#007CC1" d="M987.208,968.252v-0.384c0-0.099-0.053-0.144-0.149-0.144h-2.479v-2.459h2.115
			c0.099,0,0.147-0.052,0.147-0.146v-0.357c0-0.099-0.049-0.145-0.147-0.145h-2.115v-2.202h2.479c0.1,0,0.149-0.051,0.149-0.147
			v-0.382c0-0.101-0.053-0.145-0.149-0.145h-3.373c-0.099,0-0.142,0.049-0.142,0.145v6.37c0,0.101,0.05,0.149,0.142,0.149h3.373
			C987.158,968.396,987.208,968.347,987.208,968.252z"/>
		<path fill="#007CC1" d="M992.74,962.259v-0.38c0-0.1-0.063-0.145-0.159-0.145h-4.263c-0.098,0-0.16,0.051-0.16,0.145v0.38
			c0,0.101,0.061,0.146,0.16,0.146h1.617v5.831c0,0.11,0.052,0.162,0.16,0.162h0.718c0.11,0,0.16-0.052,0.16-0.162v-5.831h1.605
			C992.677,962.407,992.74,962.357,992.74,962.259z"/>
		<path fill="#007CC1" d="M998.409,961.875c0-0.099-0.063-0.142-0.16-0.142h-0.557c-0.111,0-0.16,0.035-0.223,0.136l-1.483,2.642
			h-0.023l-1.445-2.642c-0.062-0.101-0.113-0.136-0.224-0.136h-0.754c-0.099,0-0.147,0.049-0.147,0.142
			c0,0.035,0.021,0.092,0.036,0.139l1.957,3.287v2.951c0,0.099,0.055,0.146,0.146,0.146h0.74c0.098,0,0.149-0.053,0.149-0.146
			v-2.951l1.951-3.287C998.395,961.974,998.409,961.913,998.409,961.875z"/>
		<path fill="#007CC1" d="M965.044,956.142c0,1.719-0.752,2.78-2.442,2.78c-0.32,0-0.608-0.037-0.769-0.062v-5.438
			c0.125-0.021,0.434-0.049,0.769-0.049C964.231,953.374,965.044,954.423,965.044,956.142z M966.124,956.151
			c0-2.048-1.129-3.396-3.586-3.396c-0.773,0-1.435,0.09-1.595,0.142c-0.131,0.035-0.146,0.098-0.146,0.21v6.126
			c0,0.105,0.02,0.176,0.146,0.21c0.174,0.051,0.952,0.137,1.595,0.137C964.999,959.572,966.124,958.304,966.124,956.151z"/>
		<path fill="#007CC1" d="M971.11,956.784h-2.123l0.739-2.089c0.198-0.555,0.308-1.209,0.308-1.209h0.024
			c0,0,0.125,0.655,0.323,1.209L971.11,956.784z M973.078,959.366c0-0.038-0.025-0.113-0.038-0.149l-2.396-6.236
			c-0.038-0.101-0.074-0.148-0.18-0.148h-0.686c-0.125,0-0.16,0.052-0.197,0.148l-2.387,6.236c-0.02,0.053-0.036,0.111-0.036,0.149
			c0,0.086,0.056,0.139,0.146,0.139h0.58c0.104,0,0.161-0.052,0.198-0.145l0.695-1.977h2.521l0.691,1.977
			c0.038,0.1,0.093,0.145,0.187,0.145h0.738C973.026,959.501,973.078,959.453,973.078,959.366z"/>
		<path fill="#007CC1" d="M977.942,953.361v-0.383c0-0.1-0.06-0.147-0.16-0.147h-4.262c-0.098,0-0.16,0.052-0.16,0.147v0.383
			c0,0.1,0.061,0.14,0.16,0.14h1.619v5.835c0,0.109,0.05,0.161,0.161,0.161h0.715c0.111,0,0.16-0.052,0.16-0.161v-5.832h1.605
			C977.883,953.511,977.942,953.461,977.942,953.361z"/>
		<path fill="#007CC1" d="M982.177,956.784h-2.12l0.734-2.089c0.197-0.555,0.307-1.209,0.307-1.209h0.025
			c0,0,0.123,0.655,0.321,1.209L982.177,956.784z M984.141,959.366c0-0.038-0.024-0.113-0.035-0.149l-2.398-6.236
			c-0.037-0.101-0.068-0.148-0.181-0.148h-0.68c-0.129,0-0.16,0.052-0.198,0.148l-2.389,6.236c-0.022,0.053-0.038,0.111-0.038,0.149
			c0,0.086,0.054,0.139,0.146,0.139h0.578c0.112,0,0.161-0.052,0.198-0.145l0.704-1.977h2.517l0.694,1.977
			c0.036,0.1,0.085,0.145,0.178,0.145h0.74C984.094,959.501,984.141,959.453,984.141,959.366z"/>
		<path fill="#007CC1" d="M966.025,949.752v-2.496c0-0.099-0.076-0.143-0.18-0.143h-2.038c-0.098,0-0.146,0.051-0.146,0.143v0.336
			c0,0.102,0.053,0.161,0.146,0.161h1.236v1.631c0,0.396-0.595,0.667-1.396,0.667c-1.161,0-2.042-1.197-2.042-2.966
			c0-1.604,0.717-2.669,1.979-2.669c0.976,0,1.33,0.576,1.487,0.879c0.085,0.187,0.21,0.336,0.455,0.336
			c0.297,0,0.456-0.177,0.456-0.455c0-0.409-0.617-1.37-2.314-1.37c-1.922,0-3.151,1.398-3.151,3.435c0,2.2,1.309,3.509,3.175,3.509
			C965.022,950.74,966.025,950.236,966.025,949.752z"/>
		<path fill="#007CC1" d="M972.569,947.318c0,1.617-0.68,2.729-1.843,2.729c-1.114,0-1.924-1.109-1.924-2.938
			c0-1.568,0.667-2.677,1.866-2.677C971.825,944.44,972.569,945.552,972.569,947.318z M973.655,947.231
			c0-2.111-1.208-3.435-2.967-3.435c-1.753,0-2.976,1.329-2.976,3.435c0,2.26,1.308,3.509,2.976,3.509
			C972.359,950.74,973.655,949.491,973.655,947.231z"/>
		<path fill="#007CC1" d="M980.251,944.082c0-0.1-0.061-0.143-0.158-0.143h-0.631c-0.11,0-0.161,0.05-0.197,0.143l-1.563,4.497
			c-0.139,0.409-0.229,0.899-0.229,0.899h-0.024c0,0-0.074-0.494-0.211-0.899l-1.531-4.497c-0.037-0.1-0.099-0.143-0.195-0.143
			h-0.791c-0.101,0-0.149,0.05-0.149,0.143c0,0.036,0.021,0.099,0.038,0.146l2.334,6.229c0.038,0.099,0.087,0.145,0.198,0.145h0.52
			c0.123,0,0.181-0.049,0.218-0.145l2.348-6.229C980.239,944.181,980.251,944.118,980.251,944.082z"/>
		<path fill="#007CC1" d="M985.227,950.457v-0.377c0-0.1-0.051-0.147-0.143-0.147H982.6v-2.461h2.114
			c0.098,0,0.146-0.05,0.146-0.146v-0.357c0-0.099-0.049-0.146-0.146-0.146H982.6v-2.201h2.484c0.098,0,0.143-0.054,0.143-0.147
			v-0.38c0-0.1-0.051-0.142-0.143-0.142h-3.377c-0.101,0-0.144,0.048-0.144,0.142v6.374c0,0.101,0.049,0.146,0.144,0.146h3.377
			C985.177,950.605,985.227,950.557,985.227,950.457z"/>
		<path fill="#007CC1" d="M990.118,945.837c0,0.812-0.593,1.359-1.703,1.359c-0.254,0-0.451,0-0.559-0.014v-2.691
			c0.162-0.026,0.396-0.062,0.793-0.062C989.675,944.429,990.118,944.923,990.118,945.837z M991.427,950.457
			c0-0.033-0.024-0.087-0.054-0.136l-1.092-1.99c-0.197-0.377-0.528-0.704-0.766-0.815v-0.021c0.792-0.181,1.615-0.754,1.615-1.726
			c0-1.13-0.7-1.902-2.479-1.902c-0.803,0-1.47,0.087-1.655,0.14c-0.123,0.037-0.146,0.086-0.146,0.197v6.263
			c0,0.101,0.056,0.146,0.146,0.146h0.703c0.102,0,0.149-0.05,0.149-0.146v-2.776h0.444c0.443,0,0.754,0.395,0.927,0.737
			l1.041,2.065c0.036,0.07,0.129,0.123,0.252,0.123h0.766C991.38,950.605,991.427,950.557,991.427,950.457z"/>
		<path fill="#007CC1" d="M998.393,950.457v-6.373c0-0.099-0.052-0.141-0.145-0.141h-0.535c-0.099,0-0.143,0.047-0.143,0.141v4.04
			c0,0.558,0.068,1.21,0.068,1.21h-0.035c0,0-0.286-0.611-0.609-1.075l-2.852-4.181c-0.063-0.101-0.112-0.142-0.219-0.142h-0.81
			c-0.1,0-0.143,0.049-0.143,0.142v6.373c0,0.099,0.049,0.146,0.143,0.146h0.539c0.102,0,0.149-0.049,0.149-0.146v-4.359
			c0-0.498-0.061-1.15-0.061-1.15h0.023c0,0,0.283,0.607,0.574,1.052l3.037,4.459c0.063,0.099,0.1,0.146,0.223,0.146h0.63
			C998.343,950.605,998.393,950.557,998.393,950.457z"/>
		<path fill="#007CC1" d="M1007.458,950.482c0-0.04-0.646-6.399-0.646-6.399c-0.011-0.101-0.049-0.143-0.144-0.143h-0.809
			c-0.098,0-0.146,0.062-0.184,0.143l-1.615,4.3c-0.162,0.436-0.26,0.967-0.26,0.967h-0.021c0,0-0.106-0.531-0.272-0.967l-1.606-4.3
			c-0.036-0.09-0.085-0.143-0.182-0.143h-0.813c-0.098,0-0.139,0.049-0.147,0.143c0,0-0.644,6.359-0.644,6.399
			c0,0.087,0.061,0.123,0.146,0.123h0.605c0.102,0,0.14-0.051,0.146-0.148l0.34-4.325c0.038-0.532,0.038-1.271,0.038-1.271h0.023
			c0,0,0.175,0.739,0.373,1.271l1.604,4.342c0.036,0.099,0.074,0.136,0.178,0.136h0.31c0.11,0,0.147-0.037,0.186-0.136l1.604-4.342
			c0.199-0.54,0.379-1.271,0.379-1.271h0.02c0,0,0,0.739,0.038,1.271l0.347,4.325c0.013,0.1,0.049,0.148,0.147,0.148h0.718
			C1007.423,950.605,1007.458,950.569,1007.458,950.482z"/>
		<path fill="#007CC1" d="M1012.844,950.457v-0.377c0-0.1-0.049-0.147-0.147-0.147h-2.479v-2.461h2.112
			c0.101,0,0.148-0.05,0.148-0.146v-0.357c0-0.099-0.049-0.146-0.148-0.146h-2.112v-2.201h2.479c0.1,0,0.147-0.054,0.147-0.147
			v-0.38c0-0.1-0.049-0.142-0.147-0.142h-3.372c-0.101,0-0.148,0.048-0.148,0.142v6.374c0,0.101,0.054,0.146,0.148,0.146h3.372
			C1012.797,950.605,1012.844,950.557,1012.844,950.457z"/>
		<path fill="#007CC1" d="M1019.874,950.457v-6.373c0-0.099-0.052-0.141-0.144-0.141h-0.536c-0.099,0-0.144,0.047-0.144,0.141v4.04
			c0,0.558,0.069,1.21,0.069,1.21h-0.035c0,0-0.286-0.611-0.607-1.075l-2.854-4.181c-0.062-0.101-0.109-0.142-0.219-0.142h-0.808
			c-0.101,0-0.144,0.049-0.144,0.142v6.373c0,0.099,0.049,0.146,0.144,0.146h0.541c0.101,0,0.146-0.049,0.146-0.146v-4.359
			c0-0.498-0.06-1.15-0.06-1.15h0.022c0,0,0.284,0.607,0.58,1.052l3.033,4.459c0.063,0.099,0.099,0.146,0.224,0.146h0.631
			C1019.822,950.605,1019.874,950.557,1019.874,950.457z"/>
		<path fill="#007CC1" d="M1025.8,944.465v-0.381c0-0.099-0.061-0.141-0.162-0.141h-4.26c-0.1,0-0.16,0.047-0.16,0.141v0.381
			c0,0.101,0.06,0.146,0.16,0.146h1.617v5.831c0,0.112,0.057,0.163,0.16,0.163h0.717c0.111,0,0.16-0.051,0.16-0.163v-5.831h1.606
			C1025.739,944.611,1025.8,944.564,1025.8,944.465z"/>
	</g>
</g>
</svg>
